RobotoSerifTextWide-RegularItalic 01h.ufo
<glyph name="exclam" format="2">
  <advance width="316"/>
  <unicode hex="0021"/>
  <outline>
    <contour>
      <point x="319" y="734" type="line"/>
      <point x="283" y="534"/>
      <point x="232" y="446"/>
      <point x="181" y="215" type="curve"/>
      <point x="124" y="215" type="line"/>
      <point x="172" y="450"/>
      <point x="162" y="554"/>
      <point x="200" y="734" type="curve"/>
    </contour>
    <component base="period"/>
  </outline>
</glyph>
<glyph name="numbersign" format="2">
  <advance width="722"/>
  <unicode hex="0023"/>
  <outline>
    <contour>
      <point x="102" y="0" type="line"/>
      <point x="170" y="0" type="line"/>
      <point x="395" y="750" type="line"/>
      <point x="327" y="750" type="line"/>
    </contour>
    <contour>
      <point x="47" y="243" type="line"/>
      <point x="635" y="243" type="line"/>
      <point x="635" y="315" type="line"/>
      <point x="47" y="315" type="line"/>
    </contour>
    <contour>
      <point x="112" y="455" type="line"/>
      <point x="700" y="455" type="line"/>
      <point x="701" y="527" type="line"/>
      <point x="113" y="527" type="line"/>
    </contour>
    <contour>
      <point x="333" y="0" type="line"/>
      <point x="401" y="0" type="line"/>
      <point x="626" y="750" type="line"/>
      <point x="555" y="750" type="line"/>
    </contour>
  </outline>
</glyph>
<glyph name="percent" format="2">
  <advance width="890"/>
  <unicode hex="0025"/>
  <outline>
    <contour>
      <point x="256" y="720" type="curve" smooth="yes"/>
      <point x="130" y="720"/>
      <point x="60" y="628"/>
      <point x="60" y="531" type="curve" smooth="yes"/>
      <point x="60" y="440"/>
      <point x="123" y="382"/>
      <point x="218" y="382" type="curve" smooth="yes"/>
      <point x="344" y="382"/>
      <point x="414" y="473"/>
      <point x="414" y="571" type="curve" smooth="yes"/>
      <point x="414" y="662"/>
      <point x="351" y="720"/>
    </contour>
    <contour>
      <point x="252" y="672" type="curve" smooth="yes"/>
      <point x="304" y="672"/>
      <point x="333" y="641"/>
      <point x="333" y="582" type="curve" smooth="yes"/>
      <point x="333" y="502"/>
      <point x="293" y="430"/>
      <point x="222" y="430" type="curve"/>
      <point x="170" y="430"/>
      <point x="140" y="461"/>
      <point x="140" y="520" type="curve" smooth="yes"/>
      <point x="140" y="600"/>
      <point x="181" y="672"/>
    </contour>
    <contour>
      <point x="670" y="328" type="curve" smooth="yes"/>
      <point x="544" y="328"/>
      <point x="474" y="237"/>
      <point x="474" y="139" type="curve" smooth="yes"/>
      <point x="474" y="48"/>
      <point x="537" y="-10"/>
      <point x="632" y="-10" type="curve" smooth="yes"/>
      <point x="758" y="-10"/>
      <point x="828" y="82"/>
      <point x="828" y="179" type="curve" smooth="yes"/>
      <point x="828" y="270"/>
      <point x="765" y="328"/>
    </contour>
    <contour>
      <point x="666" y="280" type="curve" smooth="yes"/>
      <point x="718" y="280"/>
      <point x="747" y="249"/>
      <point x="747" y="190" type="curve" smooth="yes"/>
      <point x="747" y="110"/>
      <point x="707" y="38"/>
      <point x="636" y="38" type="curve"/>
      <point x="583" y="38"/>
      <point x="555" y="69"/>
      <point x="555" y="128" type="curve" smooth="yes"/>
      <point x="555" y="208"/>
      <point x="595" y="280"/>
    </contour>
    <component base="fraction" xOffset="186"/>
  </outline>
</glyph>
<glyph name="plus" format="2">
  <advance width="644"/>
  <unicode hex="002B"/>
  <outline>
    <contour>
      <point x="325" y="554" type="line"/>
      <point x="240" y="128" type="line"/>
      <point x="320" y="128" type="line"/>
      <point x="404" y="554" type="line"/>
    </contour>
    <contour>
      <point x="565" y="375" type="line"/>
      <point x="95" y="375" type="line"/>
      <point x="82" y="307" type="line"/>
      <point x="552" y="307" type="line"/>
    </contour>
  </outline>
</glyph>
<glyph name="one" format="2">
  <advance width="644"/>
  <unicode hex="0031"/>
  <outline>
    <contour>
      <point x="362" y="84" type="curve" smooth="yes"/>
      <point x="470" y="609" type="line"/>
      <point x="402" y="609" type="line"/>
      <point x="350" y="558"/>
      <point x="263" y="535"/>
      <point x="153" y="533" type="curve"/>
      <point x="142" y="471" type="line"/>
      <point x="242" y="469"/>
      <point x="345" y="500"/>
      <point x="376" y="547" type="curve"/>
      <point x="356" y="536" type="line"/>
      <point x="262" y="84" type="line" smooth="yes"/>
      <point x="256" y="55"/>
      <point x="209" y="48"/>
      <point x="134" y="48" type="curve" smooth="yes"/>
      <point x="73" y="48" type="line"/>
      <point x="63" y="0" type="line"/>
      <point x="527" y="0" type="line"/>
      <point x="536" y="48" type="line"/>
      <point x="487" y="48" type="line" smooth="yes"/>
      <point x="405" y="48"/>
      <point x="356" y="55"/>
    </contour>
  </outline>
</glyph>
<glyph name="two" format="2">
  <advance width="644"/>
  <unicode hex="0032"/>
  <outline>
    <contour>
      <point x="-1" y="0" type="line"/>
      <point x="14" y="93" type="line"/>
      <point x="260" y="212"/>
      <point x="476" y="309"/>
      <point x="476" y="451" type="curve" smooth="yes"/>
      <point x="476.0" y="518"/>
      <point x="421.3748321840477" y="558.0"/>
      <point x="332" y="558" type="curve" smooth="yes"/>
      <point x="233" y="558"/>
      <point x="170" y="518"/>
      <point x="141" y="496" type="curve"/>
      <point x="146" y="513"/>
      <point x="163" y="548"/>
      <point x="198" y="549" type="curve"/>
      <point x="181" y="428" type="line"/>
      <point x="85" y="428" type="line"/>
      <point x="105" y="554" type="line"/>
      <point x="146" y="583"/>
      <point x="225" y="618"/>
      <point x="334" y="618" type="curve" smooth="yes"/>
      <point x="494.5140110886552" y="618.0"/>
      <point x="578.0" y="552"/>
      <point x="578" y="445" type="curve" smooth="yes"/>
      <point x="578" y="279"/>
      <point x="301" y="161"/>
      <point x="43" y="48" type="curve"/>
      <point x="42" y="75" type="line"/>
      <point x="339" y="75" type="line" smooth="yes"/>
      <point x="434" y="75"/>
      <point x="472" y="81"/>
      <point x="483" y="115" type="curve" smooth="yes"/>
      <point x="507" y="192" type="line"/>
      <point x="570" y="192" type="line"/>
      <point x="537" y="0" type="line"/>
    </contour>
  </outline>
</glyph>
<glyph name="three" format="2">
  <advance width="644"/>
  <unicode hex="0033"/>
  <outline>
    <contour>
      <point x="295" y="-90" type="curve" smooth="yes"/>
      <point x="139" y="-90"/>
      <point x="36" y="-18"/>
      <point x="-5" y="91" type="curve"/>
      <point x="55" y="128" type="line"/>
      <point x="86" y="51"/>
      <point x="165" y="-29"/>
      <point x="299" y="-29" type="curve" smooth="yes"/>
      <point x="414" y="-29"/>
      <point x="473" y="36"/>
      <point x="473" y="119" type="curve" smooth="yes"/>
      <point x="473.0" y="195"/>
      <point x="423.0803214237894" y="254.0"/>
      <point x="267" y="254" type="curve" smooth="yes"/>
      <point x="200" y="254" type="line"/>
      <point x="209" y="313" type="line"/>
      <point x="281" y="313" type="line" smooth="yes"/>
      <point x="420" y="313"/>
      <point x="485" y="365"/>
      <point x="485" y="451" type="curve" smooth="yes"/>
      <point x="485.0" y="516"/>
      <point x="437.4830995245041" y="557.0"/>
      <point x="344" y="557" type="curve" smooth="yes"/>
      <point x="258" y="557"/>
      <point x="199" y="525"/>
      <point x="162" y="493" type="curve"/>
      <point x="171" y="519"/>
      <point x="188" y="534"/>
      <point x="217" y="536" type="curve"/>
      <point x="205" y="432" type="line"/>
      <point x="109" y="432" type="line"/>
      <point x="125" y="558" type="line"/>
      <point x="167" y="585"/>
      <point x="243" y="618"/>
      <point x="347" y="618" type="curve" smooth="yes"/>
      <point x="489.4381018385186" y="618.0"/>
      <point x="585.0" y="551"/>
      <point x="585" y="451" type="curve" smooth="yes"/>
      <point x="585" y="352"/>
      <point x="484" y="282"/>
      <point x="330" y="282" type="curve"/>
      <point x="345" y="293" type="line"/>
      <point x="345" y="275" type="line"/>
      <point x="316" y="290" type="line"/>
      <point x="509.1077251323417" y="276.7174580596802"/>
      <point x="574.0" y="202.02173656261857"/>
      <point x="574" y="108" type="curve" smooth="yes"/>
      <point x="574" y="-13"/>
      <point x="461" y="-90"/>
    </contour>
  </outline>
</glyph>
<glyph name="six" format="2">
  <advance width="644"/>
  <unicode hex="0036"/>
  <outline>
    <contour>
      <point x="309" y="-10" type="curve" smooth="yes"/>
      <point x="467" y="-10"/>
      <point x="597" y="96"/>
      <point x="597" y="257" type="curve" smooth="yes"/>
      <point x="597" y="380"/>
      <point x="503" y="453"/>
      <point x="378" y="453" type="curve" smooth="yes"/>
      <point x="268" y="453"/>
      <point x="177" y="385"/>
      <point x="125" y="297" type="curve"/>
      <point x="127" y="246" type="line"/>
      <point x="189" y="336"/>
      <point x="268" y="392"/>
      <point x="360" y="392" type="curve" smooth="yes"/>
      <point x="452" y="392"/>
      <point x="492" y="338"/>
      <point x="492" y="262" type="curve" smooth="yes"/>
      <point x="492" y="250"/>
      <point x="490" y="235"/>
      <point x="487" y="223" type="curve" smooth="yes"/>
      <point x="472" y="126"/>
      <point x="406" y="51"/>
      <point x="311" y="51" type="curve" smooth="yes"/>
      <point x="214" y="51"/>
      <point x="149" y="114"/>
      <point x="149" y="224" type="curve" smooth="yes"/>
      <point x="149" y="281"/>
      <point x="158" y="336"/>
      <point x="177" y="387" type="curve" smooth="yes"/>
      <point x="238" y="545"/>
      <point x="399" y="653"/>
      <point x="604" y="679" type="curve"/>
      <point x="604" y="740" type="line"/>
      <point x="271" y="706"/>
      <point x="46" y="485"/>
      <point x="46" y="239" type="curve" smooth="yes"/>
      <point x="46" y="88"/>
      <point x="156" y="-10"/>
    </contour>
  </outline>
</glyph>
<glyph name="eight" format="2">
  <advance width="644"/>
  <unicode hex="0038"/>
  <outline>
    <contour>
      <point x="305" y="51" type="curve" smooth="yes"/>
      <point x="198" y="51"/>
      <point x="128" y="104"/>
      <point x="128" y="192" type="curve" smooth="yes"/>
      <point x="128" y="205"/>
      <point x="129" y="217"/>
      <point x="131" y="229" type="curve" smooth="yes"/>
      <point x="149" y="301"/>
      <point x="218" y="346"/>
      <point x="315" y="346" type="curve"/>
      <point x="425" y="346"/>
      <point x="485" y="292"/>
      <point x="485" y="214" type="curve" smooth="yes"/>
      <point x="485" y="193"/>
      <point x="482" y="173"/>
      <point x="475" y="154" type="curve" smooth="yes"/>
      <point x="453" y="93"/>
      <point x="395" y="51"/>
    </contour>
    <contour>
      <point x="365" y="406" type="curve" smooth="yes"/>
      <point x="281" y="406"/>
      <point x="228" y="454"/>
      <point x="228" y="528" type="curve" smooth="yes"/>
      <point x="228" y="538"/>
      <point x="229" y="548"/>
      <point x="230" y="557" type="curve" smooth="yes"/>
      <point x="243" y="619"/>
      <point x="295" y="659"/>
      <point x="376" y="659" type="curve" smooth="yes"/>
      <point x="458" y="659"/>
      <point x="510" y="615"/>
      <point x="510" y="544" type="curve" smooth="yes"/>
      <point x="510" y="535"/>
      <point x="509" y="525"/>
      <point x="508" y="515" type="curve" smooth="yes"/>
      <point x="496" y="449"/>
      <point x="440" y="406"/>
    </contour>
    <contour>
      <point x="301" y="-10" type="curve" smooth="yes"/>
      <point x="479" y="-10"/>
      <point x="591" y="84"/>
      <point x="591" y="197" type="curve" smooth="yes"/>
      <point x="591" y="291"/>
      <point x="512" y="354"/>
      <point x="406" y="378" type="curve"/>
      <point x="429" y="363" type="line"/>
      <point x="434" y="378" type="line"/>
      <point x="403" y="368" type="line"/>
      <point x="530" y="381"/>
      <point x="607" y="451"/>
      <point x="607" y="545" type="curve" smooth="yes"/>
      <point x="607" y="648"/>
      <point x="510" y="720"/>
      <point x="378" y="720" type="curve" smooth="yes"/>
      <point x="233" y="720"/>
      <point x="131" y="643"/>
      <point x="131" y="542" type="curve" smooth="yes"/>
      <point x="131" y="462"/>
      <point x="191" y="400"/>
      <point x="280" y="376" type="curve"/>
      <point x="252" y="392" type="line"/>
      <point x="248" y="377" type="line"/>
      <point x="281" y="387" type="line"/>
      <point x="128" y="379"/>
      <point x="23" y="308"/>
      <point x="23" y="194" type="curve" smooth="yes"/>
      <point x="23" y="72"/>
      <point x="147" y="-10"/>
    </contour>
  </outline>
</glyph>
<glyph name="nine" format="2">
  <advance width="644"/>
  <unicode hex="0039"/>
  <outline>
    <contour>
      <point x="334" y="619" type="curve" smooth="yes"/>
      <point x="489" y="619"/>
      <point x="600" y="529"/>
      <point x="600" y="363" type="curve" smooth="yes"/>
      <point x="600" y="122"/>
      <point x="411" y="-84"/>
      <point x="40" y="-92" type="curve"/>
      <point x="40" y="-32" type="line"/>
      <point x="272" y="-24"/>
      <point x="417" y="68"/>
      <point x="472" y="217" type="curve" smooth="yes"/>
      <point x="489" y="266"/>
      <point x="498" y="321"/>
      <point x="498" y="379" type="curve" smooth="yes"/>
      <point x="498" y="498"/>
      <point x="435" y="558"/>
      <point x="332" y="558" type="curve" smooth="yes"/>
      <point x="242" y="558"/>
      <point x="178" y="499"/>
      <point x="164" y="411" type="curve" smooth="yes"/>
      <point x="163" y="399"/>
      <point x="162" y="387"/>
      <point x="162" y="374" type="curve" smooth="yes"/>
      <point x="162" y="288"/>
      <point x="213" y="238"/>
      <point x="302" y="238" type="curve" smooth="yes"/>
      <point x="396" y="238"/>
      <point x="468" y="289"/>
      <point x="521" y="374" type="curve"/>
      <point x="524" y="322" type="line"/>
      <point x="484" y="243"/>
      <point x="397" y="177"/>
      <point x="284" y="177" type="curve" smooth="yes"/>
      <point x="156" y="177"/>
      <point x="56" y="261"/>
      <point x="56" y="379" type="curve" smooth="yes"/>
      <point x="56" y="513"/>
      <point x="170" y="619"/>
    </contour>
  </outline>
</glyph>
<glyph name="less" format="2">
  <advance width="644"/>
  <unicode hex="003C"/>
  <outline>
    <contour>
      <point x="498" y="142" type="line"/>
      <point x="105" y="311" type="line"/>
      <point x="119" y="377" type="line"/>
      <point x="576" y="546" type="line"/>
      <point x="563" y="468" type="line"/>
      <point x="134" y="311" type="line"/>
      <point x="142" y="369" type="line"/>
      <point x="512" y="216" type="line"/>
    </contour>
  </outline>
</glyph>
<glyph name="at" format="2">
  <advance width="1039"/>
  <unicode hex="0040"/>
  <outline>
    <contour>
      <point x="520" y="-153" type="curve" smooth="yes"/>
      <point x="625" y="-153"/>
      <point x="715" y="-133"/>
      <point x="772" y="-110" type="curve"/>
      <point x="761" y="-56" type="line"/>
      <point x="702" y="-79"/>
      <point x="621" y="-97"/>
      <point x="520" y="-97" type="curve" smooth="yes"/>
      <point x="300" y="-97"/>
      <point x="112" y="25"/>
      <point x="112" y="225" type="curve" smooth="yes"/>
      <point x="112" y="450"/>
      <point x="315" y="617"/>
      <point x="593" y="617" type="curve" smooth="yes"/>
      <point x="812" y="617"/>
      <point x="942" y="514"/>
      <point x="942" y="355" type="curve" smooth="yes"/>
      <point x="942" y="205"/>
      <point x="848" y="100"/>
      <point x="747" y="100" type="curve" smooth="yes"/>
      <point x="708" y="100"/>
      <point x="686" y="113"/>
      <point x="686" y="139" type="curve" smooth="yes"/>
      <point x="686" y="156"/>
      <point x="691" y="171"/>
      <point x="699" y="198" type="curve" smooth="yes"/>
      <point x="782" y="468" type="line"/>
      <point x="728" y="468" type="line"/>
      <point x="680" y="386" type="line"/>
      <point x="665" y="381" type="line"/>
      <point x="595" y="151" type="line"/>
      <point x="602" y="140" type="line"/>
      <point x="602" y="86"/>
      <point x="640" y="49"/>
      <point x="727" y="49" type="curve" smooth="yes"/>
      <point x="870" y="49"/>
      <point x="1007" y="170"/>
      <point x="1007" y="355" type="curve" smooth="yes"/>
      <point x="1007" y="552"/>
      <point x="838" y="673"/>
      <point x="593" y="673" type="curve" smooth="yes"/>
      <point x="284" y="673"/>
      <point x="47" y="480"/>
      <point x="47" y="225" type="curve" smooth="yes"/>
      <point x="47" y="-14"/>
      <point x="260" y="-153"/>
    </contour>
    <contour>
      <point x="459" y="49" type="curve" smooth="yes"/>
      <point x="542" y="49"/>
      <point x="592" y="111"/>
      <point x="679" y="212" type="curve"/>
      <point x="658" y="240" type="line"/>
      <point x="588" y="152"/>
      <point x="533" y="99"/>
      <point x="469" y="99" type="curve" smooth="yes"/>
      <point x="419" y="99"/>
      <point x="388" y="127"/>
      <point x="388" y="194" type="curve" smooth="yes"/>
      <point x="388" y="304"/>
      <point x="464" y="423"/>
      <point x="560" y="423" type="curve" smooth="yes"/>
      <point x="619" y="423"/>
      <point x="662" y="390"/>
      <point x="671" y="302" type="curve"/>
      <point x="711" y="321" type="line"/>
      <point x="694" y="441"/>
      <point x="640" y="474"/>
      <point x="557" y="474" type="curve" smooth="yes"/>
      <point x="394" y="474"/>
      <point x="297" y="331"/>
      <point x="297" y="210" type="curve" smooth="yes"/>
      <point x="297" y="97"/>
      <point x="376" y="49"/>
    </contour>
  </outline>
</glyph>
<glyph name="B" format="2">
  <advance width="765"/>
  <unicode hex="0042"/>
  <outline>
    <contour>
      <point x="399" y="344" type="line" smooth="yes"/>
      <point x="526.0" y="344.0"/>
      <point x="578" y="292"/>
      <point x="578" y="217" type="curve" smooth="yes"/>
      <point x="578" y="127"/>
      <point x="528" y="58"/>
      <point x="362" y="58" type="curve" smooth="yes"/>
      <point x="209" y="58" type="line"/>
      <point x="268" y="344" type="line"/>
    </contour>
    <contour>
      <point x="447" y="652" type="line" smooth="yes"/>
      <point x="555.0" y="652.0"/>
      <point x="603" y="612"/>
      <point x="603" y="546" type="curve" smooth="yes"/>
      <point x="603" y="471"/>
      <point x="551.0" y="400.0"/>
      <point x="412" y="400" type="curve" smooth="yes"/>
      <point x="279" y="400" type="line"/>
      <point x="332" y="652" type="line"/>
    </contour>
    <contour>
      <point x="431" y="366" type="line"/>
      <point x="618" y="365"/>
      <point x="705" y="452"/>
      <point x="705" y="545" type="curve" smooth="yes"/>
      <point x="705" y="638"/>
      <point x="625.0" y="710.0"/>
      <point x="455" y="710" type="curve" smooth="yes"/>
      <point x="134" y="710" type="line"/>
      <point x="124" y="662" type="line"/>
      <point x="137" y="662" type="line" smooth="yes"/>
      <point x="198" y="662"/>
      <point x="233" y="653"/>
      <point x="227" y="626" type="curve" smooth="yes"/>
      <point x="115" y="83" type="line" smooth="yes"/>
      <point x="109" y="53"/>
      <point x="64" y="48"/>
      <point x="10" y="48" type="curve" smooth="yes"/>
      <point x="-2" y="48" type="line"/>
      <point x="-12" y="0" type="line"/>
      <point x="352" y="0" type="line" smooth="yes"/>
      <point x="579" y="0"/>
      <point x="682" y="81"/>
      <point x="682" y="212" type="curve" smooth="yes"/>
      <point x="682.0" y="309.0"/>
      <point x="592" y="382"/>
      <point x="401" y="388" type="curve"/>
      <point x="516" y="365" type="line"/>
      <point x="518" y="383" type="line"/>
    </contour>
  </outline>
</glyph>
<glyph name="C" format="2">
  <advance width="806"/>
  <unicode hex="0043"/>
  <anchor x="425" y="741" name="top"/>
  <anchor x="425" y="0" name="bottom"/>
  <outline>
    <contour>
      <point x="464" y="659" type="curve" smooth="yes"/>
      <point x="598" y="659.0"/>
      <point x="659" y="589"/>
      <point x="683" y="495" type="curve"/>
      <point x="756" y="495" type="line"/>
      <point x="799" y="710" type="line"/>
      <point x="738" y="710" type="line"/>
      <point x="684" y="551" type="line"/>
      <point x="724" y="547" type="line"/>
      <point x="702" y="654"/>
      <point x="615" y="720.0"/>
      <point x="466" y="720" type="curve" smooth="yes"/>
      <point x="233.0" y="720.0"/>
      <point x="51.0" y="543.0"/>
      <point x="51" y="317" type="curve" smooth="yes"/>
      <point x="51.0" y="117.0"/>
      <point x="201.0" y="-10.0"/>
      <point x="407" y="-10" type="curve" smooth="yes"/>
      <point x="581" y="-10"/>
      <point x="692" y="85"/>
      <point x="749" y="217" type="curve"/>
      <point x="686" y="245" type="line"/>
      <point x="639.5014782240296" y="132.6285723747381"/>
      <point x="553.4512635379061" y="51.0"/>
      <point x="412" y="51" type="curve" smooth="yes"/>
      <point x="252.0" y="51.0"/>
      <point x="156.0" y="157.0"/>
      <point x="156" y="309" type="curve" smooth="yes"/>
      <point x="156.0" y="514.0"/>
      <point x="293.0" y="659.0"/>
    </contour>
  </outline>
</glyph>
<glyph name="E" format="2">
  <advance width="731"/>
  <unicode hex="0045"/>
  <anchor x="421" y="741" name="top"/>
  <anchor x="484" y="0" name="right"/>
  <anchor x="421" y="0" name="bottom"/>
  <outline>
    <contour>
      <point x="643" y="218" type="line"/>
      <point x="581" y="218" type="line"/>
      <point x="543" y="103" type="line" smooth="yes"/>
      <point x="531" y="67"/>
      <point x="490" y="60"/>
      <point x="391" y="60" type="curve" smooth="yes"/>
      <point x="209" y="60" type="line"/>
      <point x="331" y="650" type="line"/>
      <point x="474" y="650" type="line" smooth="yes"/>
      <point x="573" y="650"/>
      <point x="611" y="643"/>
      <point x="610" y="607" type="curve" smooth="yes"/>
      <point x="606" y="517" type="line"/>
      <point x="666" y="517" type="line"/>
      <point x="700" y="710" type="line"/>
      <point x="131" y="710" type="line"/>
      <point x="122" y="662" type="line"/>
      <point x="134" y="662" type="line" smooth="yes"/>
      <point x="191" y="662"/>
      <point x="231" y="655"/>
      <point x="225" y="626" type="curve" smooth="yes"/>
      <point x="115" y="86" type="line" smooth="yes"/>
      <point x="108" y="53"/>
      <point x="64" y="48"/>
      <point x="10" y="48" type="curve" smooth="yes"/>
      <point x="-2" y="48" type="line"/>
      <point x="-12" y="0" type="line"/>
      <point x="599" y="0" type="line"/>
    </contour>
    <contour>
      <point x="244" y="390" type="curve"/>
      <point x="233" y="338" type="line"/>
      <point x="329" y="335"/>
      <point x="425" y="331"/>
      <point x="520" y="327" type="curve"/>
      <point x="533" y="399" type="line"/>
      <point x="437" y="395"/>
      <point x="340" y="393"/>
    </contour>
  </outline>
</glyph>
<glyph name="F" format="2">
  <advance width="699"/>
  <unicode hex="0046"/>
  <guideline x="737" y="532" angle="0" identifier="a6Z5cGgsYc"/>
  <guideline x="706" y="710" angle="80" identifier="G36m6lkoFd"/>
  <outline>
    <contour>
      <point x="-4" y="0" type="line"/>
      <point x="305" y="0" type="line"/>
      <point x="315" y="48" type="line"/>
      <point x="295" y="48" type="line" smooth="yes"/>
      <point x="253" y="48"/>
      <point x="201" y="49"/>
      <point x="208" y="84" type="curve" smooth="yes"/>
      <point x="325" y="650" type="line"/>
      <point x="479" y="650" type="line" smooth="yes"/>
      <point x="586.0" y="650.0"/>
      <point x="619" y="642"/>
      <point x="616" y="605" type="curve" smooth="yes"/>
      <point x="610" y="532" type="line"/>
      <point x="671" y="532" type="line"/>
      <point x="706" y="710" type="line"/>
      <point x="141" y="710" type="line"/>
      <point x="131" y="662" type="line"/>
      <point x="143" y="662" type="line" smooth="yes"/>
      <point x="191" y="662"/>
      <point x="225" y="655"/>
      <point x="219" y="626" type="curve" smooth="yes"/>
      <point x="108" y="85" type="line" smooth="yes"/>
      <point x="102" y="54"/>
      <point x="64" y="48"/>
      <point x="18" y="48" type="curve" smooth="yes"/>
      <point x="6" y="48" type="line"/>
    </contour>
    <contour>
      <point x="257" y="380" type="curve"/>
      <point x="246" y="327" type="line"/>
      <point x="342" y="324"/>
      <point x="438" y="321"/>
      <point x="533" y="318" type="curve"/>
      <point x="546" y="389" type="line"/>
      <point x="450" y="386"/>
      <point x="354" y="384"/>
    </contour>
  </outline>
</glyph>
<glyph name="G" format="2">
  <advance width="880"/>
  <unicode hex="0047"/>
  <anchor x="450" y="741" name="top"/>
  <anchor x="450" y="0" name="bottom"/>
  <outline>
    <contour>
      <point x="730" y="95" type="curve"/>
      <point x="761" y="269" type="line"/>
      <point x="766" y="298"/>
      <point x="802" y="305"/>
      <point x="851" y="305" type="curve" smooth="yes"/>
      <point x="857" y="305" type="line"/>
      <point x="865" y="353" type="line"/>
      <point x="570" y="353" type="line"/>
      <point x="562" y="305" type="line"/>
      <point x="575" y="305" type="line" smooth="yes"/>
      <point x="632" y="305"/>
      <point x="670" y="299"/>
      <point x="665" y="266" type="curve"/>
      <point x="636" y="111" type="line"/>
      <point x="617" y="98"/>
      <point x="551" y="51"/>
      <point x="433" y="51" type="curve" smooth="yes"/>
      <point x="254.42263731664747" y="51.0"/>
      <point x="154" y="166"/>
      <point x="154" y="323" type="curve" smooth="yes"/>
      <point x="154" y="524"/>
      <point x="283" y="659"/>
      <point x="468" y="659" type="curve" smooth="yes"/>
      <point x="598" y="659"/>
      <point x="664" y="589"/>
      <point x="695" y="495" type="curve"/>
      <point x="767" y="495" type="line"/>
      <point x="806" y="710" type="line"/>
      <point x="742" y="710" type="line"/>
      <point x="695" y="551" type="line"/>
      <point x="735" y="547" type="line"/>
      <point x="702" y="652"/>
      <point x="620" y="720"/>
      <point x="469" y="720" type="curve" smooth="yes"/>
      <point x="223" y="720"/>
      <point x="49" y="553"/>
      <point x="49" y="331" type="curve" smooth="yes"/>
      <point x="49" y="127"/>
      <point x="210.61562513495912" y="-10.0"/>
      <point x="431" y="-10" type="curve" smooth="yes"/>
      <point x="583" y="-10"/>
      <point x="680" y="49"/>
    </contour>
  </outline>
</glyph>
<glyph name="H" format="2">
  <advance width="935"/>
  <unicode hex="0048"/>
  <anchor x="469" y="741" name="top"/>
  <anchor x="469" y="0" name="bottom"/>
  <outline>
    <contour>
      <point x="238" y="395" type="line"/>
      <point x="227" y="336" type="line"/>
      <point x="721" y="336" type="line"/>
      <point x="732" y="395" type="line"/>
    </contour>
    <contour>
      <point x="-4" y="0" type="line"/>
      <point x="286" y="0" type="line"/>
      <point x="296" y="48" type="line"/>
      <point x="286" y="48" type="line" smooth="yes"/>
      <point x="249" y="48"/>
      <point x="201" y="51"/>
      <point x="202" y="58" type="curve" smooth="yes"/>
      <point x="325" y="652" type="line" smooth="yes"/>
      <point x="326" y="659"/>
      <point x="374" y="662"/>
      <point x="411" y="662" type="curve" smooth="yes"/>
      <point x="422" y="662" type="line"/>
      <point x="431" y="710" type="line"/>
      <point x="142" y="710" type="line"/>
      <point x="132" y="662" type="line"/>
      <point x="145" y="662" type="line" smooth="yes"/>
      <point x="192" y="662"/>
      <point x="226" y="655"/>
      <point x="220" y="626" type="curve" smooth="yes"/>
      <point x="108" y="84" type="line" smooth="yes"/>
      <point x="102" y="55"/>
      <point x="67" y="48"/>
      <point x="18" y="48" type="curve" smooth="yes"/>
      <point x="6" y="48" type="line"/>
    </contour>
    <contour>
      <point x="520" y="0" type="line"/>
      <point x="810" y="0" type="line"/>
      <point x="820" y="48" type="line"/>
      <point x="807" y="48" type="line" smooth="yes"/>
      <point x="760" y="48"/>
      <point x="726" y="55"/>
      <point x="732" y="84" type="curve" smooth="yes"/>
      <point x="844" y="626" type="line" smooth="yes"/>
      <point x="850" y="655"/>
      <point x="885" y="662"/>
      <point x="933" y="662" type="curve" smooth="yes"/>
      <point x="946" y="662" type="line"/>
      <point x="956" y="710" type="line"/>
      <point x="665" y="710" type="line"/>
      <point x="655" y="662" type="line"/>
      <point x="666" y="662" type="line" smooth="yes"/>
      <point x="702" y="662"/>
      <point x="750" y="659"/>
      <point x="749" y="652" type="curve" smooth="yes"/>
      <point x="627" y="58" type="line" smooth="yes"/>
      <point x="626" y="51"/>
      <point x="578" y="48"/>
      <point x="541" y="48" type="curve" smooth="yes"/>
      <point x="530" y="48" type="line"/>
    </contour>
  </outline>
</glyph>
<glyph name="I" format="2">
  <advance width="422"/>
  <unicode hex="0049"/>
  <anchor x="213" y="741" name="top"/>
  <anchor x="271" y="0" name="right"/>
  <anchor x="213" y="0" name="bottom"/>
  <outline>
    <contour>
      <point x="121" y="79" type="line" smooth="yes"/>
      <point x="116" y="53"/>
      <point x="72" y="48"/>
      <point x="18" y="48" type="curve" smooth="yes"/>
      <point x="6" y="48" type="line"/>
      <point x="-3" y="0" type="line"/>
      <point x="316" y="0" type="line"/>
      <point x="325" y="48" type="line"/>
      <point x="313" y="48" type="line" smooth="yes"/>
      <point x="256" y="48"/>
      <point x="216" y="55"/>
      <point x="221" y="84" type="curve" smooth="yes"/>
      <point x="318" y="631" type="line" smooth="yes"/>
      <point x="323" y="657"/>
      <point x="368" y="662"/>
      <point x="421" y="662" type="curve" smooth="yes"/>
      <point x="433" y="662" type="line"/>
      <point x="442" y="710" type="line"/>
      <point x="122" y="710" type="line"/>
      <point x="114" y="662" type="line"/>
      <point x="126" y="662" type="line" smooth="yes"/>
      <point x="183" y="662"/>
      <point x="223" y="655"/>
      <point x="218" y="626" type="curve" smooth="yes"/>
    </contour>
  </outline>
</glyph>
<glyph name="L" format="2">
  <advance width="706"/>
  <unicode hex="004C"/>
  <anchor x="416" y="741" name="top"/>
  <anchor x="508" y="710" name="right"/>
  <anchor x="510" y="410" name="mid"/>
  <anchor x="416" y="0" name="bottom"/>
  <outline>
    <contour>
      <point x="448" y="710" type="line"/>
      <point x="124" y="710" type="line"/>
      <point x="115" y="662" type="line"/>
      <point x="127" y="662" type="line" smooth="yes"/>
      <point x="184" y="662"/>
      <point x="224" y="655"/>
      <point x="219" y="626" type="curve" smooth="yes"/>
      <point x="121" y="79" type="line" smooth="yes"/>
      <point x="116" y="53"/>
      <point x="72" y="48"/>
      <point x="18" y="48" type="curve" smooth="yes"/>
      <point x="6" y="48" type="line"/>
      <point x="-3" y="0" type="line"/>
      <point x="601" y="0" type="line"/>
      <point x="639" y="225" type="line"/>
      <point x="575" y="225" type="line"/>
      <point x="541" y="103" type="line" smooth="yes"/>
      <point x="530" y="67"/>
      <point x="489" y="60"/>
      <point x="390" y="60" type="curve" smooth="yes"/>
      <point x="217" y="60" type="line"/>
      <point x="319" y="631" type="line" smooth="yes"/>
      <point x="324" y="657"/>
      <point x="369" y="662"/>
      <point x="426" y="662" type="curve" smooth="yes"/>
      <point x="439" y="662" type="line"/>
    </contour>
  </outline>
</glyph>
<glyph name="M" format="2">
  <advance width="1078"/>
  <unicode hex="004D"/>
  <anchor x="529" y="0" name="bottom"/>
  <outline>
    <contour>
      <point x="-12" y="0" type="line"/>
      <point x="267" y="0" type="line"/>
      <point x="276" y="48" type="line"/>
      <point x="271" y="48" type="line" smooth="yes"/>
      <point x="233" y="48"/>
      <point x="178" y="51"/>
      <point x="179" y="58" type="curve" smooth="yes"/>
      <point x="307" y="688" type="line"/>
      <point x="297" y="688" type="line"/>
      <point x="429" y="-2" type="line"/>
      <point x="491" y="-2" type="line"/>
      <point x="906" y="686" type="line"/>
      <point x="897" y="689" type="line"/>
      <point x="768" y="58" type="line" smooth="yes"/>
      <point x="767" y="51"/>
      <point x="711" y="48"/>
      <point x="667" y="48" type="curve" smooth="yes"/>
      <point x="657" y="48" type="line"/>
      <point x="648" y="0" type="line"/>
      <point x="963" y="0" type="line"/>
      <point x="972" y="48" type="line"/>
      <point x="960" y="48" type="line" smooth="yes"/>
      <point x="907" y="48"/>
      <point x="864" y="55"/>
      <point x="869" y="80" type="curve" smooth="yes"/>
      <point x="980" y="626" type="line" smooth="yes"/>
      <point x="986" y="655"/>
      <point x="1028" y="662"/>
      <point x="1085" y="662" type="curve" smooth="yes"/>
      <point x="1097" y="662" type="line"/>
      <point x="1107" y="710" type="line"/>
      <point x="848" y="710" type="line"/>
      <point x="480" y="92" type="line"/>
      <point x="500" y="94" type="line"/>
      <point x="392" y="710" type="line"/>
      <point x="131" y="710" type="line"/>
      <point x="122" y="662" type="line"/>
      <point x="134" y="662" type="line" smooth="yes"/>
      <point x="191" y="662"/>
      <point x="231" y="655"/>
      <point x="225" y="626" type="curve" smooth="yes"/>
      <point x="115" y="84" type="line" smooth="yes"/>
      <point x="109" y="55"/>
      <point x="65" y="48"/>
      <point x="9" y="48" type="curve"/>
      <point x="-4" y="48" type="line"/>
    </contour>
  </outline>
</glyph>
<glyph name="O" format="2">
  <advance width="892"/>
  <unicode hex="004F"/>
  <anchor x="446" y="741" name="top"/>
  <anchor x="446" y="0" name="bottom"/>
  <outline>
    <contour>
      <point x="845.0" y="565"/>
      <point x="704" y="720.0"/>
      <point x="475" y="720" type="curve" smooth="yes"/>
      <point x="220" y="720"/>
      <point x="52" y="546"/>
      <point x="52" y="327" type="curve" smooth="yes"/>
      <point x="52.0" y="141"/>
      <point x="197.1666587782224" y="-10.0"/>
      <point x="422" y="-10" type="curve" smooth="yes"/>
      <point x="677" y="-10"/>
      <point x="845" y="164"/>
      <point x="845" y="383" type="curve" smooth="yes"/>
    </contour>
    <contour>
      <point x="422" y="51" type="curve" smooth="yes"/>
      <point x="244.38830608865638" y="51.0"/>
      <point x="157.0" y="171"/>
      <point x="157" y="327" type="curve" smooth="yes"/>
      <point x="157" y="393"/>
      <point x="171" y="457"/>
      <point x="201" y="510" type="curve" smooth="yes"/>
      <point x="252" y="598"/>
      <point x="344" y="659"/>
      <point x="475" y="659" type="curve" smooth="yes"/>
      <point x="652.6116939113437" y="659.0"/>
      <point x="740.0" y="541"/>
      <point x="740" y="383" type="curve" smooth="yes"/>
      <point x="740" y="317"/>
      <point x="726" y="253"/>
      <point x="696" y="200" type="curve" smooth="yes"/>
      <point x="645" y="112"/>
      <point x="554" y="51"/>
    </contour>
  </outline>
</glyph>
<glyph name="Q" format="2">
  <advance width="892"/>
  <unicode hex="0051"/>
  <outline>
    <contour>
      <point x="846" y="394" type="curve" smooth="yes"/>
      <point x="846" y="576"/>
      <point x="704" y="720"/>
      <point x="485" y="720" type="curve" smooth="yes"/>
      <point x="226" y="720"/>
      <point x="51" y="540"/>
      <point x="51" y="316" type="curve" smooth="yes"/>
      <point x="51" y="134"/>
      <point x="192" y="-10"/>
      <point x="412" y="-10" type="curve" smooth="yes"/>
      <point x="671" y="-10"/>
      <point x="846" y="170"/>
    </contour>
    <contour>
      <point x="414" y="51" type="curve" smooth="yes"/>
      <point x="241" y="51"/>
      <point x="156" y="164"/>
      <point x="156" y="314" type="curve" smooth="yes"/>
      <point x="156" y="385"/>
      <point x="172" y="453"/>
      <point x="205" y="510" type="curve" smooth="yes"/>
      <point x="258" y="598"/>
      <point x="352" y="659"/>
      <point x="483" y="659" type="curve" smooth="yes"/>
      <point x="656" y="659"/>
      <point x="741" y="546"/>
      <point x="741" y="396" type="curve" smooth="yes"/>
      <point x="741" y="325"/>
      <point x="725" y="257"/>
      <point x="692" y="200" type="curve" smooth="yes"/>
      <point x="639" y="112"/>
      <point x="546" y="51"/>
    </contour>
    <contour>
      <point x="598" y="-186" type="curve" smooth="yes"/>
      <point x="654" y="-186"/>
      <point x="709" y="-180"/>
      <point x="758" y="-167" type="curve"/>
      <point x="776" y="-76" type="line"/>
      <point x="714" y="-92"/>
      <point x="667" y="-105"/>
      <point x="604" y="-105" type="curve" smooth="yes"/>
      <point x="499" y="-105"/>
      <point x="436" y="-81"/>
      <point x="436" y="-22" type="curve" smooth="yes"/>
      <point x="436" y="-10"/>
      <point x="438" y="3"/>
      <point x="444" y="18" type="curve"/>
      <point x="375" y="7" type="line"/>
      <point x="369" y="-13"/>
      <point x="366" y="-32"/>
      <point x="366" y="-49" type="curve" smooth="yes"/>
      <point x="366" y="-135"/>
      <point x="450" y="-186"/>
    </contour>
  </outline>
</glyph>
<glyph name="R" format="2">
  <advance width="793"/>
  <unicode hex="0052"/>
  <anchor x="432" y="741" name="top"/>
  <anchor x="432" y="0" name="bottom"/>
  <outline>
    <contour>
      <point x="411" y="321" type="line"/>
      <point x="568" y="0" type="line"/>
      <point x="720" y="0" type="line"/>
      <point x="729" y="48" type="line"/>
      <point x="718" y="48" type="line" smooth="yes"/>
      <point x="674" y="48"/>
      <point x="656" y="51"/>
      <point x="640" y="83" type="curve" smooth="yes"/>
      <point x="503" y="336" type="line"/>
    </contour>
    <contour>
      <point x="424" y="650" type="line" smooth="yes"/>
      <point x="547.3799464611332" y="650.0"/>
      <point x="600.0" y="600"/>
      <point x="600" y="523" type="curve" smooth="yes"/>
      <point x="600" y="419"/>
      <point x="535" y="357"/>
      <point x="385" y="357" type="curve" smooth="yes"/>
      <point x="271" y="357" type="line"/>
      <point x="323" y="650" type="line"/>
    </contour>
    <contour>
      <point x="-3" y="0" type="line"/>
      <point x="308" y="0" type="line"/>
      <point x="317" y="48" type="line"/>
      <point x="304" y="48" type="line" smooth="yes"/>
      <point x="267" y="48"/>
      <point x="216" y="51"/>
      <point x="217" y="58" type="curve" smooth="yes"/>
      <point x="261" y="300" type="line"/>
      <point x="379" y="300" type="line" smooth="yes"/>
      <point x="415" y="300"/>
      <point x="448" y="303"/>
      <point x="478" y="308" type="curve" smooth="yes"/>
      <point x="624" y="332"/>
      <point x="705" y="409"/>
      <point x="705" y="520" type="curve" smooth="yes"/>
      <point x="705.0" y="629"/>
      <point x="610.5414119634607" y="710.0"/>
      <point x="421" y="710" type="curve" smooth="yes"/>
      <point x="124" y="710" type="line"/>
      <point x="115" y="662" type="line"/>
      <point x="127" y="662" type="line" smooth="yes"/>
      <point x="189" y="662"/>
      <point x="224" y="653"/>
      <point x="219" y="626" type="curve" smooth="yes"/>
      <point x="121" y="80" type="line" smooth="yes"/>
      <point x="116" y="53"/>
      <point x="72" y="48"/>
      <point x="18" y="48" type="curve" smooth="yes"/>
      <point x="6" y="48" type="line"/>
    </contour>
  </outline>
</glyph>
<glyph name="T" format="2">
  <advance width="764"/>
  <unicode hex="0054"/>
  <anchor x="395" y="741" name="top"/>
  <anchor x="395" y="0" name="bottom"/>
  <outline>
    <contour>
      <point x="286" y="83" type="line" smooth="yes"/>
      <point x="280" y="56"/>
      <point x="238" y="48"/>
      <point x="181" y="48" type="curve" smooth="yes"/>
      <point x="163" y="48" type="line"/>
      <point x="153" y="0" type="line"/>
      <point x="485" y="0" type="line"/>
      <point x="495" y="48" type="line"/>
      <point x="477" y="48" type="line" smooth="yes"/>
      <point x="421" y="48"/>
      <point x="380" y="56"/>
      <point x="386" y="85" type="curve" smooth="yes"/>
      <point x="503" y="650" type="line"/>
      <point x="577" y="650" type="line" smooth="yes"/>
      <point x="676" y="650"/>
      <point x="715" y="643"/>
      <point x="712" y="607" type="curve" smooth="yes"/>
      <point x="701" y="511" type="line"/>
      <point x="761" y="511" type="line"/>
      <point x="800" y="710" type="line"/>
      <point x="129" y="710" type="line"/>
      <point x="89" y="511" type="line"/>
      <point x="150" y="511" type="line"/>
      <point x="183" y="607" type="line" smooth="yes"/>
      <point x="196" y="643"/>
      <point x="232" y="650"/>
      <point x="331" y="650" type="curve" smooth="yes"/>
      <point x="404" y="650" type="line"/>
    </contour>
  </outline>
</glyph>
<glyph name="Y" format="2">
  <advance width="769"/>
  <unicode hex="0059"/>
  <anchor x="397" y="741" name="top"/>
  <anchor x="397" y="0" name="bottom"/>
  <outline>
    <contour>
      <point x="154" y="0" type="line"/>
      <point x="485" y="0" type="line"/>
      <point x="495" y="48" type="line"/>
      <point x="476" y="48" type="line" smooth="yes"/>
      <point x="420" y="48"/>
      <point x="380" y="55"/>
      <point x="386" y="84" type="curve" smooth="yes"/>
      <point x="433" y="315" type="line"/>
      <point x="413" y="268" type="line"/>
      <point x="715" y="621" type="line" smooth="yes"/>
      <point x="747" y="658"/>
      <point x="781" y="662"/>
      <point x="819" y="662" type="curve" smooth="yes"/>
      <point x="825" y="662" type="line"/>
      <point x="835" y="710" type="line"/>
      <point x="555" y="710" type="line"/>
      <point x="545" y="662" type="line"/>
      <point x="565" y="662" type="line" smooth="yes"/>
      <point x="608" y="662"/>
      <point x="659" y="655"/>
      <point x="657" y="644" type="curve"/>
      <point x="382" y="323" type="line"/>
      <point x="416" y="321" type="line"/>
      <point x="261" y="652" type="line"/>
      <point x="262" y="659"/>
      <point x="316" y="662"/>
      <point x="357" y="662" type="curve" smooth="yes"/>
      <point x="375" y="662" type="line"/>
      <point x="385" y="710" type="line"/>
      <point x="88" y="710" type="line"/>
      <point x="78" y="662" type="line"/>
      <point x="85" y="662" type="line" smooth="yes"/>
      <point x="124" y="662"/>
      <point x="155" y="662"/>
      <point x="167" y="636" type="curve" smooth="yes"/>
      <point x="341" y="270" type="line"/>
      <point x="334" y="315" type="line"/>
      <point x="287" y="84" type="line" smooth="yes"/>
      <point x="281" y="55"/>
      <point x="238" y="48"/>
      <point x="182" y="48" type="curve" smooth="yes"/>
      <point x="164" y="48" type="line"/>
    </contour>
  </outline>
</glyph>
<glyph name="backslash" format="2">
  <advance width="478"/>
  <unicode hex="005C"/>
  <outline>
    <contour>
      <point x="151" y="749" type="line"/>
      <point x="78" y="749" type="line"/>
      <point x="329" y="-129" type="line"/>
      <point x="402" y="-129" type="line"/>
    </contour>
  </outline>
</glyph>
<glyph name="grave" format="2">
  <advance width="575"/>
  <unicode hex="0060"/>
  <anchor x="247" y="531" name="_top"/>
  <outline>
    <contour>
      <point x="283" y="694" type="curve" smooth="yes"/>
      <point x="334" y="586" type="line"/>
      <point x="334" y="566" type="line"/>
      <point x="301" y="566" type="line"/>
      <point x="200" y="656" type="line" smooth="yes"/>
      <point x="180" y="676"/>
      <point x="166" y="693"/>
      <point x="166" y="713" type="curve" smooth="yes"/>
      <point x="166" y="738"/>
      <point x="187" y="758"/>
      <point x="216" y="758" type="curve" smooth="yes"/>
      <point x="249" y="758"/>
      <point x="264" y="740"/>
    </contour>
  </outline>
</glyph>
<glyph name="a" format="2">
  <advance width="685"/>
  <unicode hex="0061"/>
  <anchor x="321" y="508" name="top"/>
  <anchor x="492" y="-10" name="right"/>
  <anchor x="352" y="0" name="bottom"/>
  <outline>
    <contour>
      <point x="540" y="-7" type="curve" smooth="yes"/>
      <point x="583" y="-7"/>
      <point x="618" y="7"/>
      <point x="641" y="22" type="curve"/>
      <point x="650" y="75" type="line"/>
      <point x="638" y="71"/>
      <point x="600" y="54"/>
      <point x="565" y="54" type="curve" smooth="yes"/>
      <point x="540" y="54"/>
      <point x="528" y="63"/>
      <point x="528" y="81" type="curve" smooth="yes"/>
      <point x="528" y="96"/>
      <point x="531" y="120"/>
      <point x="538" y="163" type="curve" smooth="yes"/>
      <point x="600" y="511" type="line"/>
      <point x="536" y="511" type="line"/>
      <point x="496" y="430" type="line"/>
      <point x="489" y="426" type="line"/>
      <point x="438" y="123" type="line"/>
      <point x="453" y="151" type="line"/>
      <point x="445" y="114"/>
      <point x="443" y="97"/>
      <point x="443" y="79" type="curve" smooth="yes"/>
      <point x="443" y="23"/>
      <point x="486" y="-7"/>
    </contour>
    <contour>
      <point x="243" y="-12" type="curve" smooth="yes"/>
      <point x="355" y="-12"/>
      <point x="420" y="65"/>
      <point x="497" y="199" type="curve"/>
      <point x="471" y="227" type="line"/>
      <point x="396" y="108"/>
      <point x="335" y="47"/>
      <point x="256" y="47" type="curve" smooth="yes"/>
      <point x="187.80054300877043" y="47.0"/>
      <point x="153.0" y="95"/>
      <point x="153" y="191" type="curve" smooth="yes"/>
      <point x="153" y="333"/>
      <point x="243" y="459"/>
      <point x="362" y="459" type="curve" smooth="yes"/>
      <point x="443" y="459"/>
      <point x="497" y="406"/>
      <point x="509" y="322" type="curve"/>
      <point x="552" y="374" type="line"/>
      <point x="528" y="457"/>
      <point x="468" y="518"/>
      <point x="362" y="518" type="curve" smooth="yes"/>
      <point x="185" y="518"/>
      <point x="52" y="370"/>
      <point x="52" y="198" type="curve" smooth="yes"/>
      <point x="52.0" y="60"/>
      <point x="127.45177599354533" y="-12.0"/>
    </contour>
  </outline>
</glyph>
<glyph name="b" format="2">
  <advance width="678"/>
  <unicode hex="0062"/>
  <outline>
    <contour>
      <point x="293" y="-12" type="curve" smooth="yes"/>
      <point x="488" y="-12"/>
      <point x="628" y="140"/>
      <point x="628" y="315" type="curve" smooth="yes"/>
      <point x="628" y="449"/>
      <point x="554" y="518"/>
      <point x="433" y="518" type="curve" smooth="yes"/>
      <point x="319" y="518"/>
      <point x="243" y="443"/>
      <point x="158" y="314" type="curve"/>
      <point x="184" y="285" type="line"/>
      <point x="267" y="400"/>
      <point x="337" y="459"/>
      <point x="419" y="459" type="curve" smooth="yes"/>
      <point x="493" y="459"/>
      <point x="527" y="413"/>
      <point x="527" y="322" type="curve" smooth="yes"/>
      <point x="527" y="177"/>
      <point x="432" y="47"/>
      <point x="296" y="47" type="curve" smooth="yes"/>
      <point x="214" y="47"/>
      <point x="153" y="83"/>
      <point x="133" y="143" type="curve"/>
      <point x="118" y="110"/>
      <point x="127" y="82"/>
      <point x="160" y="59" type="curve"/>
      <point x="293" y="735" type="line"/>
      <point x="96" y="735" type="line"/>
      <point x="88" y="688" type="line"/>
      <point x="100" y="686" type="line" smooth="yes"/>
      <point x="158" y="677"/>
      <point x="185" y="671"/>
      <point x="180" y="642" type="curve" smooth="yes"/>
      <point x="65" y="64" type="line"/>
      <point x="111" y="25"/>
      <point x="185" y="-12"/>
    </contour>
  </outline>
</glyph>
<glyph name="c" format="2">
  <advance width="597"/>
  <unicode hex="0063"/>
  <anchor x="319" y="508" name="top"/>
  <anchor x="328" y="0" name="bottom"/>
  <outline>
    <contour>
      <point x="376" y="518" type="curve" smooth="yes"/>
      <point x="187" y="518"/>
      <point x="50" y="390"/>
      <point x="50" y="221" type="curve" smooth="yes"/>
      <point x="50" y="69"/>
      <point x="165" y="-12"/>
      <point x="305" y="-12" type="curve" smooth="yes"/>
      <point x="406" y="-12"/>
      <point x="489" y="31"/>
      <point x="540" y="131" type="curve"/>
      <point x="487" y="165" type="line"/>
      <point x="462" y="118"/>
      <point x="410" y="46"/>
      <point x="310" y="46" type="curve" smooth="yes"/>
      <point x="211" y="46"/>
      <point x="151" y="106"/>
      <point x="151" y="207" type="curve" smooth="yes"/>
      <point x="151" y="343"/>
      <point x="237" y="460"/>
      <point x="372" y="460" type="curve" smooth="yes"/>
      <point x="455" y="460"/>
      <point x="505" y="421"/>
      <point x="526" y="371" type="curve"/>
      <point x="537" y="398"/>
      <point x="516" y="437"/>
      <point x="483" y="438" type="curve"/>
      <point x="461" y="329" type="line"/>
      <point x="555" y="329" type="line"/>
      <point x="579" y="450" type="line"/>
      <point x="545" y="485"/>
      <point x="476" y="518"/>
    </contour>
  </outline>
</glyph>
<glyph name="e" format="2">
  <advance width="577"/>
  <unicode hex="0065"/>
  <anchor x="294" y="508" name="top"/>
  <anchor x="435" y="1" name="right"/>
  <anchor x="314" y="0" name="bottom"/>
  <outline>
    <contour>
      <point x="299" y="-12" type="curve" smooth="yes"/>
      <point x="397" y="-12"/>
      <point x="479" y="34"/>
      <point x="520" y="116" type="curve"/>
      <point x="469" y="151" type="line"/>
      <point x="438" y="97"/>
      <point x="386" y="46"/>
      <point x="302" y="46" type="curve" smooth="yes"/>
      <point x="203.09224384248617" y="46.0"/>
      <point x="149.0" y="108"/>
      <point x="149" y="212" type="curve" smooth="yes"/>
      <point x="149" y="355"/>
      <point x="240" y="460"/>
      <point x="350" y="460" type="curve" smooth="yes"/>
      <point x="413.8364423853492" y="460.0"/>
      <point x="444.0" y="429"/>
      <point x="444" y="383" type="curve" smooth="yes"/>
      <point x="444" y="297"/>
      <point x="365" y="252"/>
      <point x="127" y="249" type="curve"/>
      <point x="118" y="198" type="line"/>
      <point x="120" y="198"/>
      <point x="122" y="198"/>
      <point x="124" y="198" type="curve" smooth="yes"/>
      <point x="399" y="198"/>
      <point x="538" y="264"/>
      <point x="538" y="383" type="curve" smooth="yes"/>
      <point x="538.0" y="462"/>
      <point x="469.99896175805856" y="518.0"/>
      <point x="353" y="518" type="curve" smooth="yes"/>
      <point x="167" y="518"/>
      <point x="51" y="368"/>
      <point x="51" y="221" type="curve" smooth="yes"/>
      <point x="51.0" y="71"/>
      <point x="160.12399161436673" y="-12.0"/>
    </contour>
  </outline>
</glyph>
<glyph name="n" format="2">
  <advance width="705"/>
  <unicode hex="006E"/>
  <anchor x="352" y="508" name="top"/>
  <anchor x="359" y="0" name="bottom"/>
  <outline>
    <contour>
      <point x="74" y="0" type="line"/>
      <point x="160" y="415" type="line" smooth="yes"/>
      <point x="166" y="444"/>
      <point x="137" y="452"/>
      <point x="80" y="459" type="curve" smooth="yes"/>
      <point x="64" y="461" type="line"/>
      <point x="73" y="508" type="line"/>
      <point x="263" y="508" type="line"/>
      <point x="236" y="377" type="line"/>
      <point x="242" y="365" type="line"/>
      <point x="170" y="0" type="line"/>
    </contour>
    <contour>
      <point x="557" y="163" type="line" smooth="yes"/>
      <point x="548" y="120"/>
      <point x="542" y="96"/>
      <point x="542" y="81" type="curve" smooth="yes"/>
      <point x="542" y="63"/>
      <point x="553" y="54"/>
      <point x="579" y="54" type="curve" smooth="yes"/>
      <point x="614" y="54"/>
      <point x="652" y="71"/>
      <point x="664" y="75" type="curve"/>
      <point x="653" y="22" type="line"/>
      <point x="631" y="7"/>
      <point x="593" y="-7"/>
      <point x="549" y="-7" type="curve" smooth="yes"/>
      <point x="487" y="-7"/>
      <point x="445" y="19"/>
      <point x="445" y="72" type="curve" smooth="yes"/>
      <point x="445" y="99"/>
      <point x="449" y="122"/>
      <point x="463" y="181" type="curve" smooth="yes"/>
      <point x="494" y="321" type="line" smooth="yes"/>
      <point x="502" y="354"/>
      <point x="506" y="375"/>
      <point x="506" y="391" type="curve" smooth="yes"/>
      <point x="506" y="430"/>
      <point x="487" y="453"/>
      <point x="436" y="453" type="curve" smooth="yes"/>
      <point x="361" y="453"/>
      <point x="288" y="400"/>
      <point x="206" y="290" type="curve"/>
      <point x="181" y="316" type="line"/>
      <point x="266" y="438"/>
      <point x="349" y="518"/>
      <point x="465" y="518" type="curve" smooth="yes"/>
      <point x="549" y="518"/>
      <point x="603" y="475"/>
      <point x="603" y="401" type="curve" smooth="yes"/>
      <point x="603" y="383"/>
      <point x="599" y="357"/>
      <point x="592" y="324" type="curve" smooth="yes"/>
    </contour>
  </outline>
</glyph>
<glyph name="q" format="2">
  <advance width="675"/>
  <unicode hex="0071"/>
  <outline>
    <contour>
      <point x="278" y="-223" type="line"/>
      <point x="588" y="-223" type="line"/>
      <point x="596" y="-177" type="line"/>
      <point x="593" y="-177" type="line"/>
      <point x="538" y="-177"/>
      <point x="499" y="-170"/>
      <point x="505" y="-141" type="curve" smooth="yes"/>
      <point x="620" y="511" type="line"/>
      <point x="554" y="511" type="line"/>
      <point x="522" y="439" type="line"/>
      <point x="512" y="440" type="line"/>
      <point x="404" y="-167" type="line"/>
      <point x="403" y="-174"/>
      <point x="349" y="-177"/>
      <point x="319" y="-177" type="curve" smooth="yes"/>
      <point x="286" y="-177" type="line"/>
    </contour>
    <contour>
      <point x="49.0" y="60"/>
      <point x="125.29172341935048" y="-12.0"/>
      <point x="249" y="-12" type="curve" smooth="yes"/>
      <point x="364" y="-12"/>
      <point x="437" y="63"/>
      <point x="520" y="192" type="curve"/>
      <point x="492" y="221" type="line"/>
      <point x="412" y="106"/>
      <point x="343" y="47"/>
      <point x="262" y="47" type="curve" smooth="yes"/>
      <point x="185.5610285417228" y="47.0"/>
      <point x="150.0" y="97"/>
      <point x="150" y="193" type="curve" smooth="yes"/>
      <point x="150" y="334"/>
      <point x="241" y="459"/>
      <point x="374" y="459" type="curve" smooth="yes"/>
      <point x="463" y="459"/>
      <point x="522" y="406"/>
      <point x="535" y="322" type="curve"/>
      <point x="582" y="376" type="line"/>
      <point x="555" y="457"/>
      <point x="490" y="518"/>
      <point x="375" y="518" type="curve" smooth="yes"/>
      <point x="183" y="518"/>
      <point x="49" y="371"/>
      <point x="49" y="200" type="curve" smooth="yes"/>
    </contour>
  </outline>
</glyph>
<glyph name="r" format="2">
  <advance width="474"/>
  <unicode hex="0072"/>
  <anchor x="257" y="508" name="top"/>
  <anchor x="204" y="0" name="bottom"/>
  <outline>
    <contour>
      <point x="74" y="0" type="line"/>
      <point x="170" y="0" type="line"/>
      <point x="242" y="363" type="line"/>
      <point x="233" y="364" type="line"/>
      <point x="262" y="508" type="line"/>
      <point x="73" y="508" type="line"/>
      <point x="64" y="461" type="line"/>
      <point x="79" y="459" type="line" smooth="yes"/>
      <point x="136" y="452"/>
      <point x="165" y="444"/>
      <point x="159" y="415" type="curve" smooth="yes"/>
    </contour>
    <contour>
      <point x="459" y="512" type="line"/>
      <point x="452" y="515"/>
      <point x="435" y="518"/>
      <point x="415" y="518" type="curve" smooth="yes"/>
      <point x="317" y="518"/>
      <point x="260" y="433"/>
      <point x="185" y="293" type="curve"/>
      <point x="210" y="270" type="line"/>
      <point x="281" y="395"/>
      <point x="321" y="430"/>
      <point x="389" y="430" type="curve" smooth="yes"/>
      <point x="413" y="430"/>
      <point x="429" y="425"/>
      <point x="443" y="421" type="curve"/>
    </contour>
  </outline>
</glyph>
<glyph name="t" format="2">
  <advance width="423"/>
  <unicode hex="0074"/>
  <anchor x="184" y="675" name="top"/>
  <anchor x="318" y="681" name="right"/>
  <anchor x="271" y="0" name="bottom"/>
  <outline>
    <contour>
      <point x="237" y="-11" type="curve" smooth="yes"/>
      <point x="284" y="-11"/>
      <point x="321" y="1"/>
      <point x="344" y="12" type="curve"/>
      <point x="355" y="70" type="line"/>
      <point x="341" y="65"/>
      <point x="296" y="50"/>
      <point x="258" y="50" type="curve" smooth="yes"/>
      <point x="211" y="50"/>
      <point x="189" y="66"/>
      <point x="189" y="109" type="curve" smooth="yes"/>
      <point x="189" y="131"/>
      <point x="194" y="171"/>
      <point x="201" y="207" type="curve" smooth="yes"/>
      <point x="289" y="648" type="line"/>
      <point x="202" y="648" type="line"/>
      <point x="184" y="557" type="line" smooth="yes"/>
      <point x="176" y="517"/>
      <point x="131" y="503"/>
      <point x="63" y="503" type="curve" smooth="yes"/>
      <point x="58" y="503" type="line"/>
      <point x="48" y="453" type="line"/>
      <point x="407" y="453" type="line"/>
      <point x="418" y="508" type="line"/>
      <point x="190" y="508" type="line"/>
      <point x="161" y="492" type="line"/>
      <point x="107" y="210" type="line" smooth="yes"/>
      <point x="101" y="176"/>
      <point x="95" y="134"/>
      <point x="95" y="108" type="curve" smooth="yes"/>
      <point x="95" y="25"/>
      <point x="147" y="-11"/>
    </contour>
  </outline>
</glyph>
<glyph name="v" format="2">
  <advance width="579"/>
  <unicode hex="0076"/>
  <outline>
    <contour>
      <point x="197" y="508" type="line"/>
      <point x="275" y="33" type="line"/>
      <point x="255" y="41" type="line"/>
      <point x="333" y="197"/>
      <point x="413" y="352"/>
      <point x="491" y="508" type="curve"/>
      <point x="582" y="508" type="line"/>
      <point x="582" y="498" type="line"/>
      <point x="486" y="332"/>
      <point x="390" y="166"/>
      <point x="294" y="0" type="curve"/>
      <point x="195" y="0" type="line"/>
      <point x="122" y="415" type="line" smooth="yes"/>
      <point x="118" y="444"/>
      <point x="92" y="450"/>
      <point x="38" y="459" type="curve" smooth="yes"/>
      <point x="26" y="461" type="line"/>
      <point x="34" y="508" type="line"/>
    </contour>
  </outline>
</glyph>
<glyph name="w" format="2">
  <advance width="880"/>
  <unicode hex="0077"/>
  <anchor x="447" y="508" name="top"/>
  <outline>
    <contour>
      <point x="451" y="508" type="line"/>
      <point x="376" y="353"/>
      <point x="299" y="197"/>
      <point x="223" y="41" type="curve"/>
      <point x="245" y="33" type="line"/>
      <point x="198" y="508" type="line"/>
      <point x="34" y="508" type="line"/>
      <point x="26" y="461" type="line"/>
      <point x="38" y="459" type="line" smooth="yes"/>
      <point x="92" y="450"/>
      <point x="119" y="444"/>
      <point x="122" y="415" type="curve" smooth="yes"/>
      <point x="169" y="0" type="line"/>
      <point x="266" y="0" type="line"/>
      <point x="340" y="142"/>
      <point x="414" y="283"/>
      <point x="488" y="425" type="curve"/>
      <point x="461" y="411" type="line"/>
      <point x="531" y="0" type="line"/>
      <point x="628" y="0" type="line"/>
      <point x="712" y="166"/>
      <point x="796" y="332"/>
      <point x="880" y="498" type="curve"/>
      <point x="880" y="508" type="line"/>
      <point x="790" y="508" type="line"/>
      <point x="723" y="352"/>
      <point x="655" y="197"/>
      <point x="589" y="41" type="curve"/>
      <point x="606" y="33" type="line"/>
      <point x="529" y="508" type="line"/>
    </contour>
  </outline>
</glyph>
<glyph name="x" format="2">
  <advance width="575"/>
  <unicode hex="0078"/>
  <outline>
    <contour>
      <point x="322" y="249" type="line"/>
      <point x="561" y="498" type="line"/>
      <point x="561" y="508" type="line"/>
      <point x="467" y="508" type="line"/>
      <point x="304" y="296" type="line"/>
    </contour>
    <contour>
      <point x="4" y="0" type="line"/>
      <point x="97" y="0" type="line"/>
      <point x="278" y="227" type="line"/>
      <point x="256" y="277" type="line"/>
      <point x="4" y="10" type="line"/>
    </contour>
    <contour>
      <point x="451" y="-10" type="curve"/>
      <point x="496" y="-10"/>
      <point x="525" y="4"/>
      <point x="544" y="19" type="curve"/>
      <point x="550" y="72" type="line"/>
      <point x="541" y="68"/>
      <point x="508" y="51"/>
      <point x="480" y="51" type="curve" smooth="yes"/>
      <point x="435" y="51"/>
      <point x="422" y="73"/>
      <point x="385" y="158" type="curve" smooth="yes"/>
      <point x="228" y="508" type="line"/>
      <point x="68" y="508" type="line"/>
      <point x="60" y="461" type="line"/>
      <point x="77" y="459" type="line" smooth="yes"/>
      <point x="142" y="451"/>
      <point x="160" y="446"/>
      <point x="176" y="410" type="curve" smooth="yes"/>
      <point x="294" y="149" type="line" smooth="yes"/>
      <point x="346" y="25"/>
      <point x="377" y="-10"/>
    </contour>
  </outline>
</glyph>
<glyph name="y" format="2">
  <advance width="579"/>
  <unicode hex="0079"/>
  <anchor x="288" y="508" name="top"/>
  <anchor x="296" y="-211" name="bottom"/>
  <outline>
    <contour>
      <point x="220" y="-36" type="line"/>
      <point x="120" y="415" type="line" smooth="yes"/>
      <point x="113" y="444"/>
      <point x="89" y="450"/>
      <point x="35" y="459" type="curve" smooth="yes"/>
      <point x="22" y="461" type="line"/>
      <point x="31" y="508" type="line"/>
      <point x="194" y="508" type="line"/>
      <point x="286" y="67" type="line"/>
      <point x="266" y="-1" type="line"/>
    </contour>
    <contour>
      <point x="264" y="60" type="line"/>
      <point x="343" y="209"/>
      <point x="423" y="359"/>
      <point x="503" y="508" type="curve"/>
      <point x="593" y="508" type="line"/>
      <point x="593" y="498" type="line"/>
      <point x="495" y="337"/>
      <point x="398" y="176"/>
      <point x="300" y="15" type="curve" smooth="yes"/>
      <point x="197" y="-157"/>
      <point x="114" y="-232"/>
      <point x="14" y="-232" type="curve" smooth="yes"/>
      <point x="-37" y="-232"/>
      <point x="-73" y="-218"/>
      <point x="-83" y="-214" type="curve"/>
      <point x="-67" y="-133" type="line"/>
      <point x="-60" y="-137"/>
      <point x="-29" y="-149"/>
      <point x="19" y="-149" type="curve" smooth="yes"/>
      <point x="91" y="-149"/>
      <point x="160" y="-103"/>
      <point x="258" y="62" type="curve"/>
    </contour>
  </outline>
</glyph>
<glyph name="z" format="2">
  <advance width="568"/>
  <unicode hex="007A"/>
  <anchor x="289" y="508" name="top"/>
  <anchor x="309" y="0" name="bottom"/>
  <outline>
    <contour>
      <point x="351" y="-12" type="curve" smooth="yes"/>
      <point x="472" y="-12"/>
      <point x="539" y="56"/>
      <point x="531" y="185" type="curve"/>
      <point x="483" y="195" type="line"/>
      <point x="466" y="106"/>
      <point x="427" y="68"/>
      <point x="351" y="68" type="curve" smooth="yes"/>
      <point x="276" y="68"/>
      <point x="209" y="107"/>
      <point x="152" y="155" type="curve"/>
      <point x="125" y="116" type="line"/>
      <point x="179" y="46"/>
      <point x="258" y="-12"/>
    </contour>
    <contour>
      <point x="65" y="0" type="line"/>
      <point x="539" y="452" type="line"/>
      <point x="550" y="508" type="line"/>
      <point x="125" y="508" type="line"/>
      <point x="92" y="343" type="line"/>
      <point x="150" y="343" type="line"/>
      <point x="174" y="408" type="line" smooth="yes"/>
      <point x="186" y="444"/>
      <point x="226" y="451"/>
      <point x="326" y="451" type="curve" smooth="yes"/>
      <point x="467" y="451" type="line"/>
      <point x="453" y="464" type="line"/>
      <point x="21" y="59" type="line"/>
      <point x="14" y="0" type="line"/>
    </contour>
  </outline>
</glyph>
<glyph name="braceleft" format="2">
  <advance width="382"/>
  <unicode hex="007B"/>
  <outline>
    <contour>
      <point x="288" y="237" type="curve" smooth="yes"/>
      <point x="288" y="271"/>
      <point x="263" y="291"/>
      <point x="141" y="312" type="curve"/>
      <point x="142" y="317" type="line"/>
      <point x="280" y="322"/>
      <point x="309" y="347"/>
      <point x="309" y="385" type="curve" smooth="yes"/>
      <point x="309" y="431"/>
      <point x="250" y="513"/>
      <point x="250" y="586" type="curve" smooth="yes"/>
      <point x="250" y="652"/>
      <point x="310" y="693"/>
      <point x="448" y="698" type="curve" smooth="yes"/>
      <point x="449" y="698"/>
      <point x="451" y="698"/>
      <point x="453" y="698" type="curve"/>
      <point x="445" y="747" type="line"/>
      <point x="443" y="747"/>
      <point x="441" y="747"/>
      <point x="439" y="747" type="curve" smooth="yes"/>
      <point x="247" y="748"/>
      <point x="154" y="690"/>
      <point x="154" y="596" type="curve" smooth="yes"/>
      <point x="154" y="515"/>
      <point x="219" y="419"/>
      <point x="242" y="359" type="curve"/>
      <point x="260" y="377" type="line"/>
      <point x="76" y="340" type="line"/>
      <point x="68" y="299" type="line"/>
      <point x="241" y="235" type="line"/>
      <point x="230" y="256" type="line"/>
      <point x="165" y="179"/>
      <point x="34" y="93"/>
      <point x="34" y="0" type="curve" smooth="yes"/>
      <point x="34" y="-104"/>
      <point x="145" y="-141"/>
      <point x="288" y="-146" type="curve"/>
      <point x="288" y="-146" type="line"/>
      <point x="302" y="-99" type="line"/>
      <point x="302" y="-99" type="line"/>
      <point x="191" y="-88"/>
      <point x="134" y="-63"/>
      <point x="134" y="3" type="curve" smooth="yes"/>
      <point x="134" y="98"/>
      <point x="288" y="178"/>
    </contour>
  </outline>
</glyph>
<glyph name="bar" format="2">
  <advance width="322"/>
  <unicode hex="007C"/>
  <outline>
    <contour>
      <point x="122" y="751" type="line"/>
      <point x="122" y="-129" type="line"/>
      <point x="201" y="-129" type="line"/>
      <point x="201" y="751" type="line"/>
    </contour>
  </outline>
</glyph>
<glyph name="asciitilde" format="2">
  <advance width="618"/>
  <unicode hex="007E"/>
  <outline>
    <contour>
      <point x="242" y="407" type="curve" smooth="yes"/>
      <point x="164" y="407"/>
      <point x="122" y="366"/>
      <point x="97" y="282" type="curve"/>
      <point x="157" y="262" type="line"/>
      <point x="170" y="301"/>
      <point x="185" y="325"/>
      <point x="227" y="325" type="curve" smooth="yes"/>
      <point x="283" y="325"/>
      <point x="308" y="269"/>
      <point x="400" y="269" type="curve" smooth="yes"/>
      <point x="470" y="269"/>
      <point x="519" y="307"/>
      <point x="544" y="394" type="curve"/>
      <point x="487" y="415" type="line"/>
      <point x="471" y="375"/>
      <point x="456" y="351"/>
      <point x="415" y="351" type="curve" smooth="yes"/>
      <point x="360" y="351"/>
      <point x="324" y="407"/>
    </contour>
  </outline>
</glyph>
<glyph name="sterling" format="2">
  <advance width="644"/>
  <unicode hex="00A3"/>
  <outline>
    <contour>
      <point x="409" y="657" type="curve" smooth="yes"/>
      <point x="492" y="657"/>
      <point x="544" y="625"/>
      <point x="567" y="584" type="curve"/>
      <point x="571" y="606"/>
      <point x="555" y="643"/>
      <point x="527" y="647" type="curve"/>
      <point x="507" y="543" type="line"/>
      <point x="602" y="543" type="line"/>
      <point x="623" y="654" type="line"/>
      <point x="598" y="674"/>
      <point x="527" y="718"/>
      <point x="409" y="718" type="curve" smooth="yes"/>
      <point x="224" y="718"/>
      <point x="144" y="611"/>
      <point x="144" y="495" type="curve" smooth="yes"/>
      <point x="144" y="411"/>
      <point x="182" y="343"/>
      <point x="182" y="262" type="curve" smooth="yes"/>
      <point x="182" y="167"/>
      <point x="138" y="83"/>
      <point x="-26" y="58" type="curve"/>
      <point x="-43" y="-13" type="line"/>
      <point x="194" y="13"/>
      <point x="274" y="149"/>
      <point x="274" y="281" type="curve" smooth="yes"/>
      <point x="274" y="354"/>
      <point x="246" y="409"/>
      <point x="246" y="484" type="curve" smooth="yes"/>
      <point x="246" y="570"/>
      <point x="280" y="657"/>
    </contour>
    <contour>
      <point x="49" y="366" type="line"/>
      <point x="39" y="310" type="line"/>
      <point x="474" y="310" type="line"/>
      <point x="484" y="366" type="line"/>
    </contour>
    <contour>
      <point x="395" y="-10" type="curve" smooth="yes"/>
      <point x="500" y="-10"/>
      <point x="561" y="65"/>
      <point x="597" y="161" type="curve"/>
      <point x="541" y="188" type="line"/>
      <point x="505" y="113"/>
      <point x="466" y="82"/>
      <point x="403" y="82" type="curve" smooth="yes"/>
      <point x="349" y="82"/>
      <point x="288" y="108"/>
      <point x="214" y="176" type="curve"/>
      <point x="168" y="128" type="line"/>
      <point x="263" y="30"/>
      <point x="309" y="-10"/>
    </contour>
  </outline>
</glyph>
<glyph name="currency" format="2">
  <advance width="644"/>
  <unicode hex="00A4"/>
  <outline>
    <contour>
      <point x="44" y="110" type="line"/>
      <point x="192" y="221" type="line"/>
      <point x="135" y="268" type="line"/>
      <point x="-4" y="165" type="line"/>
    </contour>
    <contour>
      <point x="84" y="585" type="line"/>
      <point x="181" y="482" type="line"/>
      <point x="250" y="525" type="line"/>
      <point x="147" y="636" type="line"/>
    </contour>
    <contour>
      <point x="326" y="242" type="curve" smooth="yes"/>
      <point x="236" y="242"/>
      <point x="179" y="296"/>
      <point x="179" y="367" type="curve"/>
      <point x="179" y="456"/>
      <point x="244" y="505"/>
      <point x="342" y="505" type="curve" smooth="yes"/>
      <point x="431" y="505"/>
      <point x="488" y="451"/>
      <point x="488" y="380" type="curve" smooth="yes"/>
      <point x="488" y="291"/>
      <point x="423" y="242"/>
    </contour>
    <contour>
      <point x="326" y="169" type="curve"/>
      <point x="467" y="169"/>
      <point x="574" y="266"/>
      <point x="574" y="380" type="curve" smooth="yes"/>
      <point x="574" y="491"/>
      <point x="485" y="578"/>
      <point x="342" y="578" type="curve"/>
      <point x="200" y="578"/>
      <point x="93" y="481"/>
      <point x="93" y="367" type="curve"/>
      <point x="93" y="256"/>
      <point x="182" y="169"/>
    </contour>
    <contour>
      <point x="523" y="113" type="line"/>
      <point x="585" y="164" type="line"/>
      <point x="489" y="267" type="line"/>
      <point x="419" y="223" type="line"/>
    </contour>
    <contour>
      <point x="673" y="580" type="line"/>
      <point x="625" y="635" type="line"/>
      <point x="477" y="525" type="line"/>
      <point x="534" y="477" type="line"/>
    </contour>
  </outline>
</glyph>
<glyph name="yen" format="2">
  <advance width="644"/>
  <unicode hex="00A5"/>
  <outline>
    <contour>
      <point x="51" y="225" type="line"/>
      <point x="41" y="171" type="line"/>
      <point x="535" y="171" type="line"/>
      <point x="545" y="225" type="line"/>
    </contour>
    <contour>
      <point x="78" y="355" type="line"/>
      <point x="68" y="301" type="line"/>
      <point x="561" y="301" type="line"/>
      <point x="571" y="355" type="line"/>
    </contour>
    <contour>
      <point x="277" y="363" type="line"/>
      <point x="221" y="84" type="line" smooth="yes"/>
      <point x="215" y="55"/>
      <point x="172" y="48"/>
      <point x="115" y="48" type="curve" smooth="yes"/>
      <point x="96" y="48" type="line"/>
      <point x="87" y="0" type="line"/>
      <point x="419" y="0" type="line"/>
      <point x="429" y="48" type="line"/>
      <point x="409" y="48" type="line" smooth="yes"/>
      <point x="352" y="48"/>
      <point x="312" y="55"/>
      <point x="318" y="84" type="curve" smooth="yes"/>
      <point x="375" y="363" type="line"/>
    </contour>
    <contour>
      <point x="343" y="318" type="line"/>
      <point x="598" y="621" type="line" smooth="yes"/>
      <point x="629" y="658"/>
      <point x="660" y="662"/>
      <point x="695" y="662" type="curve" smooth="yes"/>
      <point x="701" y="662" type="line"/>
      <point x="711" y="710" type="line"/>
      <point x="456" y="710" type="line"/>
      <point x="446" y="662" type="line"/>
      <point x="464" y="662" type="line" smooth="yes"/>
      <point x="503" y="662"/>
      <point x="548" y="655"/>
      <point x="546" y="644" type="curve"/>
      <point x="316" y="363" type="line"/>
      <point x="366" y="363" type="line"/>
      <point x="240" y="652" type="line"/>
      <point x="241" y="659"/>
      <point x="290" y="662"/>
      <point x="327" y="662" type="curve" smooth="yes"/>
      <point x="347" y="662" type="line"/>
      <point x="357" y="710" type="line"/>
      <point x="80" y="710" type="line"/>
      <point x="70" y="662" type="line"/>
      <point x="76" y="662" type="line" smooth="yes"/>
      <point x="111" y="662"/>
      <point x="139" y="661"/>
      <point x="151" y="636" type="curve" smooth="yes"/>
      <point x="292" y="318" type="line"/>
    </contour>
  </outline>
</glyph>
<glyph name="brokenbar" format="2">
  <advance width="322"/>
  <unicode hex="00A6"/>
  <outline>
    <contour>
      <point x="122" y="751" type="line"/>
      <point x="122" y="379" type="line"/>
      <point x="201" y="379" type="line"/>
      <point x="201" y="751" type="line"/>
    </contour>
    <contour>
      <point x="122" y="242" type="line"/>
      <point x="122" y="-129" type="line"/>
      <point x="201" y="-129" type="line"/>
      <point x="201" y="242" type="line"/>
    </contour>
  </outline>
</glyph>
<glyph name="dieresis" format="2">
  <advance width="575"/>
  <unicode hex="00A8"/>
  <anchor x="296" y="526" name="_top"/>
  <outline>
    <contour>
      <point x="228" y="613" type="curve" smooth="yes"/>
      <point x="267" y="613"/>
      <point x="296" y="637"/>
      <point x="296" y="676" type="curve" smooth="yes"/>
      <point x="296" y="713"/>
      <point x="267" y="736"/>
      <point x="228" y="736" type="curve" smooth="yes"/>
      <point x="190" y="736"/>
      <point x="161" y="713"/>
      <point x="161" y="675" type="curve" smooth="yes"/>
      <point x="161" y="637"/>
      <point x="190" y="613"/>
    </contour>
    <contour>
      <point x="474" y="613" type="curve" smooth="yes"/>
      <point x="513" y="613"/>
      <point x="542" y="637"/>
      <point x="542" y="676" type="curve" smooth="yes"/>
      <point x="542" y="713"/>
      <point x="513" y="736"/>
      <point x="474" y="736" type="curve" smooth="yes"/>
      <point x="436" y="736"/>
      <point x="407" y="713"/>
      <point x="407" y="675" type="curve" smooth="yes"/>
      <point x="407" y="637"/>
      <point x="436" y="613"/>
    </contour>
  </outline>
</glyph>
<glyph name="copyright" format="2">
  <advance width="967"/>
  <unicode hex="00A9"/>
  <outline>
    <contour>
      <point x="482" y="517" type="curve" smooth="yes"/>
      <point x="559" y="517"/>
      <point x="605" y="474"/>
      <point x="626" y="414" type="curve"/>
      <point x="682" y="414" type="line"/>
      <point x="682" y="552" type="line"/>
      <point x="635" y="552" type="line"/>
      <point x="624" y="451" type="line"/>
      <point x="656" y="435" type="line"/>
      <point x="640" y="519"/>
      <point x="564" y="563"/>
      <point x="480" y="563" type="curve" smooth="yes"/>
      <point x="351" y="563"/>
      <point x="246" y="476"/>
      <point x="246" y="354" type="curve" smooth="yes"/>
      <point x="246" y="231"/>
      <point x="348" y="147"/>
      <point x="485" y="147" type="curve" smooth="yes"/>
      <point x="595" y="147"/>
      <point x="674" y="215"/>
      <point x="697" y="295" type="curve"/>
      <point x="651" y="311" type="line"/>
      <point x="629" y="248"/>
      <point x="579" y="193"/>
      <point x="489" y="193" type="curve" smooth="yes"/>
      <point x="394" y="193"/>
      <point x="331" y="257"/>
      <point x="331" y="354" type="curve" smooth="yes"/>
      <point x="331" y="458"/>
      <point x="398" y="517"/>
    </contour>
    <contour>
      <point x="110" y="355" type="curve" smooth="yes"/>
      <point x="110" y="541"/>
      <point x="268" y="687"/>
      <point x="484" y="687" type="curve" smooth="yes"/>
      <point x="700" y="687"/>
      <point x="858" y="541"/>
      <point x="858" y="355" type="curve" smooth="yes"/>
      <point x="858" y="169"/>
      <point x="700" y="23"/>
      <point x="484" y="23" type="curve" smooth="yes"/>
      <point x="268" y="23"/>
      <point x="110" y="169"/>
    </contour>
    <contour>
      <point x="47" y="355" type="curve" smooth="yes"/>
      <point x="47" y="138"/>
      <point x="236" y="-28"/>
      <point x="484" y="-28" type="curve" smooth="yes"/>
      <point x="732" y="-28"/>
      <point x="922" y="138"/>
      <point x="922" y="355" type="curve" smooth="yes"/>
      <point x="922" y="572"/>
      <point x="732" y="738"/>
      <point x="484" y="738" type="curve" smooth="yes"/>
      <point x="236" y="738"/>
      <point x="47" y="572"/>
    </contour>
  </outline>
</glyph>
<glyph name="acute" format="2">
  <advance width="575"/>
  <unicode hex="00B4"/>
  <anchor x="259" y="527" name="_top"/>
  <outline>
    <contour>
      <point x="293" y="696" type="curve" smooth="yes"/>
      <point x="224" y="586" type="line"/>
      <point x="221" y="566" type="line"/>
      <point x="253" y="566" type="line"/>
      <point x="371" y="653" type="line" smooth="yes"/>
      <point x="399" y="675"/>
      <point x="416" y="694"/>
      <point x="416" y="719" type="curve" smooth="yes"/>
      <point x="416" y="741"/>
      <point x="396" y="759"/>
      <point x="369" y="759" type="curve" smooth="yes"/>
      <point x="337" y="759"/>
      <point x="319" y="741"/>
    </contour>
  </outline>
</glyph>
<glyph name="paragraph" format="2">
  <advance width="706"/>
  <unicode hex="00B6"/>
  <outline>
    <contour>
      <point x="743" y="710" type="line"/>
      <point x="733" y="662" type="line"/>
      <point x="720" y="662" type="line" smooth="yes"/>
      <point x="664" y="662"/>
      <point x="621" y="655"/>
      <point x="616" y="626" type="curve" smooth="yes"/>
      <point x="487" y="0" type="line"/>
      <point x="417" y="0" type="line"/>
      <point x="562" y="710" type="line"/>
    </contour>
    <contour>
      <point x="597" y="710" type="line"/>
      <point x="588" y="662" type="line"/>
      <point x="395" y="662" type="line"/>
      <point x="405" y="710" type="line"/>
    </contour>
    <contour>
      <point x="294" y="0" type="line"/>
      <point x="223" y="0" type="line"/>
      <point x="293" y="343" type="line"/>
      <point x="288" y="343" type="line" smooth="yes"/>
      <point x="170" y="343"/>
      <point x="93" y="409"/>
      <point x="93" y="507" type="curve" smooth="yes"/>
      <point x="93" y="637"/>
      <point x="196" y="710"/>
      <point x="379" y="710" type="curve" smooth="yes"/>
      <point x="439" y="710" type="line"/>
    </contour>
  </outline>
</glyph>
<glyph name="cedilla" format="2">
  <advance width="690"/>
  <unicode hex="00B8"/>
  <anchor x="334" y="34" name="_bottom"/>
  <outline>
    <contour>
      <point x="279" y="-236" type="curve" smooth="yes"/>
      <point x="358" y="-236"/>
      <point x="416" y="-201"/>
      <point x="416" y="-139" type="curve" smooth="yes"/>
      <point x="416" y="-89"/>
      <point x="366" y="-56"/>
      <point x="283" y="-55" type="curve"/>
      <point x="289" y="-67" type="line"/>
      <point x="350" y="4" type="line"/>
      <point x="282" y="5" type="line"/>
      <point x="229" y="-95" type="line"/>
      <point x="253" y="-95" type="line" smooth="yes"/>
      <point x="310" y="-95"/>
      <point x="334" y="-116"/>
      <point x="334" y="-142" type="curve" smooth="yes"/>
      <point x="334" y="-170"/>
      <point x="315" y="-189"/>
      <point x="279" y="-189" type="curve" smooth="yes"/>
      <point x="234" y="-189"/>
      <point x="208" y="-163"/>
      <point x="193" y="-136" type="curve"/>
      <point x="147" y="-167" type="line"/>
      <point x="169" y="-208"/>
      <point x="211" y="-236"/>
    </contour>
  </outline>
</glyph>
<glyph name="ordmasculine" format="2">
  <advance width="586"/>
  <unicode hex="00BA"/>
  <outline>
    <contour>
      <point x="300" y="310" type="curve" smooth="yes"/>
      <point x="439" y="310"/>
      <point x="549" y="400"/>
      <point x="549" y="539" type="curve" smooth="yes"/>
      <point x="549" y="649"/>
      <point x="459" y="720"/>
      <point x="340" y="720" type="curve" smooth="yes"/>
      <point x="203" y="720"/>
      <point x="92" y="628"/>
      <point x="92" y="489" type="curve" smooth="yes"/>
      <point x="92" y="379"/>
      <point x="184" y="310"/>
    </contour>
    <contour>
      <point x="340" y="665" type="curve"/>
      <point x="411" y="665"/>
      <point x="454" y="623"/>
      <point x="454" y="552" type="curve" smooth="yes"/>
      <point x="454" y="525"/>
      <point x="450" y="500"/>
      <point x="442" y="475" type="curve" smooth="yes"/>
      <point x="421" y="412"/>
      <point x="374" y="365"/>
      <point x="301" y="365" type="curve" smooth="yes"/>
      <point x="230" y="365"/>
      <point x="187" y="407"/>
      <point x="187" y="478" type="curve" smooth="yes"/>
      <point x="187" y="505"/>
      <point x="191" y="530"/>
      <point x="199" y="555" type="curve" smooth="yes"/>
      <point x="221" y="618"/>
      <point x="267" y="665"/>
    </contour>
  </outline>
</glyph>
<glyph name="Eth" format="2">
  <advance width="876"/>
  <unicode hex="00D0"/>
  <outline>
    <contour>
      <point x="47" y="328" type="line"/>
      <point x="495" y="328" type="line"/>
      <point x="506" y="382" type="line"/>
      <point x="58" y="382" type="line"/>
    </contour>
    <component base="D"/>
  </outline>
</glyph>
<glyph name="multiply" format="2">
  <advance width="644"/>
  <unicode hex="00D7"/>
  <outline>
    <contour>
      <point x="118" y="144" type="line"/>
      <point x="571" y="484" type="line"/>
      <point x="529" y="535" type="line"/>
      <point x="75" y="195" type="line"/>
    </contour>
    <contour>
      <point x="460" y="144" type="line"/>
      <point x="518" y="188" type="line"/>
      <point x="192" y="535" type="line"/>
      <point x="133" y="491" type="line"/>
    </contour>
  </outline>
</glyph>
<glyph name="ae" format="2">
  <advance width="934"/>
  <unicode hex="00E6"/>
  <anchor x="473" y="508" name="top"/>
  <outline>
    <contour>
      <point x="656" y="-12" type="curve" smooth="yes"/>
      <point x="750" y="-12"/>
      <point x="820" y="27"/>
      <point x="868" y="71" type="curve"/>
      <point x="841" y="125" type="line"/>
      <point x="795" y="83"/>
      <point x="744" y="46"/>
      <point x="664" y="46" type="curve" smooth="yes"/>
      <point x="572" y="46"/>
      <point x="507" y="96"/>
      <point x="507" y="207" type="curve" smooth="yes"/>
      <point x="507" y="353"/>
      <point x="595" y="460"/>
      <point x="713" y="460" type="curve" smooth="yes"/>
      <point x="772" y="460"/>
      <point x="802" y="435"/>
      <point x="802" y="391" type="curve" smooth="yes"/>
      <point x="802" y="313"/>
      <point x="744" y="267"/>
      <point x="485" y="272" type="curve"/>
      <point x="476" y="220" type="line"/>
      <point x="775" y="212"/>
      <point x="896" y="278"/>
      <point x="896" y="390" type="curve" smooth="yes"/>
      <point x="896" y="468"/>
      <point x="826" y="518"/>
      <point x="720" y="518" type="curve" smooth="yes"/>
      <point x="595" y="518"/>
      <point x="505" y="437"/>
      <point x="468" y="333" type="curve"/>
      <point x="441" y="326"/>
      <point x="409" y="267"/>
      <point x="409" y="216" type="curve" smooth="yes"/>
      <point x="409" y="73"/>
      <point x="516" y="-12"/>
    </contour>
    <contour>
      <point x="416" y="271" type="line"/>
      <point x="507" y="331" type="line"/>
      <point x="513" y="381" type="line"/>
      <point x="513" y="481"/>
      <point x="439" y="518"/>
      <point x="324" y="518" type="curve" smooth="yes"/>
      <point x="242" y="518"/>
      <point x="172" y="494"/>
      <point x="136" y="473" type="curve"/>
      <point x="114" y="363" type="line"/>
      <point x="208" y="363" type="line"/>
      <point x="232" y="482" type="line"/>
      <point x="199" y="480"/>
      <point x="168" y="436"/>
      <point x="168" y="401" type="curve"/>
      <point x="201" y="431"/>
      <point x="237" y="460"/>
      <point x="319" y="460" type="curve" smooth="yes"/>
      <point x="397" y="460"/>
      <point x="436" y="434"/>
      <point x="436" y="379" type="curve" smooth="yes"/>
      <point x="436" y="369"/>
      <point x="435" y="357"/>
      <point x="431" y="343" type="curve"/>
    </contour>
    <contour>
      <point x="224" y="-11" type="curve" smooth="yes"/>
      <point x="322" y="-11"/>
      <point x="406" y="43"/>
      <point x="463" y="137" type="curve"/>
      <point x="427" y="177" type="line"/>
      <point x="381" y="100"/>
      <point x="317" y="48"/>
      <point x="243" y="48" type="curve" smooth="yes"/>
      <point x="183" y="48"/>
      <point x="142" y="77"/>
      <point x="142" y="123" type="curve" smooth="yes"/>
      <point x="142" y="205"/>
      <point x="238" y="224"/>
      <point x="441" y="227" type="curve"/>
      <point x="453" y="278" type="line"/>
      <point x="196" y="279"/>
      <point x="41" y="248"/>
      <point x="41" y="121" type="curve" smooth="yes"/>
      <point x="41" y="38"/>
      <point x="127" y="-11"/>
    </contour>
  </outline>
</glyph>
<glyph name="divide" format="2">
  <advance width="644"/>
  <unicode hex="00F7"/>
  <outline>
    <contour>
      <point x="426" y="508" type="curve" smooth="yes"/>
      <point x="426" y="544"/>
      <point x="396" y="569"/>
      <point x="356" y="569" type="curve" smooth="yes"/>
      <point x="316" y="569"/>
      <point x="287" y="544"/>
      <point x="287" y="508" type="curve" smooth="yes"/>
      <point x="287" y="473"/>
      <point x="316" y="447"/>
      <point x="356" y="447" type="curve" smooth="yes"/>
      <point x="396" y="447"/>
      <point x="426" y="473"/>
    </contour>
    <contour>
      <point x="359" y="173" type="curve" smooth="yes"/>
      <point x="359" y="210"/>
      <point x="329" y="235"/>
      <point x="289" y="235" type="curve" smooth="yes"/>
      <point x="249" y="235"/>
      <point x="220" y="210"/>
      <point x="220" y="173" type="curve" smooth="yes"/>
      <point x="220" y="138"/>
      <point x="249" y="113"/>
      <point x="289" y="113" type="curve" smooth="yes"/>
      <point x="329" y="113"/>
      <point x="359" y="138"/>
    </contour>
    <component base="minus"/>
  </outline>
</glyph>
<glyph name="oslash" format="2">
  <advance width="673"/>
  <unicode hex="00F8"/>
  <anchor x="337" y="508" name="top"/>
  <outline>
    <contour>
      <point x="310" y="-12" type="curve" smooth="yes"/>
      <point x="485" y="-12"/>
      <point x="622" y="105"/>
      <point x="622" y="284" type="curve" smooth="yes"/>
      <point x="622" y="426"/>
      <point x="511" y="518"/>
      <point x="363" y="518" type="curve" smooth="yes"/>
      <point x="188" y="518"/>
      <point x="50" y="399"/>
      <point x="50" y="221" type="curve" smooth="yes"/>
      <point x="50" y="78"/>
      <point x="163" y="-12"/>
    </contour>
    <contour>
      <point x="-37" y="-15" type="line"/>
      <point x="54" y="-15" type="line"/>
      <point x="721" y="523" type="line"/>
      <point x="630" y="523" type="line"/>
    </contour>
    <contour>
      <point x="307" y="46" type="curve" smooth="yes"/>
      <point x="197" y="46"/>
      <point x="149" y="96"/>
      <point x="149" y="205" type="curve" smooth="yes"/>
      <point x="149" y="246"/>
      <point x="158" y="291"/>
      <point x="175" y="331" type="curve" smooth="yes"/>
      <point x="205" y="404"/>
      <point x="265" y="460"/>
      <point x="362" y="460" type="curve" smooth="yes"/>
      <point x="472" y="460"/>
      <point x="523" y="410"/>
      <point x="523" y="301" type="curve" smooth="yes"/>
      <point x="523" y="260"/>
      <point x="515" y="215"/>
      <point x="498" y="175" type="curve" smooth="yes"/>
      <point x="467" y="103"/>
      <point x="407" y="46"/>
    </contour>
  </outline>
</glyph>
<glyph name="dcroat" format="2">
  <advance width="709"/>
  <unicode hex="0111"/>
  <outline>
    <contour>
      <point x="245" y="-12" type="curve" smooth="yes"/>
      <point x="360" y="-12"/>
      <point x="435" y="63"/>
      <point x="521" y="192" type="curve"/>
      <point x="494" y="221" type="line"/>
      <point x="411" y="106"/>
      <point x="340" y="47"/>
      <point x="259" y="47" type="curve" smooth="yes"/>
      <point x="185" y="47"/>
      <point x="151" y="93"/>
      <point x="151" y="184" type="curve" smooth="yes"/>
      <point x="151" y="329"/>
      <point x="246" y="459"/>
      <point x="382" y="459" type="curve" smooth="yes"/>
      <point x="466" y="459"/>
      <point x="529" y="419"/>
      <point x="546" y="349" type="curve"/>
      <point x="601" y="403" type="line"/>
      <point x="561" y="472"/>
      <point x="488" y="518"/>
      <point x="385" y="518" type="curve" smooth="yes"/>
      <point x="190" y="518"/>
      <point x="50" y="366"/>
      <point x="50" y="191" type="curve" smooth="yes"/>
      <point x="50" y="57"/>
      <point x="124" y="-12"/>
    </contour>
    <contour>
      <point x="557" y="-7" type="curve" smooth="yes"/>
      <point x="601" y="-7"/>
      <point x="637" y="7"/>
      <point x="659" y="22" type="curve"/>
      <point x="669" y="75" type="line"/>
      <point x="657" y="71"/>
      <point x="619" y="54"/>
      <point x="584" y="54" type="curve" smooth="yes"/>
      <point x="559" y="54"/>
      <point x="547" y="62"/>
      <point x="547" y="81" type="curve" smooth="yes"/>
      <point x="547" y="96"/>
      <point x="552" y="120"/>
      <point x="559" y="163" type="curve"/>
      <point x="674" y="735" type="line"/>
      <point x="579" y="735" type="line"/>
      <point x="459" y="127" type="line"/>
      <point x="467" y="141" type="line"/>
      <point x="459" y="113"/>
      <point x="456" y="96"/>
      <point x="456" y="78" type="curve" smooth="yes"/>
      <point x="456" y="23"/>
      <point x="496" y="-7"/>
    </contour>
    <contour>
      <point x="324" y="634" type="line"/>
      <point x="313" y="581" type="line"/>
      <point x="763" y="581" type="line"/>
      <point x="774" y="634" type="line"/>
    </contour>
  </outline>
</glyph>
<glyph name="Hbar" format="2">
  <advance width="949"/>
  <unicode hex="0126"/>
  <outline>
    <contour>
      <point x="245" y="395" type="line"/>
      <point x="234" y="336" type="line"/>
      <point x="728" y="336" type="line"/>
      <point x="739" y="395" type="line"/>
    </contour>
    <contour>
      <point x="91" y="496" type="line"/>
      <point x="938" y="496" type="line"/>
      <point x="949" y="549" type="line"/>
      <point x="101" y="549" type="line"/>
    </contour>
    <contour>
      <point x="-12" y="0" type="line"/>
      <point x="308" y="0" type="line"/>
      <point x="318" y="48" type="line"/>
      <point x="308" y="48" type="line" smooth="yes"/>
      <point x="264" y="48"/>
      <point x="208" y="51"/>
      <point x="209" y="58" type="curve" smooth="yes"/>
      <point x="332" y="652" type="line" smooth="yes"/>
      <point x="333" y="659"/>
      <point x="389" y="662"/>
      <point x="433" y="662" type="curve" smooth="yes"/>
      <point x="444" y="662" type="line"/>
      <point x="453" y="710" type="line"/>
      <point x="134" y="710" type="line"/>
      <point x="124" y="662" type="line"/>
      <point x="137" y="662" type="line" smooth="yes"/>
      <point x="193" y="662"/>
      <point x="233" y="655"/>
      <point x="227" y="626" type="curve" smooth="yes"/>
      <point x="115" y="84" type="line" smooth="yes"/>
      <point x="109" y="55"/>
      <point x="67" y="48"/>
      <point x="10" y="48" type="curve" smooth="yes"/>
      <point x="-2" y="48" type="line"/>
    </contour>
    <contour>
      <point x="512" y="0" type="line"/>
      <point x="832" y="0" type="line"/>
      <point x="842" y="48" type="line"/>
      <point x="829" y="48" type="line" smooth="yes"/>
      <point x="773" y="48"/>
      <point x="733" y="55"/>
      <point x="739" y="84" type="curve" smooth="yes"/>
      <point x="851" y="626" type="line" smooth="yes"/>
      <point x="856" y="655"/>
      <point x="899" y="662"/>
      <point x="955" y="662" type="curve" smooth="yes"/>
      <point x="968" y="662" type="line"/>
      <point x="978" y="710" type="line"/>
      <point x="657" y="710" type="line"/>
      <point x="647" y="662" type="line"/>
      <point x="658" y="662" type="line" smooth="yes"/>
      <point x="701" y="662"/>
      <point x="758" y="659"/>
      <point x="756" y="652" type="curve" smooth="yes"/>
      <point x="634" y="58" type="line" smooth="yes"/>
      <point x="633" y="51"/>
      <point x="577" y="48"/>
      <point x="533" y="48" type="curve" smooth="yes"/>
      <point x="522" y="48" type="line"/>
    </contour>
  </outline>
</glyph>
<glyph name="itilde" format="2">
  <advance width="354"/>
  <unicode hex="0129"/>
  <outline>
    <contour>
      <point x="272" y="593" type="curve" smooth="yes"/>
      <point x="328" y="593"/>
      <point x="371" y="629"/>
      <point x="397" y="712" type="curve"/>
      <point x="346" y="735" type="line"/>
      <point x="328" y="690"/>
      <point x="313" y="663"/>
      <point x="286" y="663" type="curve" smooth="yes"/>
      <point x="242" y="663"/>
      <point x="221" y="732"/>
      <point x="141" y="732" type="curve" smooth="yes"/>
      <point x="83" y="732"/>
      <point x="42" y="697"/>
      <point x="20" y="612" type="curve"/>
      <point x="71" y="590" type="line"/>
      <point x="86" y="638"/>
      <point x="102" y="663"/>
      <point x="128" y="663" type="curve" smooth="yes"/>
      <point x="169" y="663"/>
      <point x="183" y="593"/>
    </contour>
    <component base="dotlessi"/>
  </outline>
</glyph>
<glyph name="Iogonek" format="2">
  <advance width="422"/>
  <unicode hex="012E"/>
  <outline>
    <contour>
      <point x="245" y="35" type="line"/>
      <point x="91" y="-31"/>
      <point x="5" y="-76"/>
      <point x="5" y="-149" type="curve" smooth="yes"/>
      <point x="5" y="-205"/>
      <point x="57" y="-236"/>
      <point x="127" y="-236" type="curve" smooth="yes"/>
      <point x="179" y="-236"/>
      <point x="216" y="-216"/>
      <point x="241" y="-192" type="curve"/>
      <point x="215" y="-155" type="line"/>
      <point x="198" y="-169"/>
      <point x="175" y="-183"/>
      <point x="149" y="-183" type="curve" smooth="yes"/>
      <point x="122" y="-183"/>
      <point x="106" y="-171"/>
      <point x="106" y="-143" type="curve" smooth="yes"/>
      <point x="106" y="-99"/>
      <point x="138" y="-51"/>
      <point x="273" y="10" type="curve"/>
    </contour>
    <component base="I"/>
  </outline>
</glyph>
<glyph name="Ldot" format="2">
  <advance width="706"/>
  <unicode hex="013F"/>
  <outline>
    <contour>
      <point x="457" y="710" type="line"/>
      <point x="133" y="710" type="line"/>
      <point x="123" y="662" type="line"/>
      <point x="135" y="662" type="line" smooth="yes"/>
      <point x="192" y="662"/>
      <point x="232" y="655"/>
      <point x="226" y="626" type="curve" smooth="yes"/>
      <point x="114" y="79" type="line" smooth="yes"/>
      <point x="108" y="53"/>
      <point x="64" y="48"/>
      <point x="10" y="48" type="curve" smooth="yes"/>
      <point x="-2" y="48" type="line"/>
      <point x="-12" y="0" type="line"/>
      <point x="592" y="0" type="line"/>
      <point x="636" y="224" type="line"/>
      <point x="572" y="224" type="line"/>
      <point x="534" y="103" type="line" smooth="yes"/>
      <point x="522" y="67"/>
      <point x="481" y="60"/>
      <point x="382" y="60" type="curve" smooth="yes"/>
      <point x="209" y="60" type="line"/>
      <point x="326" y="631" type="line" smooth="yes"/>
      <point x="332" y="657"/>
      <point x="377" y="662"/>
      <point x="434" y="662" type="curve" smooth="yes"/>
      <point x="447" y="662" type="line"/>
    </contour>
    <component base="periodcentered" xOffset="448" yOffset="46"/>
  </outline>
</glyph>
<glyph name="oe" format="2">
  <advance width="1039"/>
  <unicode hex="0153"/>
  <outline>
    <contour>
      <point x="611" y="206" type="curve" smooth="yes"/>
      <point x="611" y="353"/>
      <point x="698" y="460"/>
      <point x="813" y="460" type="curve" smooth="yes"/>
      <point x="875" y="460"/>
      <point x="907" y="431"/>
      <point x="907" y="387" type="curve" smooth="yes"/>
      <point x="907" y="299"/>
      <point x="832" y="252"/>
      <point x="589" y="249" type="curve"/>
      <point x="580" y="198" type="line"/>
      <point x="863" y="197"/>
      <point x="1000" y="265"/>
      <point x="1000" y="386" type="curve" smooth="yes"/>
      <point x="1000" y="464"/>
      <point x="931" y="518"/>
      <point x="820" y="518" type="curve" smooth="yes"/>
      <point x="636" y="518"/>
      <point x="528" y="365"/>
      <point x="528" y="215" type="curve" smooth="yes"/>
      <point x="528" y="65"/>
      <point x="629" y="-12"/>
      <point x="760" y="-12" type="curve" smooth="yes"/>
      <point x="856" y="-12"/>
      <point x="926" y="27"/>
      <point x="974" y="71" type="curve"/>
      <point x="946" y="125" type="line"/>
      <point x="900" y="83"/>
      <point x="849" y="46"/>
      <point x="769" y="46" type="curve" smooth="yes"/>
      <point x="676" y="46"/>
      <point x="611" y="96"/>
    </contour>
    <contour>
      <point x="364" y="518" type="curve" smooth="yes"/>
      <point x="189" y="518"/>
      <point x="50" y="399"/>
      <point x="50" y="221" type="curve" smooth="yes"/>
      <point x="50" y="78"/>
      <point x="159" y="-12"/>
      <point x="301" y="-12" type="curve" smooth="yes"/>
      <point x="470" y="-12"/>
      <point x="598" y="109"/>
      <point x="598" y="293" type="curve" smooth="yes"/>
      <point x="598" y="429"/>
      <point x="502" y="518"/>
    </contour>
    <contour>
      <point x="486" y="175" type="curve" smooth="yes"/>
      <point x="455" y="103"/>
      <point x="395" y="46"/>
      <point x="306" y="46" type="curve" smooth="yes"/>
      <point x="211" y="46"/>
      <point x="151" y="106"/>
      <point x="151" y="205" type="curve" smooth="yes"/>
      <point x="151" y="246"/>
      <point x="159" y="291"/>
      <point x="177" y="331" type="curve" smooth="yes"/>
      <point x="208" y="404"/>
      <point x="268" y="460"/>
      <point x="359" y="460" type="curve" smooth="yes"/>
      <point x="452" y="460"/>
      <point x="512" y="400"/>
      <point x="512" y="301" type="curve" smooth="yes"/>
      <point x="512" y="260"/>
      <point x="503" y="215"/>
    </contour>
  </outline>
</glyph>
<glyph name="Tbar" format="2">
  <advance width="764"/>
  <unicode hex="0166"/>
  <outline>
    <contour>
      <point x="174" y="379" type="line"/>
      <point x="163" y="326" type="line"/>
      <point x="611" y="326" type="line"/>
      <point x="621" y="379" type="line"/>
    </contour>
    <component base="T"/>
  </outline>
</glyph>
<glyph name="tbar" format="2">
  <advance width="422"/>
  <unicode hex="0167"/>
  <outline>
    <contour>
      <point x="393" y="325" type="line"/>
      <point x="21" y="325" type="line"/>
      <point x="11" y="272" type="line"/>
      <point x="382" y="272" type="line"/>
    </contour>
    <component base="t"/>
  </outline>
</glyph>
<glyph name="Ohorn" format="2">
  <advance width="892"/>
  <unicode hex="01A0"/>
  <anchor x="450" y="742" name="top"/>
  <outline>
    <contour>
      <point x="414" y="51" type="curve" smooth="yes"/>
      <point x="241" y="51"/>
      <point x="156" y="164"/>
      <point x="156" y="314" type="curve" smooth="yes"/>
      <point x="156" y="385"/>
      <point x="172" y="453"/>
      <point x="205" y="510" type="curve" smooth="yes"/>
      <point x="258" y="598"/>
      <point x="352" y="659"/>
      <point x="483" y="659" type="curve" smooth="yes"/>
      <point x="656" y="659"/>
      <point x="741" y="546"/>
      <point x="741" y="396" type="curve" smooth="yes"/>
      <point x="741" y="325"/>
      <point x="725" y="257"/>
      <point x="692" y="200" type="curve" smooth="yes"/>
      <point x="639" y="112"/>
      <point x="546" y="51"/>
    </contour>
    <contour>
      <point x="412" y="-10" type="curve" smooth="yes"/>
      <point x="671" y="-10"/>
      <point x="846" y="170"/>
      <point x="846" y="394" type="curve" smooth="yes"/>
      <point x="846" y="510"/>
      <point x="777" y="620"/>
      <point x="623" y="673" type="curve"/>
      <point x="663" y="650" type="line"/>
      <point x="663" y="663" type="line"/>
      <point x="623" y="668" type="line"/>
      <point x="652" y="659"/>
      <point x="688" y="651"/>
      <point x="719" y="651" type="curve" smooth="yes"/>
      <point x="821" y="651"/>
      <point x="918" y="718"/>
      <point x="956" y="877" type="curve"/>
      <point x="864" y="877" type="line"/>
      <point x="836" y="773"/>
      <point x="782" y="702"/>
      <point x="674" y="702" type="curve" smooth="yes"/>
      <point x="626" y="702"/>
      <point x="557" y="720"/>
      <point x="485" y="720" type="curve"/>
      <point x="226" y="720"/>
      <point x="51" y="540"/>
      <point x="51" y="316" type="curve" smooth="yes"/>
      <point x="51" y="134"/>
      <point x="192" y="-10"/>
    </contour>
  </outline>
</glyph>
<glyph name="ohorn" format="2">
  <advance width="673"/>
  <unicode hex="01A1"/>
  <anchor x="337" y="508" name="top"/>
  <outline>
    <contour>
      <point x="304" y="-12" type="curve" smooth="yes"/>
      <point x="477" y="-12"/>
      <point x="614" y="105"/>
      <point x="614" y="283" type="curve" smooth="yes"/>
      <point x="614" y="388"/>
      <point x="539" y="453"/>
      <point x="469" y="472" type="curve"/>
      <point x="491" y="459" type="line"/>
      <point x="491" y="467" type="line"/>
      <point x="469" y="469" type="line"/>
      <point x="484" y="465"/>
      <point x="499" y="463"/>
      <point x="514" y="463" type="curve" smooth="yes"/>
      <point x="610" y="463"/>
      <point x="689" y="529"/>
      <point x="720" y="680" type="curve"/>
      <point x="634" y="680" type="line"/>
      <point x="611" y="572"/>
      <point x="571" y="507"/>
      <point x="483" y="507" type="curve" smooth="yes"/>
      <point x="448" y="507"/>
      <point x="413" y="518"/>
      <point x="359" y="518" type="curve" smooth="yes"/>
      <point x="188" y="518"/>
      <point x="50" y="399"/>
      <point x="50" y="221" type="curve" smooth="yes"/>
      <point x="50" y="77"/>
      <point x="159" y="-12"/>
    </contour>
    <contour>
      <point x="306" y="46" type="curve" smooth="yes"/>
      <point x="211" y="46"/>
      <point x="151" y="106"/>
      <point x="151" y="205" type="curve" smooth="yes"/>
      <point x="151" y="246"/>
      <point x="159" y="291"/>
      <point x="177" y="331" type="curve" smooth="yes"/>
      <point x="208" y="404"/>
      <point x="268" y="460"/>
      <point x="359" y="460" type="curve" smooth="yes"/>
      <point x="453" y="460"/>
      <point x="513" y="400"/>
      <point x="513" y="301" type="curve" smooth="yes"/>
      <point x="513" y="260"/>
      <point x="505" y="215"/>
      <point x="487" y="175" type="curve" smooth="yes"/>
      <point x="457" y="103"/>
      <point x="396" y="46"/>
    </contour>
  </outline>
</glyph>
<glyph name="Uhorn" format="2">
  <advance width="931"/>
  <unicode hex="01AF"/>
  <anchor x="485" y="663" name="top"/>
  <outline>
    <contour>
      <point x="406" y="-10" type="curve" smooth="yes"/>
      <point x="571" y="-10"/>
      <point x="698" y="74"/>
      <point x="741" y="287" type="curve" smooth="yes"/>
      <point x="810" y="616" type="line" smooth="yes"/>
      <point x="815" y="643"/>
      <point x="834" y="651"/>
      <point x="868" y="659" type="curve" smooth="yes"/>
      <point x="970" y="684"/>
      <point x="1050" y="726"/>
      <point x="1075" y="877" type="curve"/>
      <point x="984" y="877" type="line"/>
      <point x="958" y="741"/>
      <point x="922" y="710"/>
      <point x="779" y="710" type="curve" smooth="yes"/>
      <point x="646" y="710" type="line"/>
      <point x="637" y="662" type="line"/>
      <point x="647" y="662" type="line" smooth="yes"/>
      <point x="689" y="662"/>
      <point x="746" y="655"/>
      <point x="743" y="641" type="curve" smooth="yes"/>
      <point x="671" y="293" type="line" smooth="yes"/>
      <point x="636" y="126"/>
      <point x="558" y="60"/>
      <point x="426" y="60" type="curve" smooth="yes"/>
      <point x="310" y="60"/>
      <point x="230" y="105"/>
      <point x="230" y="205" type="curve" smooth="yes"/>
      <point x="230" y="236"/>
      <point x="237" y="278"/>
      <point x="246" y="321" type="curve" smooth="yes"/>
      <point x="312" y="652" type="line" smooth="yes"/>
      <point x="313" y="659"/>
      <point x="371" y="662"/>
      <point x="414" y="662" type="curve" smooth="yes"/>
      <point x="425" y="662" type="line"/>
      <point x="434" y="710" type="line"/>
      <point x="112" y="710" type="line"/>
      <point x="103" y="662" type="line"/>
      <point x="116" y="662" type="line" smooth="yes"/>
      <point x="170" y="662"/>
      <point x="212" y="656"/>
      <point x="207" y="631" type="curve" smooth="yes"/>
      <point x="148" y="332" type="line" smooth="yes"/>
      <point x="137" y="288"/>
      <point x="131" y="246"/>
      <point x="131" y="206" type="curve" smooth="yes"/>
      <point x="131" y="61"/>
      <point x="250" y="-10"/>
    </contour>
  </outline>
</glyph>
<glyph name="icaron" format="2">
  <advance width="354"/>
  <unicode hex="01D0"/>
  <outline>
    <contour>
      <point x="190" y="570" type="line"/>
      <point x="96" y="727" type="line"/>
      <point x="99" y="737" type="line"/>
      <point x="142" y="737" type="line"/>
      <point x="252" y="623" type="line"/>
      <point x="227" y="622" type="line"/>
      <point x="389" y="737" type="line"/>
      <point x="435" y="737" type="line"/>
      <point x="432" y="727" type="line"/>
      <point x="276" y="570" type="line"/>
    </contour>
    <component base="dotlessi"/>
  </outline>
</glyph>
<glyph name="schwa" format="2">
  <advance width="576"/>
  <unicode hex="0259"/>
  <outline>
    <contour>
      <point x="287" y="518" type="curve" smooth="yes"/>
      <point x="186" y="518"/>
      <point x="113" y="479"/>
      <point x="65" y="435" type="curve"/>
      <point x="93" y="382" type="line"/>
      <point x="140" y="423"/>
      <point x="195" y="460"/>
      <point x="281" y="460" type="curve" smooth="yes"/>
      <point x="373" y="460"/>
      <point x="428" y="410"/>
      <point x="428" y="299" type="curve" smooth="yes"/>
      <point x="428" y="153"/>
      <point x="341" y="46"/>
      <point x="226" y="46" type="curve" smooth="yes"/>
      <point x="164" y="46"/>
      <point x="132" y="75"/>
      <point x="132" y="121" type="curve" smooth="yes"/>
      <point x="132" y="205"/>
      <point x="207" y="254"/>
      <point x="450" y="257" type="curve"/>
      <point x="459" y="308" type="line"/>
      <point x="176" y="309"/>
      <point x="38" y="240"/>
      <point x="38" y="122" type="curve" smooth="yes"/>
      <point x="38" y="42"/>
      <point x="109" y="-12"/>
      <point x="219" y="-12" type="curve" smooth="yes"/>
      <point x="413" y="-12"/>
      <point x="526" y="140"/>
      <point x="526" y="291" type="curve" smooth="yes"/>
      <point x="526" y="433"/>
      <point x="430" y="518"/>
    </contour>
  </outline>
</glyph>
<glyph name="breve" format="2">
  <advance width="575"/>
  <unicode hex="02D8"/>
  <anchor x="294" y="517" name="_top"/>
  <outline>
    <contour>
      <point x="323" y="578" type="curve" smooth="yes"/>
      <point x="409" y="578"/>
      <point x="479" y="619"/>
      <point x="496" y="736" type="curve"/>
      <point x="434" y="736" type="line"/>
      <point x="417" y="674"/>
      <point x="390" y="648"/>
      <point x="329" y="648" type="curve" smooth="yes"/>
      <point x="259" y="648"/>
      <point x="242" y="683"/>
      <point x="245" y="736" type="curve"/>
      <point x="180" y="736" type="line"/>
      <point x="179" y="731"/>
      <point x="179" y="719"/>
      <point x="179" y="711" type="curve" smooth="yes"/>
      <point x="177" y="630"/>
      <point x="228" y="578"/>
    </contour>
  </outline>
</glyph>
<glyph name="dotaccent" format="2">
  <advance width="575"/>
  <unicode hex="02D9"/>
  <anchor x="292" y="526" name="_top"/>
  <outline>
    <contour>
      <point x="321" y="617" type="curve" smooth="yes"/>
      <point x="282" y="617"/>
      <point x="253" y="641"/>
      <point x="253" y="679" type="curve" smooth="yes"/>
      <point x="253" y="717"/>
      <point x="282" y="740"/>
      <point x="321" y="740" type="curve" smooth="yes"/>
      <point x="359" y="740"/>
      <point x="388" y="717"/>
      <point x="388" y="679" type="curve" smooth="yes"/>
      <point x="388" y="641"/>
      <point x="359" y="617"/>
    </contour>
  </outline>
</glyph>
<glyph name="ring" format="2">
  <advance width="575"/>
  <unicode hex="02DA"/>
  <anchor x="292" y="526" name="_top"/>
  <outline>
    <contour>
      <point x="316" y="607" type="curve" smooth="yes"/>
      <point x="280" y="607"/>
      <point x="254" y="628"/>
      <point x="254" y="664" type="curve" smooth="yes"/>
      <point x="254" y="704"/>
      <point x="282" y="732"/>
      <point x="325" y="732" type="curve" smooth="yes"/>
      <point x="361" y="732"/>
      <point x="387" y="711"/>
      <point x="387" y="676" type="curve" smooth="yes"/>
      <point x="387" y="636"/>
      <point x="359" y="607"/>
    </contour>
    <contour>
      <point x="316" y="571" type="curve" smooth="yes"/>
      <point x="388" y="571"/>
      <point x="451" y="608"/>
      <point x="451" y="676" type="curve" smooth="yes"/>
      <point x="451" y="735"/>
      <point x="390" y="768"/>
      <point x="325" y="768" type="curve" smooth="yes"/>
      <point x="253" y="768"/>
      <point x="191" y="732"/>
      <point x="191" y="664" type="curve" smooth="yes"/>
      <point x="191" y="604"/>
      <point x="251" y="571"/>
    </contour>
  </outline>
</glyph>
<glyph name="tilde" format="2">
  <advance width="575"/>
  <unicode hex="02DC"/>
  <anchor x="292" y="516" name="_top"/>
  <outline>
    <contour>
      <point x="388" y="593" type="curve" smooth="yes"/>
      <point x="446" y="593"/>
      <point x="489" y="629"/>
      <point x="516" y="712" type="curve"/>
      <point x="464" y="735" type="line"/>
      <point x="446" y="690"/>
      <point x="431" y="663"/>
      <point x="402" y="663" type="curve" smooth="yes"/>
      <point x="358" y="663"/>
      <point x="334" y="732"/>
      <point x="253" y="732" type="curve" smooth="yes"/>
      <point x="192" y="732"/>
      <point x="152" y="697"/>
      <point x="129" y="612" type="curve"/>
      <point x="180" y="590" type="line"/>
      <point x="196" y="638"/>
      <point x="212" y="663"/>
      <point x="241" y="663" type="curve" smooth="yes"/>
      <point x="283" y="663"/>
      <point x="299" y="593"/>
    </contour>
  </outline>
</glyph>
<glyph name="hungarumlaut" format="2">
  <advance width="575"/>
  <unicode hex="02DD"/>
  <anchor x="306" y="525" name="_top"/>
  <outline>
    <contour>
      <point x="245" y="694" type="curve" smooth="yes"/>
      <point x="198" y="586" type="line"/>
      <point x="195" y="566" type="line"/>
      <point x="228" y="566" type="line"/>
      <point x="319" y="655" type="line" smooth="yes"/>
      <point x="343" y="682"/>
      <point x="357" y="699"/>
      <point x="357" y="723" type="curve" smooth="yes"/>
      <point x="357" y="744"/>
      <point x="340" y="760"/>
      <point x="313" y="760" type="curve" smooth="yes"/>
      <point x="282" y="760"/>
      <point x="264" y="742"/>
    </contour>
    <contour>
      <point x="418" y="694" type="curve" smooth="yes"/>
      <point x="371" y="586" type="line"/>
      <point x="368" y="566" type="line"/>
      <point x="401" y="566" type="line"/>
      <point x="492" y="655" type="line" smooth="yes"/>
      <point x="516" y="682"/>
      <point x="530" y="699"/>
      <point x="530" y="723" type="curve" smooth="yes"/>
      <point x="530" y="744"/>
      <point x="512" y="760"/>
      <point x="486" y="760" type="curve" smooth="yes"/>
      <point x="455" y="760"/>
      <point x="437" y="742"/>
    </contour>
  </outline>
</glyph>
<glyph name="Delta" format="2">
  <advance width="833"/>
  <unicode hex="0394"/>
  <outline>
    <contour>
      <point x="-3" y="0" type="line"/>
      <point x="729" y="0" type="line"/>
      <point x="744" y="79" type="line"/>
      <point x="566" y="710" type="line"/>
      <point x="451" y="710" type="line"/>
      <point x="12" y="79" type="line"/>
    </contour>
    <contour>
      <point x="651" y="48" type="line"/>
      <point x="680" y="84" type="line"/>
      <point x="49" y="84" type="line"/>
      <point x="68" y="48" type="line"/>
      <point x="511" y="699" type="line"/>
      <point x="471" y="698" type="line"/>
    </contour>
  </outline>
</glyph>
<glyph name="thai:baht" format="2">
  <advance width="644"/>
  <unicode hex="0E3F"/>
  <outline>
    <contour>
      <point x="134" y="66" type="line"/>
      <point x="191" y="344" type="line"/>
      <point x="340" y="344" type="line" smooth="yes"/>
      <point x="466" y="344"/>
      <point x="513" y="284"/>
      <point x="513" y="221" type="curve" smooth="yes"/>
      <point x="513" y="198"/>
      <point x="510" y="176"/>
      <point x="502" y="157" type="curve" smooth="yes"/>
      <point x="481" y="100"/>
      <point x="421" y="66"/>
      <point x="306" y="66" type="curve" smooth="yes"/>
    </contour>
    <contour>
      <point x="201" y="399" type="line"/>
      <point x="253" y="643" type="line"/>
      <point x="385" y="643" type="line" smooth="yes"/>
      <point x="498" y="643"/>
      <point x="543" y="605"/>
      <point x="543" y="539" type="curve" smooth="yes"/>
      <point x="543" y="512"/>
      <point x="538" y="487"/>
      <point x="526" y="467" type="curve" smooth="yes"/>
      <point x="501" y="424"/>
      <point x="447" y="399"/>
      <point x="363" y="399" type="curve"/>
    </contour>
    <contour>
      <point x="211" y="-110" type="line"/>
      <point x="276" y="-110" type="line"/>
      <point x="305" y="38" type="line"/>
      <point x="304" y="50" type="line"/>
      <point x="429" y="662" type="line"/>
      <point x="435" y="673" type="line"/>
      <point x="458" y="790" type="line"/>
      <point x="392" y="790" type="line"/>
      <point x="370" y="676" type="line"/>
      <point x="371" y="660" type="line"/>
      <point x="245" y="46" type="line"/>
      <point x="239" y="36" type="line"/>
    </contour>
    <contour>
      <point x="-52" y="10" type="line"/>
      <point x="291" y="10" type="line" smooth="yes"/>
      <point x="495" y="10"/>
      <point x="609" y="88"/>
      <point x="609" y="217" type="curve" smooth="yes"/>
      <point x="609" y="309"/>
      <point x="524" y="375"/>
      <point x="333" y="384" type="curve"/>
      <point x="439" y="360" type="line"/>
      <point x="444" y="380" type="line"/>
      <point x="372" y="365" type="line"/>
      <point x="537" y="365"/>
      <point x="638" y="435"/>
      <point x="638" y="541" type="curve" smooth="yes"/>
      <point x="638" y="631"/>
      <point x="555" y="700"/>
      <point x="378" y="700" type="curve" smooth="yes"/>
      <point x="87" y="700" type="line"/>
      <point x="78" y="652" type="line"/>
      <point x="91" y="652" type="line" smooth="yes"/>
      <point x="131" y="652"/>
      <point x="160" y="645"/>
      <point x="154" y="616" type="curve" smooth="yes"/>
      <point x="46" y="94" type="line" smooth="yes"/>
      <point x="40" y="65"/>
      <point x="8" y="58"/>
      <point x="-31" y="58" type="curve" smooth="yes"/>
      <point x="-44" y="58" type="line"/>
    </contour>
  </outline>
</glyph>
<glyph name="endash" format="2">
  <advance width="694"/>
  <unicode hex="2013"/>
  <outline>
    <contour>
      <point x="95" y="346" type="line"/>
      <point x="84" y="284" type="line"/>
      <point x="600" y="284" type="line"/>
      <point x="611" y="346" type="line"/>
    </contour>
  </outline>
</glyph>
<glyph name="dagger" format="2">
  <advance width="501"/>
  <unicode hex="2020"/>
  <outline>
    <contour>
      <point x="270" y="507" type="line"/>
      <point x="300" y="507" type="line"/>
      <point x="455" y="448" type="line"/>
      <point x="489" y="448" type="line"/>
      <point x="512" y="568" type="line"/>
      <point x="477" y="568" type="line"/>
      <point x="305" y="536" type="line"/>
      <point x="276" y="536" type="line"/>
      <point x="112" y="568" type="line"/>
      <point x="77" y="568" type="line"/>
      <point x="55" y="448" type="line"/>
      <point x="90" y="448" type="line"/>
    </contour>
    <contour>
      <point x="380" y="710" type="line"/>
      <point x="269" y="710" type="line"/>
      <point x="261" y="677" type="line" smooth="yes"/>
      <point x="255" y="642"/>
      <point x="272" y="584"/>
      <point x="259" y="522" type="curve"/>
      <point x="243" y="443"/>
      <point x="226" y="407"/>
      <point x="201" y="382" type="curve"/>
      <point x="197" y="362" type="line" smooth="yes"/>
      <point x="188" y="322"/>
      <point x="196" y="221"/>
      <point x="162" y="0" type="curve"/>
      <point x="205" y="0" type="line"/>
      <point x="255" y="220"/>
      <point x="298" y="315"/>
      <point x="307" y="355" type="curve" smooth="yes"/>
      <point x="311" y="375" type="line"/>
      <point x="298" y="403"/>
      <point x="295" y="438"/>
      <point x="311" y="518" type="curve"/>
      <point x="324" y="580"/>
      <point x="366" y="639"/>
      <point x="373" y="673" type="curve" smooth="yes"/>
    </contour>
  </outline>
</glyph>
<glyph name="daggerdbl" format="2">
  <advance width="501"/>
  <unicode hex="2021"/>
  <outline>
    <contour>
      <point x="1" y="141" type="line"/>
      <point x="36" y="141" type="line"/>
      <point x="207" y="173" type="line"/>
      <point x="237" y="173" type="line"/>
      <point x="400" y="141" type="line"/>
      <point x="435" y="141" type="line"/>
      <point x="457" y="261" type="line"/>
      <point x="422" y="261" type="line"/>
      <point x="242" y="203" type="line"/>
      <point x="213" y="203" type="line"/>
      <point x="57" y="261" type="line"/>
      <point x="23" y="261" type="line"/>
    </contour>
    <contour>
      <point x="201" y="334" type="line"/>
      <point x="215" y="306"/>
      <point x="217" y="271"/>
      <point x="201" y="191" type="curve" smooth="yes"/>
      <point x="189" y="130"/>
      <point x="146" y="71"/>
      <point x="140" y="37" type="curve" smooth="yes"/>
      <point x="133" y="0" type="line"/>
      <point x="244" y="0" type="line"/>
      <point x="251" y="33" type="line" smooth="yes"/>
      <point x="258" y="68"/>
      <point x="241" y="126"/>
      <point x="253" y="187" type="curve" smooth="yes"/>
      <point x="269" y="267"/>
      <point x="286" y="302"/>
      <point x="311" y="327" type="curve"/>
      <point x="322" y="376" type="line"/>
      <point x="309" y="404"/>
      <point x="306" y="439"/>
      <point x="322" y="519" type="curve" smooth="yes"/>
      <point x="334" y="580"/>
      <point x="377" y="639"/>
      <point x="384" y="673" type="curve" smooth="yes"/>
      <point x="390" y="710" type="line"/>
      <point x="279" y="710" type="line"/>
      <point x="272" y="677" type="line" smooth="yes"/>
      <point x="266" y="642"/>
      <point x="283" y="584"/>
      <point x="270" y="523" type="curve" smooth="yes"/>
      <point x="254" y="443"/>
      <point x="237" y="408"/>
      <point x="212" y="383" type="curve"/>
    </contour>
    <contour>
      <point x="66" y="449" type="line"/>
      <point x="101" y="449" type="line"/>
      <point x="281" y="507" type="line"/>
      <point x="310" y="507" type="line"/>
      <point x="466" y="449" type="line"/>
      <point x="500" y="449" type="line"/>
      <point x="522" y="569" type="line"/>
      <point x="487" y="569" type="line"/>
      <point x="316" y="537" type="line"/>
      <point x="286" y="537" type="line"/>
      <point x="123" y="569" type="line"/>
      <point x="88" y="569" type="line"/>
    </contour>
  </outline>
</glyph>
<glyph name="perthousand" format="2">
  <advance width="1315"/>
  <unicode hex="2030"/>
  <outline>
    <contour>
      <point x="241" y="382" type="curve" smooth="yes"/>
      <point x="366" y="382"/>
      <point x="436" y="473"/>
      <point x="436" y="571" type="curve" smooth="yes"/>
      <point x="436" y="662"/>
      <point x="373" y="720"/>
      <point x="278" y="720" type="curve" smooth="yes"/>
      <point x="152" y="720"/>
      <point x="82" y="628"/>
      <point x="82" y="531" type="curve" smooth="yes"/>
      <point x="82" y="440"/>
      <point x="145" y="382"/>
    </contour>
    <contour>
      <point x="244" y="430" type="curve"/>
      <point x="192" y="430"/>
      <point x="163" y="461"/>
      <point x="163" y="520" type="curve" smooth="yes"/>
      <point x="163" y="600"/>
      <point x="203" y="672"/>
      <point x="274" y="672" type="curve" smooth="yes"/>
      <point x="327" y="672"/>
      <point x="356" y="641"/>
      <point x="356" y="582" type="curve" smooth="yes"/>
      <point x="356" y="502"/>
      <point x="315" y="430"/>
    </contour>
    <contour>
      <point x="654" y="-10" type="curve" smooth="yes"/>
      <point x="559" y="-10"/>
      <point x="496" y="48"/>
      <point x="496" y="139" type="curve" smooth="yes"/>
      <point x="496" y="237"/>
      <point x="566" y="328"/>
      <point x="692" y="328" type="curve" smooth="yes"/>
      <point x="787" y="328"/>
      <point x="851" y="270"/>
      <point x="851" y="179" type="curve" smooth="yes"/>
      <point x="851" y="82"/>
      <point x="780" y="-10"/>
    </contour>
    <contour>
      <point x="658" y="38" type="curve"/>
      <point x="729" y="38"/>
      <point x="770" y="110"/>
      <point x="770" y="190" type="curve" smooth="yes"/>
      <point x="770" y="249"/>
      <point x="741" y="280"/>
      <point x="688" y="280" type="curve" smooth="yes"/>
      <point x="617" y="280"/>
      <point x="577" y="208"/>
      <point x="577" y="128" type="curve" smooth="yes"/>
      <point x="577" y="69"/>
      <point x="606" y="38"/>
    </contour>
    <contour>
      <point x="1069" y="-10" type="curve" smooth="yes"/>
      <point x="974" y="-10"/>
      <point x="911" y="48"/>
      <point x="911" y="139" type="curve" smooth="yes"/>
      <point x="911" y="237"/>
      <point x="981" y="328"/>
      <point x="1107" y="328" type="curve" smooth="yes"/>
      <point x="1202" y="328"/>
      <point x="1266" y="270"/>
      <point x="1266" y="179" type="curve" smooth="yes"/>
      <point x="1266" y="82"/>
      <point x="1195" y="-10"/>
    </contour>
    <contour>
      <point x="1073" y="38" type="curve"/>
      <point x="1144" y="38"/>
      <point x="1185" y="110"/>
      <point x="1185" y="190" type="curve" smooth="yes"/>
      <point x="1185" y="249"/>
      <point x="1156" y="280"/>
      <point x="1103" y="280" type="curve" smooth="yes"/>
      <point x="1032" y="280"/>
      <point x="992" y="208"/>
      <point x="992" y="128" type="curve" smooth="yes"/>
      <point x="992" y="69"/>
      <point x="1021" y="38"/>
    </contour>
    <component base="fraction" xOffset="208"/>
  </outline>
</glyph>
<glyph name="colonmonetary" format="2">
  <advance width="644"/>
  <unicode hex="20A1"/>
  <outline>
    <contour>
      <point x="363" y="790" type="line"/>
      <point x="325" y="669" type="line"/>
      <point x="321" y="657" type="line"/>
      <point x="147" y="111" type="line"/>
      <point x="143" y="100" type="line"/>
      <point x="73" y="-120" type="line"/>
      <point x="133" y="-120" type="line"/>
      <point x="191" y="61" type="line"/>
      <point x="194" y="70" type="line"/>
      <point x="382" y="658" type="line"/>
      <point x="386" y="671" type="line"/>
      <point x="422" y="790" type="line"/>
    </contour>
    <contour>
      <point x="514" y="790" type="line"/>
      <point x="476" y="672" type="line"/>
      <point x="474" y="662" type="line"/>
      <point x="279" y="53" type="line"/>
      <point x="276" y="42" type="line"/>
      <point x="225" y="-120" type="line"/>
      <point x="285" y="-120" type="line"/>
      <point x="332" y="30" type="line"/>
      <point x="335" y="44" type="line"/>
      <point x="528" y="644" type="line"/>
      <point x="534" y="664" type="line"/>
      <point x="574" y="790" type="line"/>
    </contour>
    <contour>
      <point x="322" y="9" type="curve" smooth="yes"/>
      <point x="463" y="9"/>
      <point x="562" y="99"/>
      <point x="619" y="230" type="curve"/>
      <point x="562" y="262" type="line"/>
      <point x="514" y="146"/>
      <point x="435" y="67"/>
      <point x="325" y="67" type="curve" smooth="yes"/>
      <point x="208" y="67"/>
      <point x="123" y="128"/>
      <point x="123" y="292" type="curve" smooth="yes"/>
      <point x="123" y="343"/>
      <point x="130" y="394"/>
      <point x="146" y="442" type="curve" smooth="yes"/>
      <point x="184" y="557"/>
      <point x="269" y="644"/>
      <point x="414" y="644" type="curve" smooth="yes"/>
      <point x="534" y="644"/>
      <point x="618" y="579"/>
      <point x="634" y="540" type="curve"/>
      <point x="656" y="567"/>
      <point x="630" y="595"/>
      <point x="591" y="603" type="curve"/>
      <point x="567" y="492" type="line"/>
      <point x="669" y="492" type="line"/>
      <point x="690" y="604" type="line"/>
      <point x="663" y="632"/>
      <point x="564" y="701"/>
      <point x="417" y="701" type="curve" smooth="yes"/>
      <point x="161" y="701"/>
      <point x="26" y="509"/>
      <point x="26" y="304" type="curve" smooth="yes"/>
      <point x="26" y="105"/>
      <point x="169" y="9"/>
    </contour>
  </outline>
</glyph>
<glyph name="lira" format="2">
  <advance width="644"/>
  <unicode hex="20A4"/>
  <outline>
    <contour>
      <point x="-37" y="-13" type="line"/>
      <point x="201" y="13"/>
      <point x="280" y="149"/>
      <point x="280" y="281" type="curve" smooth="yes"/>
      <point x="280" y="354"/>
      <point x="252" y="409"/>
      <point x="252" y="484" type="curve" smooth="yes"/>
      <point x="252" y="570"/>
      <point x="290" y="657"/>
      <point x="422" y="657" type="curve" smooth="yes"/>
      <point x="508" y="657"/>
      <point x="558" y="623"/>
      <point x="578" y="574" type="curve"/>
      <point x="580" y="606"/>
      <point x="571" y="643"/>
      <point x="539" y="647" type="curve"/>
      <point x="516" y="534" type="line"/>
      <point x="612" y="534" type="line"/>
      <point x="636" y="654" type="line"/>
      <point x="612" y="675"/>
      <point x="539" y="718"/>
      <point x="422" y="718" type="curve" smooth="yes"/>
      <point x="234" y="718"/>
      <point x="150" y="611"/>
      <point x="150" y="495" type="curve" smooth="yes"/>
      <point x="150" y="412"/>
      <point x="188" y="343"/>
      <point x="188" y="261" type="curve" smooth="yes"/>
      <point x="188" y="167"/>
      <point x="145" y="83"/>
      <point x="-20" y="58" type="curve"/>
    </contour>
    <contour>
      <point x="401" y="-10" type="curve" smooth="yes"/>
      <point x="506" y="-10"/>
      <point x="567" y="64"/>
      <point x="603" y="160" type="curve"/>
      <point x="547" y="187" type="line"/>
      <point x="512" y="112"/>
      <point x="472" y="81"/>
      <point x="409" y="81" type="curve" smooth="yes"/>
      <point x="355" y="81"/>
      <point x="295" y="107"/>
      <point x="221" y="175" type="curve"/>
      <point x="175" y="128" type="line"/>
      <point x="269" y="30"/>
      <point x="316" y="-10"/>
    </contour>
    <contour>
      <point x="29" y="285" type="line"/>
      <point x="19" y="232" type="line"/>
      <point x="444" y="232" type="line"/>
      <point x="454" y="285" type="line"/>
    </contour>
    <contour>
      <point x="60" y="440" type="line"/>
      <point x="50" y="387" type="line"/>
      <point x="475" y="387" type="line"/>
      <point x="485" y="440" type="line"/>
    </contour>
  </outline>
</glyph>
<glyph name="naira" format="2">
  <advance width="644"/>
  <unicode hex="20A6"/>
  <outline>
    <contour>
      <point x="-48" y="0" type="line"/>
      <point x="195" y="0" type="line"/>
      <point x="205" y="48" type="line"/>
      <point x="189" y="48" type="line" smooth="yes"/>
      <point x="153" y="48"/>
      <point x="112" y="56"/>
      <point x="113" y="63" type="curve" smooth="yes"/>
      <point x="242" y="695" type="line"/>
      <point x="215" y="696" type="line"/>
      <point x="373" y="0" type="line"/>
      <point x="478" y="0" type="line"/>
      <point x="604" y="621" type="line" smooth="yes"/>
      <point x="610" y="650"/>
      <point x="641" y="662"/>
      <point x="680" y="662" type="curve" smooth="yes"/>
      <point x="692" y="662" type="line"/>
      <point x="702" y="710" type="line"/>
      <point x="460" y="710" type="line"/>
      <point x="450" y="662" type="line"/>
      <point x="466" y="662" type="line"/>
      <point x="502" y="662"/>
      <point x="543" y="654"/>
      <point x="542" y="647" type="curve" smooth="yes"/>
      <point x="417" y="36" type="line"/>
      <point x="452" y="20" type="line"/>
      <point x="298" y="710" type="line"/>
      <point x="97" y="710" type="line"/>
      <point x="87" y="662" type="line"/>
      <point x="100" y="662" type="line" smooth="yes"/>
      <point x="138" y="662"/>
      <point x="166" y="655"/>
      <point x="160" y="626" type="curve" smooth="yes"/>
      <point x="50" y="89" type="line" smooth="yes"/>
      <point x="44" y="60"/>
      <point x="13" y="48"/>
      <point x="-25" y="48" type="curve" smooth="yes"/>
      <point x="-38" y="48" type="line"/>
    </contour>
    <contour>
      <point x="163" y="460" type="line"/>
      <point x="39" y="460" type="line"/>
      <point x="29" y="407" type="line"/>
      <point x="151" y="407" type="line"/>
    </contour>
    <contour>
      <point x="316" y="407" type="line"/>
      <point x="523" y="407" type="line"/>
      <point x="541" y="407" type="line"/>
      <point x="646" y="407" type="line"/>
      <point x="656" y="460" type="line"/>
      <point x="324" y="460" type="line"/>
    </contour>
    <contour>
      <point x="503" y="247" type="line"/>
      <point x="614" y="247" type="line"/>
      <point x="624" y="300" type="line"/>
      <point x="515" y="300" type="line"/>
    </contour>
    <contour>
      <point x="348" y="300" type="line"/>
      <point x="141" y="300" type="line"/>
      <point x="123" y="300" type="line"/>
      <point x="7" y="300" type="line"/>
      <point x="-3" y="247" type="line"/>
      <point x="367" y="247" type="line"/>
    </contour>
  </outline>
</glyph>
<glyph name="dong" format="2">
  <advance width="644"/>
  <unicode hex="20AB"/>
  <outline>
    <contour>
      <point x="203" y="-12" type="curve" smooth="yes"/>
      <point x="310" y="-12"/>
      <point x="380" y="60"/>
      <point x="460" y="190" type="curve"/>
      <point x="434" y="219" type="line"/>
      <point x="356" y="103"/>
      <point x="292" y="47"/>
      <point x="216" y="47" type="curve" smooth="yes"/>
      <point x="151" y="47"/>
      <point x="121" y="89"/>
      <point x="121" y="180" type="curve" smooth="yes"/>
      <point x="121" y="244"/>
      <point x="137" y="305"/>
      <point x="168" y="354" type="curve" smooth="yes"/>
      <point x="205" y="416"/>
      <point x="264" y="459"/>
      <point x="336" y="459" type="curve" smooth="yes"/>
      <point x="411" y="459"/>
      <point x="471" y="419"/>
      <point x="487" y="349" type="curve"/>
      <point x="540" y="403" type="line"/>
      <point x="502" y="470"/>
      <point x="435" y="518"/>
      <point x="341" y="518" type="curve" smooth="yes"/>
      <point x="152" y="518"/>
      <point x="20" y="362"/>
      <point x="20" y="187" type="curve" smooth="yes"/>
      <point x="20" y="53"/>
      <point x="90" y="-12"/>
    </contour>
    <contour>
      <point x="491" y="-7" type="curve" smooth="yes"/>
      <point x="534" y="-7"/>
      <point x="568" y="7"/>
      <point x="590" y="22" type="curve"/>
      <point x="601" y="75" type="line"/>
      <point x="588" y="71"/>
      <point x="552" y="54"/>
      <point x="518" y="54" type="curve" smooth="yes"/>
      <point x="496" y="54"/>
      <point x="486" y="62"/>
      <point x="486" y="81" type="curve" smooth="yes"/>
      <point x="486" y="96"/>
      <point x="491" y="120"/>
      <point x="498" y="163" type="curve" smooth="yes"/>
      <point x="613" y="735" type="line"/>
      <point x="518" y="735" type="line"/>
      <point x="399" y="127" type="line"/>
      <point x="406" y="140" type="line"/>
      <point x="398" y="113"/>
      <point x="395" y="95"/>
      <point x="395" y="78" type="curve" smooth="yes"/>
      <point x="395" y="23"/>
      <point x="434" y="-7"/>
    </contour>
    <contour>
      <point x="32" y="-188" type="line"/>
      <point x="528" y="-188" type="line"/>
      <point x="539" y="-127" type="line"/>
      <point x="43" y="-127" type="line"/>
    </contour>
    <contour>
      <point x="256" y="581" type="line"/>
      <point x="694" y="581" type="line"/>
      <point x="705" y="634" type="line"/>
      <point x="267" y="634" type="line"/>
    </contour>
  </outline>
</glyph>
<glyph name="Euro" format="2">
  <advance width="644"/>
  <unicode hex="20AC"/>
  <outline>
    <contour>
      <point x="473" y="720" type="curve" smooth="yes"/>
      <point x="268" y="720"/>
      <point x="94" y="553"/>
      <point x="94" y="280" type="curve" smooth="yes"/>
      <point x="94" y="74"/>
      <point x="215" y="-10"/>
      <point x="349" y="-10" type="curve"/>
      <point x="472" y="-10"/>
      <point x="558" y="58"/>
      <point x="597" y="160" type="curve"/>
      <point x="536" y="191" type="line"/>
      <point x="516" y="144"/>
      <point x="455" y="53"/>
      <point x="355" y="53" type="curve"/>
      <point x="270" y="53"/>
      <point x="195" y="107"/>
      <point x="195" y="273" type="curve" smooth="yes"/>
      <point x="195" y="325"/>
      <point x="201" y="373"/>
      <point x="212" y="416" type="curve" smooth="yes"/>
      <point x="252" y="567"/>
      <point x="354" y="657"/>
      <point x="470" y="657" type="curve" smooth="yes"/>
      <point x="547" y="657"/>
      <point x="591" y="624"/>
      <point x="609" y="585" type="curve"/>
      <point x="631" y="611"/>
      <point x="607" y="637"/>
      <point x="570" y="646" type="curve"/>
      <point x="550" y="550" type="line"/>
      <point x="651" y="550" type="line"/>
      <point x="671" y="649" type="line"/>
      <point x="651" y="679"/>
      <point x="583" y="720"/>
    </contour>
    <contour>
      <point x="12" y="297" type="line"/>
      <point x="1" y="240" type="line"/>
      <point x="384" y="240" type="line"/>
      <point x="395" y="297" type="line"/>
    </contour>
    <contour>
      <point x="43" y="452" type="line"/>
      <point x="32" y="395" type="line"/>
      <point x="472" y="395" type="line"/>
      <point x="483" y="452" type="line"/>
    </contour>
  </outline>
</glyph>
<glyph name="peso" format="2">
  <advance width="644"/>
  <unicode hex="20B1"/>
  <outline>
    <contour>
      <point x="65" y="505" type="line"/>
      <point x="56" y="452" type="line"/>
      <point x="181" y="452" type="line"/>
      <point x="209" y="452" type="line"/>
      <point x="519" y="452" type="line"/>
      <point x="537" y="452" type="line"/>
      <point x="666" y="452" type="line"/>
      <point x="676" y="505" type="line"/>
      <point x="560" y="505" type="line"/>
      <point x="523" y="505" type="line"/>
      <point x="216" y="505" type="line"/>
      <point x="195" y="505" type="line"/>
    </contour>
    <contour>
      <point x="-34" y="0" type="line"/>
      <point x="260" y="0" type="line"/>
      <point x="270" y="48" type="line"/>
      <point x="244" y="48" type="line" smooth="yes"/>
      <point x="209" y="48"/>
      <point x="166" y="51"/>
      <point x="167" y="58" type="curve" smooth="yes"/>
      <point x="207" y="248" type="line"/>
      <point x="265" y="248" type="line" smooth="yes"/>
      <point x="476" y="248"/>
      <point x="587" y="358"/>
      <point x="587" y="509" type="curve" smooth="yes"/>
      <point x="587" y="628"/>
      <point x="483" y="710"/>
      <point x="323" y="710" type="curve" smooth="yes"/>
      <point x="111" y="710" type="line"/>
      <point x="101" y="662" type="line"/>
      <point x="114" y="662" type="line" smooth="yes"/>
      <point x="158" y="662"/>
      <point x="190" y="655"/>
      <point x="184" y="626" type="curve" smooth="yes"/>
      <point x="73" y="84" type="line" smooth="yes"/>
      <point x="67" y="55"/>
      <point x="33" y="48"/>
      <point x="-11" y="48" type="curve" smooth="yes"/>
      <point x="-24" y="48" type="line"/>
    </contour>
    <contour>
      <point x="320" y="652" type="line" smooth="yes"/>
      <point x="438" y="652"/>
      <point x="493" y="596"/>
      <point x="493" y="515" type="curve" smooth="yes"/>
      <point x="493" y="500"/>
      <point x="492" y="483"/>
      <point x="490" y="468" type="curve" smooth="yes"/>
      <point x="475" y="368"/>
      <point x="407" y="304"/>
      <point x="271" y="304" type="curve" smooth="yes"/>
      <point x="218" y="304" type="line"/>
      <point x="290" y="652" type="line"/>
    </contour>
  </outline>
</glyph>
<glyph name="uni20B4" format="2">
  <advance width="644"/>
  <unicode hex="20B4"/>
  <outline>
    <contour>
      <point x="40" y="410" type="line"/>
      <point x="642" y="410" type="line"/>
      <point x="652" y="467" type="line"/>
      <point x="51" y="467" type="line"/>
    </contour>
    <contour>
      <point x="10" y="260" type="line"/>
      <point x="611" y="260" type="line"/>
      <point x="622" y="317" type="line"/>
      <point x="20" y="317" type="line"/>
    </contour>
    <contour>
      <point x="299" y="-10" type="curve" smooth="yes"/>
      <point x="404" y="-10"/>
      <point x="481" y="25"/>
      <point x="528" y="63" type="curve"/>
      <point x="552" y="192" type="line"/>
      <point x="449" y="192" type="line"/>
      <point x="423" y="56" type="line"/>
      <point x="454" y="56"/>
      <point x="484" y="126"/>
      <point x="485" y="133" type="curve"/>
      <point x="436" y="80"/>
      <point x="385" y="51"/>
      <point x="304" y="51" type="curve" smooth="yes"/>
      <point x="208" y="51"/>
      <point x="152" y="96"/>
      <point x="152" y="165" type="curve" smooth="yes"/>
      <point x="152" y="212"/>
      <point x="174" y="254"/>
      <point x="220" y="277" type="curve"/>
      <point x="100" y="276" type="line"/>
      <point x="71" y="246"/>
      <point x="58" y="209"/>
      <point x="58" y="169" type="curve" smooth="yes"/>
      <point x="58" y="61"/>
      <point x="155" y="-10"/>
    </contour>
    <contour>
      <point x="559" y="443" type="line"/>
      <point x="592" y="474"/>
      <point x="614" y="520"/>
      <point x="614" y="564" type="curve" smooth="yes"/>
      <point x="614" y="655"/>
      <point x="537" y="720"/>
      <point x="398" y="720" type="curve" smooth="yes"/>
      <point x="301" y="720"/>
      <point x="225" y="686"/>
      <point x="183" y="648" type="curve"/>
      <point x="163" y="542" type="line"/>
      <point x="265" y="542" type="line"/>
      <point x="283" y="647" type="line"/>
      <point x="253" y="647"/>
      <point x="226" y="619"/>
      <point x="227" y="585" type="curve"/>
      <point x="265" y="629"/>
      <point x="319" y="660"/>
      <point x="391" y="660" type="curve" smooth="yes"/>
      <point x="482" y="660"/>
      <point x="523" y="617"/>
      <point x="523" y="565" type="curve" smooth="yes"/>
      <point x="523" y="514"/>
      <point x="492" y="472"/>
      <point x="438" y="444" type="curve"/>
    </contour>
  </outline>
</glyph>
<glyph name="manat" format="2">
  <advance width="644"/>
  <unicode hex="20BC"/>
  <outline>
    <contour>
      <point x="379" y="720" type="line"/>
      <point x="261" y="135" type="line"/>
      <point x="327" y="135" type="line"/>
      <point x="445" y="720" type="line"/>
    </contour>
    <contour>
      <point x="382" y="590" type="curve"/>
      <point x="171" y="590"/>
      <point x="44" y="373"/>
      <point x="-29" y="0" type="curve"/>
      <point x="70" y="0" type="line"/>
      <point x="144" y="382"/>
      <point x="229" y="537"/>
      <point x="375" y="537" type="curve"/>
      <point x="529" y="537"/>
      <point x="537" y="362"/>
      <point x="464" y="0" type="curve"/>
      <point x="563" y="0" type="line"/>
      <point x="635" y="354"/>
      <point x="590" y="590"/>
    </contour>
  </outline>
</glyph>
<glyph name="ruble" format="2">
  <advance width="644"/>
  <unicode hex="20BD"/>
  <outline>
    <contour>
      <point x="429" y="178" type="line"/>
      <point x="8" y="178" type="line"/>
      <point x="18" y="230" type="line"/>
      <point x="439" y="230" type="line"/>
    </contour>
    <contour>
      <point x="49" y="385" type="line"/>
      <point x="376" y="385" type="line" smooth="yes"/>
      <point x="474" y="385"/>
      <point x="534" y="420"/>
      <point x="559" y="478" type="curve" smooth="yes"/>
      <point x="567" y="497"/>
      <point x="571" y="519"/>
      <point x="571" y="541" type="curve" smooth="yes"/>
      <point x="571" y="614"/>
      <point x="524" y="652"/>
      <point x="399" y="652" type="curve" smooth="yes"/>
      <point x="318" y="652" type="line"/>
      <point x="195" y="58" type="line" smooth="yes"/>
      <point x="194" y="51"/>
      <point x="243" y="48"/>
      <point x="282" y="48" type="curve" smooth="yes"/>
      <point x="313" y="48" type="line"/>
      <point x="304" y="0" type="line"/>
      <point x="-26" y="0" type="line"/>
      <point x="-16" y="48" type="line"/>
      <point x="-3" y="48" type="line" smooth="yes"/>
      <point x="53" y="48"/>
      <point x="96" y="55"/>
      <point x="101" y="84" type="curve" smooth="yes"/>
      <point x="212" y="626" type="line" smooth="yes"/>
      <point x="218" y="655"/>
      <point x="178" y="662"/>
      <point x="121" y="662" type="curve" smooth="yes"/>
      <point x="109" y="662" type="line"/>
      <point x="119" y="710" type="line"/>
      <point x="401" y="710" type="line" smooth="yes"/>
      <point x="582" y="710"/>
      <point x="675" y="644"/>
      <point x="675" y="539" type="curve" smooth="yes"/>
      <point x="675" y="417"/>
      <point x="566" y="332"/>
      <point x="375" y="332" type="curve" smooth="yes"/>
      <point x="39" y="332" type="line"/>
    </contour>
  </outline>
</glyph>
<glyph name="soundcopyright" format="2">
  <advance width="967"/>
  <unicode hex="2117"/>
  <outline>
    <contour>
      <point x="110" y="355" type="curve" smooth="yes"/>
      <point x="110" y="541"/>
      <point x="268" y="687"/>
      <point x="484" y="687" type="curve" smooth="yes"/>
      <point x="700" y="687"/>
      <point x="858" y="541"/>
      <point x="858" y="355" type="curve" smooth="yes"/>
      <point x="858" y="169"/>
      <point x="700" y="23"/>
      <point x="484" y="23" type="curve" smooth="yes"/>
      <point x="268" y="23"/>
      <point x="110" y="169"/>
    </contour>
    <contour>
      <point x="296" y="153" type="line"/>
      <point x="515" y="153" type="line"/>
      <point x="515" y="196" type="line"/>
      <point x="491" y="196" type="line" smooth="yes"/>
      <point x="469" y="196"/>
      <point x="440" y="197"/>
      <point x="440" y="201" type="curve" smooth="yes"/>
      <point x="440" y="300" type="line"/>
      <point x="516" y="300" type="line" smooth="yes"/>
      <point x="628" y="300"/>
      <point x="710" y="351"/>
      <point x="710" y="432" type="curve" smooth="yes"/>
      <point x="710" y="511"/>
      <point x="634" y="557"/>
      <point x="519" y="557" type="curve" smooth="yes"/>
      <point x="296" y="557" type="line"/>
      <point x="296" y="514" type="line"/>
      <point x="303" y="514" type="line" smooth="yes"/>
      <point x="335" y="514"/>
      <point x="359" y="510"/>
      <point x="359" y="494" type="curve" smooth="yes"/>
      <point x="359" y="216" type="line" smooth="yes"/>
      <point x="359" y="200"/>
      <point x="335" y="196"/>
      <point x="303" y="196" type="curve" smooth="yes"/>
      <point x="296" y="196" type="line"/>
    </contour>
    <contour>
      <point x="518" y="511" type="line" smooth="yes"/>
      <point x="589" y="511"/>
      <point x="625" y="489"/>
      <point x="625" y="432" type="curve" smooth="yes"/>
      <point x="625" y="375"/>
      <point x="589" y="345"/>
      <point x="515" y="345" type="curve" smooth="yes"/>
      <point x="440" y="345" type="line"/>
      <point x="440" y="511" type="line"/>
    </contour>
    <contour>
      <point x="47" y="355" type="curve" smooth="yes"/>
      <point x="47" y="138"/>
      <point x="236" y="-28"/>
      <point x="484" y="-28" type="curve" smooth="yes"/>
      <point x="732" y="-28"/>
      <point x="922" y="138"/>
      <point x="922" y="355" type="curve" smooth="yes"/>
      <point x="922" y="572"/>
      <point x="732" y="738"/>
      <point x="484" y="738" type="curve" smooth="yes"/>
      <point x="236" y="738"/>
      <point x="47" y="572"/>
    </contour>
  </outline>
</glyph>
<glyph name="servicemark" format="2">
  <advance width="991"/>
  <unicode hex="2120"/>
  <outline>
    <contour>
      <point x="459" y="394" type="line"/>
      <point x="598" y="394" type="line"/>
      <point x="605" y="430" type="line"/>
      <point x="602" y="430" type="line" smooth="yes"/>
      <point x="590" y="430"/>
      <point x="567" y="433"/>
      <point x="567" y="435" type="curve"/>
      <point x="622" y="702" type="line"/>
      <point x="614" y="701" type="line"/>
      <point x="665" y="393" type="line"/>
      <point x="718" y="393" type="line"/>
      <point x="897" y="701" type="line"/>
      <point x="889" y="701" type="line"/>
      <point x="835" y="435" type="line"/>
      <point x="835" y="433"/>
      <point x="813" y="430"/>
      <point x="800" y="430" type="curve" smooth="yes"/>
      <point x="796" y="430" type="line"/>
      <point x="789" y="394" type="line"/>
      <point x="942" y="394" type="line"/>
      <point x="948" y="430" type="line"/>
      <point x="940" y="430" type="line" smooth="yes"/>
      <point x="915" y="430"/>
      <point x="899" y="434"/>
      <point x="901" y="447" type="curve" smooth="yes"/>
      <point x="946" y="659" type="line" smooth="yes"/>
      <point x="948" y="673"/>
      <point x="966" y="675"/>
      <point x="992" y="675" type="curve" smooth="yes"/>
      <point x="1000" y="675" type="line"/>
      <point x="1006" y="710" type="line"/>
      <point x="852" y="710" type="line"/>
      <point x="697" y="435" type="line"/>
      <point x="717" y="435" type="line"/>
      <point x="678" y="710" type="line"/>
      <point x="524" y="710" type="line"/>
      <point x="517" y="675" type="line"/>
      <point x="524" y="675" type="line" smooth="yes"/>
      <point x="548" y="675"/>
      <point x="566" y="673"/>
      <point x="564" y="659" type="curve" smooth="yes"/>
      <point x="520" y="447" type="line" smooth="yes"/>
      <point x="518" y="434"/>
      <point x="497" y="430"/>
      <point x="473" y="430" type="curve" smooth="yes"/>
      <point x="466" y="430" type="line"/>
    </contour>
    <contour>
      <point x="165" y="631" type="curve" smooth="yes"/>
      <point x="165" y="574"/>
      <point x="212" y="555"/>
      <point x="268" y="535" type="curve" smooth="yes"/>
      <point x="331" y="513"/>
      <point x="360" y="499"/>
      <point x="360" y="472" type="curve" smooth="yes"/>
      <point x="360" y="445"/>
      <point x="337" y="427"/>
      <point x="290" y="427" type="curve" smooth="yes"/>
      <point x="233" y="427"/>
      <point x="195" y="459"/>
      <point x="182" y="500" type="curve"/>
      <point x="133" y="500" type="line"/>
      <point x="111" y="390" type="line"/>
      <point x="153" y="390" type="line"/>
      <point x="178" y="482" type="line"/>
      <point x="146" y="481" type="line"/>
      <point x="165" y="423"/>
      <point x="212" y="385"/>
      <point x="288" y="385" type="curve" smooth="yes"/>
      <point x="369" y="385"/>
      <point x="420" y="420"/>
      <point x="420" y="484" type="curve" smooth="yes"/>
      <point x="420" y="532"/>
      <point x="380" y="557"/>
      <point x="300" y="587" type="curve" smooth="yes"/>
      <point x="264" y="601"/>
      <point x="222" y="610"/>
      <point x="222" y="641" type="curve" smooth="yes"/>
      <point x="222" y="666"/>
      <point x="246" y="679"/>
      <point x="286" y="679" type="curve" smooth="yes"/>
      <point x="329" y="679"/>
      <point x="360" y="656"/>
      <point x="371" y="623" type="curve"/>
      <point x="418" y="623" type="line"/>
      <point x="436" y="716" type="line"/>
      <point x="396" y="716" type="line"/>
      <point x="373" y="643" type="line"/>
      <point x="400" y="641" type="line"/>
      <point x="392" y="692"/>
      <point x="346" y="720"/>
      <point x="286" y="720" type="curve" smooth="yes"/>
      <point x="212" y="720"/>
      <point x="165" y="687"/>
    </contour>
  </outline>
</glyph>
<glyph name="trademark" format="2">
  <advance width="978"/>
  <unicode hex="2122"/>
  <outline>
    <contour>
      <point x="145" y="394" type="line"/>
      <point x="324" y="394" type="line"/>
      <point x="331" y="430" type="line"/>
      <point x="317" y="430" type="line" smooth="yes"/>
      <point x="290" y="430"/>
      <point x="274" y="434"/>
      <point x="276" y="447" type="curve" smooth="yes"/>
      <point x="322" y="673" type="line"/>
      <point x="350" y="673" type="line" smooth="yes"/>
      <point x="394" y="673"/>
      <point x="411" y="666"/>
      <point x="410" y="652" type="curve" smooth="yes"/>
      <point x="404" y="603" type="line"/>
      <point x="445" y="603" type="line"/>
      <point x="467" y="710" type="line"/>
      <point x="129" y="710" type="line"/>
      <point x="108" y="603" type="line"/>
      <point x="149" y="603" type="line"/>
      <point x="164" y="652" type="line" smooth="yes"/>
      <point x="169" y="666"/>
      <point x="187" y="673"/>
      <point x="231" y="673" type="curve" smooth="yes"/>
      <point x="259" y="673" type="line"/>
      <point x="212" y="447" type="line" smooth="yes"/>
      <point x="210" y="434"/>
      <point x="187" y="430"/>
      <point x="164" y="430" type="curve" smooth="yes"/>
      <point x="152" y="430" type="line"/>
    </contour>
    <contour>
      <point x="446" y="394" type="line"/>
      <point x="585" y="394" type="line"/>
      <point x="591" y="430" type="line"/>
      <point x="589" y="430" type="line" smooth="yes"/>
      <point x="577" y="430"/>
      <point x="554" y="433"/>
      <point x="554" y="435" type="curve" smooth="yes"/>
      <point x="608" y="702" type="line"/>
      <point x="601" y="701" type="line"/>
      <point x="652" y="393" type="line"/>
      <point x="705" y="393" type="line"/>
      <point x="884" y="701" type="line"/>
      <point x="876" y="701" type="line"/>
      <point x="822" y="435" type="line" smooth="yes"/>
      <point x="822" y="433"/>
      <point x="800" y="430"/>
      <point x="787" y="430" type="curve" smooth="yes"/>
      <point x="783" y="430" type="line"/>
      <point x="776" y="394" type="line"/>
      <point x="928" y="394" type="line"/>
      <point x="935" y="430" type="line"/>
      <point x="927" y="430" type="line" smooth="yes"/>
      <point x="902" y="430"/>
      <point x="886" y="434"/>
      <point x="888" y="447" type="curve" smooth="yes"/>
      <point x="932" y="659" type="line" smooth="yes"/>
      <point x="934" y="673"/>
      <point x="953" y="675"/>
      <point x="978" y="675" type="curve" smooth="yes"/>
      <point x="986" y="675" type="line"/>
      <point x="993" y="710" type="line"/>
      <point x="839" y="710" type="line"/>
      <point x="684" y="435" type="line"/>
      <point x="703" y="435" type="line"/>
      <point x="665" y="710" type="line"/>
      <point x="511" y="710" type="line"/>
      <point x="504" y="675" type="line"/>
      <point x="511" y="675" type="line" smooth="yes"/>
      <point x="535" y="675"/>
      <point x="553" y="673"/>
      <point x="551" y="659" type="curve" smooth="yes"/>
      <point x="507" y="447" type="line" smooth="yes"/>
      <point x="505" y="434"/>
      <point x="484" y="430"/>
      <point x="460" y="430" type="curve"/>
      <point x="453" y="430" type="line"/>
    </contour>
  </outline>
</glyph>
<glyph name="estimated" format="2">
  <advance width="966"/>
  <unicode hex="212E"/>
  <outline>
    <contour>
      <point x="210" y="159" type="line"/>
      <point x="277" y="81"/>
      <point x="372" y="45"/>
      <point x="484" y="45" type="curve" smooth="yes"/>
      <point x="645" y="45"/>
      <point x="763" y="122"/>
      <point x="822" y="236" type="curve"/>
      <point x="891" y="236" type="line"/>
      <point x="832" y="98"/>
      <point x="685" y="-10"/>
      <point x="484" y="-10" type="curve" smooth="yes"/>
      <point x="243" y="-10"/>
      <point x="58" y="150"/>
      <point x="58" y="355" type="curve" smooth="yes"/>
      <point x="58" y="560"/>
      <point x="243" y="720"/>
      <point x="484" y="720" type="curve" smooth="yes"/>
      <point x="724" y="720"/>
      <point x="909" y="560"/>
      <point x="909" y="355" type="curve"/>
      <point x="161" y="355" type="line"/>
      <point x="161" y="410" type="line"/>
      <point x="757" y="410" type="line"/>
      <point x="757" y="554" type="line"/>
      <point x="691" y="629"/>
      <point x="595" y="665"/>
      <point x="484" y="665" type="curve" smooth="yes"/>
      <point x="372" y="665"/>
      <point x="277" y="629"/>
      <point x="210" y="554" type="curve"/>
    </contour>
  </outline>
</glyph>
<glyph name="partialdiff" format="2">
  <advance width="652"/>
  <unicode hex="2202"/>
  <outline>
    <contour>
      <point x="269" y="-12" type="curve" smooth="yes"/>
      <point x="459" y="-12"/>
      <point x="591" y="199"/>
      <point x="591" y="456" type="curve" smooth="yes"/>
      <point x="591" y="664"/>
      <point x="494" y="748"/>
      <point x="353" y="748" type="curve" smooth="yes"/>
      <point x="300" y="748"/>
      <point x="242" y="735"/>
      <point x="191" y="706" type="curve"/>
      <point x="219" y="661" type="line"/>
      <point x="259" y="680"/>
      <point x="301" y="693"/>
      <point x="347" y="693" type="curve" smooth="yes"/>
      <point x="435" y="693"/>
      <point x="498" y="643"/>
      <point x="498" y="488" type="curve" smooth="yes"/>
      <point x="498" y="273"/>
      <point x="420" y="43"/>
      <point x="271" y="43" type="curve" smooth="yes"/>
      <point x="192" y="43"/>
      <point x="154" y="97"/>
      <point x="154" y="208" type="curve" smooth="yes"/>
      <point x="154" y="352"/>
      <point x="244" y="463"/>
      <point x="367" y="463" type="curve" smooth="yes"/>
      <point x="443" y="463"/>
      <point x="512" y="426"/>
      <point x="534" y="361" type="curve"/>
      <point x="531" y="468" type="line"/>
      <point x="499" y="488"/>
      <point x="458" y="518"/>
      <point x="371" y="518" type="curve" smooth="yes"/>
      <point x="202" y="518"/>
      <point x="56" y="365"/>
      <point x="56" y="198" type="curve" smooth="yes"/>
      <point x="56" y="83"/>
      <point x="129" y="-12"/>
    </contour>
  </outline>
</glyph>
<glyph name="emptyset" format="2">
  <advance width="803"/>
  <unicode hex="2205"/>
  <outline>
    <contour>
      <point x="383" y="46" type="curve" smooth="yes"/>
      <point x="252" y="46"/>
      <point x="142" y="125"/>
      <point x="142" y="252" type="curve" smooth="yes"/>
      <point x="142" y="391"/>
      <point x="266" y="494"/>
      <point x="422" y="494" type="curve" smooth="yes"/>
      <point x="553" y="494"/>
      <point x="663" y="416"/>
      <point x="663" y="289" type="curve" smooth="yes"/>
      <point x="663" y="149"/>
      <point x="540" y="46"/>
    </contour>
    <contour>
      <point x="379" y="-10" type="curve" smooth="yes"/>
      <point x="573" y="-10"/>
      <point x="728" y="122"/>
      <point x="728" y="289" type="curve" smooth="yes"/>
      <point x="728" y="448"/>
      <point x="581" y="550"/>
      <point x="426" y="550" type="curve" smooth="yes"/>
      <point x="230" y="550"/>
      <point x="77" y="421"/>
      <point x="77" y="252" type="curve" smooth="yes"/>
      <point x="77" y="92"/>
      <point x="224" y="-10"/>
    </contour>
    <contour>
      <point x="23" y="-46" type="line"/>
      <point x="812" y="549" type="line"/>
      <point x="777" y="586" type="line"/>
      <point x="-11" y="-9" type="line"/>
    </contour>
  </outline>
</glyph>
<glyph name="product" format="2">
  <advance width="853"/>
  <unicode hex="220F"/>
  <outline>
    <contour>
      <point x="437" y="662" type="line" smooth="yes"/>
      <point x="394" y="662"/>
      <point x="336" y="659"/>
      <point x="335" y="652" type="curve" smooth="yes"/>
      <point x="169" y="-165" type="line" smooth="yes"/>
      <point x="167" y="-172"/>
      <point x="220" y="-175"/>
      <point x="261" y="-175" type="curve" smooth="yes"/>
      <point x="271" y="-175" type="line"/>
      <point x="263" y="-223" type="line"/>
      <point x="-53" y="-223" type="line"/>
      <point x="-44" y="-175" type="line"/>
      <point x="-31" y="-175" type="line" smooth="yes"/>
      <point x="25" y="-175"/>
      <point x="67" y="-168"/>
      <point x="73" y="-139" type="curve" smooth="yes"/>
      <point x="231" y="626" type="line" smooth="yes"/>
      <point x="236" y="655"/>
      <point x="196" y="662"/>
      <point x="140" y="662" type="curve" smooth="yes"/>
      <point x="127" y="662" type="line"/>
      <point x="136" y="710" type="line"/>
      <point x="884" y="710" type="line"/>
      <point x="876" y="662" type="line"/>
      <point x="863" y="662" type="line" smooth="yes"/>
      <point x="807" y="662"/>
      <point x="764" y="655"/>
      <point x="758" y="626" type="curve" smooth="yes"/>
      <point x="601" y="-139" type="line" smooth="yes"/>
      <point x="595" y="-168"/>
      <point x="636" y="-175"/>
      <point x="692" y="-175" type="curve" smooth="yes"/>
      <point x="705" y="-175" type="line"/>
      <point x="696" y="-223" type="line"/>
      <point x="380" y="-223" type="line"/>
      <point x="389" y="-175" type="line"/>
      <point x="399" y="-175" type="line" smooth="yes"/>
      <point x="442" y="-175"/>
      <point x="496" y="-172"/>
      <point x="497" y="-165" type="curve" smooth="yes"/>
      <point x="663" y="652" type="line" smooth="yes"/>
      <point x="664" y="659"/>
      <point x="609" y="662"/>
      <point x="565" y="662" type="curve" smooth="yes"/>
    </contour>
  </outline>
</glyph>
<glyph name="summation" format="2">
  <advance width="669"/>
  <unicode hex="2211"/>
  <outline>
    <contour>
      <point x="-67" y="-223" type="line"/>
      <point x="-53" y="-134" type="line"/>
      <point x="349" y="271" type="line"/>
      <point x="335" y="215" type="line"/>
      <point x="108" y="631" type="line"/>
      <point x="122" y="710" type="line"/>
      <point x="681" y="710" type="line"/>
      <point x="640" y="500" type="line"/>
      <point x="580" y="500" type="line"/>
      <point x="587" y="594" type="line" smooth="yes"/>
      <point x="589" y="630"/>
      <point x="550" y="637"/>
      <point x="451" y="637" type="curve" smooth="yes"/>
      <point x="171" y="637" type="line"/>
      <point x="188" y="683" type="line"/>
      <point x="411" y="274" type="line"/>
      <point x="404" y="231" type="line"/>
      <point x="-6" y="-189" type="line"/>
      <point x="7" y="-148" type="line"/>
      <point x="320" y="-148" type="line" smooth="yes"/>
      <point x="419" y="-148"/>
      <point x="461" y="-141"/>
      <point x="473" y="-105" type="curve" smooth="yes"/>
      <point x="511" y="4" type="line"/>
      <point x="573" y="4" type="line"/>
      <point x="529" y="-223" type="line"/>
    </contour>
  </outline>
</glyph>
<glyph name="radical" format="2">
  <advance width="703"/>
  <unicode hex="221A"/>
  <outline>
    <contour>
      <point x="49" y="303" type="line"/>
      <point x="241" y="303" type="line"/>
      <point x="172" y="331" type="line"/>
      <point x="242" y="0" type="line"/>
      <point x="320" y="0" type="line"/>
      <point x="332" y="38" type="line"/>
      <point x="269" y="372" type="line"/>
      <point x="60" y="372" type="line"/>
    </contour>
    <contour>
      <point x="678" y="710" type="line"/>
      <point x="280" y="0" type="line"/>
      <point x="353" y="0" type="line"/>
      <point x="757" y="710" type="line"/>
    </contour>
  </outline>
</glyph>
<glyph name="notequal" format="2">
  <advance width="644"/>
  <unicode hex="2260"/>
  <outline>
    <contour>
      <point x="501" y="568" type="line"/>
      <point x="42" y="85" type="line"/>
      <point x="127" y="85" type="line"/>
      <point x="586" y="568" type="line"/>
    </contour>
    <component base="equal" xOffset="-10" yOffset="1"/>
  </outline>
</glyph>
<glyph name="uni25B4" format="2">
  <advance width="742"/>
  <unicode hex="25B4"/>
  <outline>
    <contour>
      <point x="63" y="91" type="line"/>
      <point x="679" y="91" type="line"/>
      <point x="371" y="464" type="line"/>
    </contour>
  </outline>
</glyph>
<glyph name="uni25B9" format="2">
  <advance width="659"/>
  <unicode hex="25B9"/>
  <outline>
    <contour>
      <point x="150" y="545" type="line"/>
      <point x="150" y="10" type="line"/>
      <point x="579" y="277" type="line"/>
    </contour>
    <contour>
      <point x="213" y="460" type="line"/>
      <point x="195" y="453" type="line"/>
      <point x="488" y="272" type="line"/>
      <point x="488" y="283" type="line"/>
      <point x="195" y="102" type="line"/>
      <point x="213" y="95" type="line"/>
    </contour>
  </outline>
</glyph>
<glyph name="uni25BF" format="2">
  <advance width="719"/>
  <unicode hex="25BF"/>
  <outline>
    <contour>
      <point x="667" y="464" type="line"/>
      <point x="52" y="464" type="line"/>
      <point x="359" y="91" type="line"/>
    </contour>
    <contour>
      <point x="569" y="414" type="line"/>
      <point x="561" y="430" type="line"/>
      <point x="353" y="175" type="line"/>
      <point x="366" y="175" type="line"/>
      <point x="158" y="430" type="line"/>
      <point x="150" y="414" type="line"/>
    </contour>
  </outline>
</glyph>
<glyph name="uni25C3" format="2">
  <advance width="659"/>
  <unicode hex="25C3"/>
  <outline>
    <contour>
      <point x="510" y="545" type="line"/>
      <point x="81" y="277" type="line"/>
      <point x="510" y="10" type="line"/>
    </contour>
    <contour>
      <point x="446" y="460" type="line"/>
      <point x="446" y="95" type="line"/>
      <point x="465" y="102" type="line"/>
      <point x="172" y="283" type="line"/>
      <point x="172" y="272" type="line"/>
      <point x="465" y="453" type="line"/>
    </contour>
  </outline>
</glyph>
<glyph name="lozenge" format="2">
  <advance width="718"/>
  <unicode hex="25CA"/>
  <outline>
    <contour>
      <point x="332" y="24" type="line"/>
      <point x="115" y="363" type="line"/>
      <point x="118" y="347" type="line"/>
      <point x="471" y="685" type="line"/>
      <point x="407" y="686" type="line"/>
      <point x="625" y="347" type="line"/>
      <point x="622" y="363" type="line"/>
      <point x="269" y="25" type="line"/>
    </contour>
    <contour>
      <point x="266" y="0" type="line"/>
      <point x="328" y="0" type="line"/>
      <point x="677" y="332" type="line"/>
      <point x="686" y="378" type="line"/>
      <point x="473" y="710" type="line"/>
      <point x="411" y="710" type="line"/>
      <point x="62" y="378" type="line"/>
      <point x="54" y="332" type="line"/>
    </contour>
  </outline>
</glyph>
<glyph name="zero.den" format="2">
  <advance width="373"/>
  <unicode hex="E402"/>
  <outline>
    <contour>
      <point x="231" y="161" type="curve" smooth="yes"/>
      <point x="219" y="99"/>
      <point x="189" y="34"/>
      <point x="132" y="34" type="curve"/>
      <point x="85" y="34"/>
      <point x="71" y="68"/>
      <point x="71" y="115" type="curve" smooth="yes"/>
      <point x="71" y="133"/>
      <point x="73" y="156"/>
      <point x="78" y="181" type="curve" smooth="yes"/>
      <point x="90" y="243"/>
      <point x="120" y="308"/>
      <point x="177" y="308" type="curve"/>
      <point x="224" y="308"/>
      <point x="238" y="274"/>
      <point x="238" y="227" type="curve" smooth="yes"/>
      <point x="238" y="209"/>
      <point x="236" y="186"/>
    </contour>
    <contour>
      <point x="322" y="200" type="curve" smooth="yes"/>
      <point x="322" y="274"/>
      <point x="278" y="348"/>
      <point x="179" y="348" type="curve"/>
      <point x="47" y="348"/>
      <point x="-12" y="229"/>
      <point x="-12" y="142" type="curve" smooth="yes"/>
      <point x="-12" y="68"/>
      <point x="30" y="-6"/>
      <point x="130" y="-6" type="curve" smooth="yes"/>
      <point x="263" y="-6"/>
      <point x="322" y="113"/>
    </contour>
  </outline>
</glyph>
<glyph name="four.den" format="2">
  <advance width="373"/>
  <unicode hex="E406"/>
  <outline>
    <contour>
      <point x="-42" y="85" type="line"/>
      <point x="294" y="85" type="line"/>
      <point x="304" y="138" type="line"/>
      <point x="-3" y="138" type="line"/>
      <point x="-11" y="108" type="line"/>
      <point x="209" y="310" type="line"/>
      <point x="230" y="342" type="line"/>
      <point x="188" y="342" type="line"/>
      <point x="-31" y="142" type="line"/>
    </contour>
    <contour>
      <point x="210" y="0" type="line"/>
      <point x="279" y="342" type="line"/>
      <point x="211" y="342" type="line"/>
      <point x="197" y="312" type="line"/>
      <point x="134" y="0" type="line"/>
    </contour>
  </outline>
</glyph>
<glyph name="seven.den" format="2">
  <advance width="373"/>
  <unicode hex="E409"/>
  <outline>
    <contour>
      <point x="157" y="284" type="line" smooth="yes"/>
      <point x="107" y="284"/>
      <point x="85" y="280"/>
      <point x="79" y="259" type="curve" smooth="yes"/>
      <point x="64" y="213" type="line"/>
      <point x="25" y="213" type="line"/>
      <point x="51" y="342" type="line"/>
      <point x="348" y="342" type="line"/>
      <point x="337" y="287" type="line"/>
      <point x="240" y="204"/>
      <point x="179" y="135"/>
      <point x="159" y="0" type="curve"/>
      <point x="76" y="0" type="line"/>
      <point x="101" y="130"/>
      <point x="242" y="263"/>
      <point x="301" y="297" type="curve"/>
      <point x="309" y="284" type="line"/>
    </contour>
  </outline>
</glyph>
<glyph name="nine.den" format="2">
  <advance width="373"/>
  <unicode hex="E40B"/>
  <outline>
    <contour>
      <point x="178" y="347" type="curve" smooth="yes"/>
      <point x="275" y="347"/>
      <point x="331" y="290"/>
      <point x="331" y="212" type="curve" smooth="yes"/>
      <point x="331" y="97"/>
      <point x="223" y="-15"/>
      <point x="19" y="-19" type="curve"/>
      <point x="19" y="20" type="line"/>
      <point x="168" y="24"/>
      <point x="251" y="107"/>
      <point x="251" y="227" type="curve" smooth="yes"/>
      <point x="251" y="278"/>
      <point x="223" y="308"/>
      <point x="174" y="308" type="curve" smooth="yes"/>
      <point x="121" y="308"/>
      <point x="97" y="270"/>
      <point x="97" y="224" type="curve" smooth="yes"/>
      <point x="97" y="185"/>
      <point x="120" y="159"/>
      <point x="164" y="159" type="curve" smooth="yes"/>
      <point x="210" y="159"/>
      <point x="242" y="183"/>
      <point x="264" y="223" type="curve"/>
      <point x="264" y="190" type="line"/>
      <point x="250" y="154"/>
      <point x="205" y="119"/>
      <point x="142" y="119" type="curve" smooth="yes"/>
      <point x="65" y="119"/>
      <point x="15" y="164"/>
      <point x="15" y="226" type="curve" smooth="yes"/>
      <point x="15" y="291"/>
      <point x="73" y="347"/>
    </contour>
  </outline>
</glyph>
<glyph name="fi" format="2">
  <advance width="714"/>
  <unicode hex="FB01"/>
  <outline>
    <contour>
      <point x="595" y="623" type="curve" smooth="yes"/>
      <point x="633" y="623"/>
      <point x="662" y="647"/>
      <point x="662" y="685" type="curve" smooth="yes"/>
      <point x="662" y="723"/>
      <point x="633" y="746"/>
      <point x="595" y="746" type="curve" smooth="yes"/>
      <point x="556" y="746"/>
      <point x="527" y="723"/>
      <point x="527" y="685" type="curve" smooth="yes"/>
      <point x="527" y="646"/>
      <point x="556" y="623"/>
    </contour>
    <contour>
      <point x="60" y="508" type="line"/>
      <point x="50" y="453" type="line"/>
      <point x="430" y="453" type="line" smooth="yes"/>
      <point x="495" y="453"/>
      <point x="521" y="437"/>
      <point x="515" y="410" type="curve" smooth="yes"/>
      <point x="468" y="181" type="line" smooth="yes"/>
      <point x="456" y="122"/>
      <point x="450" y="99"/>
      <point x="450" y="73" type="curve" smooth="yes"/>
      <point x="450" y="19"/>
      <point x="494" y="-7"/>
      <point x="555" y="-7" type="curve" smooth="yes"/>
      <point x="599" y="-7"/>
      <point x="637" y="7"/>
      <point x="659" y="22" type="curve"/>
      <point x="670" y="75" type="line"/>
      <point x="657" y="71"/>
      <point x="619" y="54"/>
      <point x="584" y="54" type="curve" smooth="yes"/>
      <point x="559" y="54"/>
      <point x="547" y="63"/>
      <point x="547" y="81" type="curve" smooth="yes"/>
      <point x="547" y="96"/>
      <point x="551" y="120"/>
      <point x="559" y="163" type="curve" smooth="yes"/>
      <point x="629" y="508" type="line"/>
    </contour>
    <contour>
      <point x="392" y="694" type="curve" smooth="yes"/>
      <point x="415" y="694"/>
      <point x="439" y="690"/>
      <point x="448" y="688" type="curve"/>
      <point x="459" y="743" type="line"/>
      <point x="451" y="746"/>
      <point x="424" y="751"/>
      <point x="387" y="751" type="curve" smooth="yes"/>
      <point x="287" y="751"/>
      <point x="203" y="705"/>
      <point x="184" y="577" type="curve" smooth="yes"/>
      <point x="63" y="-223" type="line"/>
      <point x="139" y="-223" type="line"/>
      <point x="286" y="582" type="line" smooth="yes"/>
      <point x="302" y="667"/>
      <point x="334" y="694"/>
    </contour>
  </outline>
</glyph>
<glyph name="fl" format="2">
  <advance width="716"/>
  <unicode hex="FB02"/>
  <outline>
    <contour>
      <point x="60" y="508" type="line"/>
      <point x="50" y="453" type="line"/>
      <point x="436" y="453" type="line"/>
      <point x="447" y="508" type="line"/>
    </contour>
    <contour>
      <point x="551" y="106" type="curve"/>
      <point x="676" y="735" type="line"/>
      <point x="479" y="735" type="line"/>
      <point x="573" y="696" type="line"/>
      <point x="460" y="127" type="line" smooth="yes"/>
      <point x="455" y="111"/>
      <point x="451" y="91"/>
      <point x="451" y="75" type="curve" smooth="yes"/>
      <point x="451" y="22"/>
      <point x="492" y="-7"/>
      <point x="553" y="-7" type="curve" smooth="yes"/>
      <point x="599" y="-7"/>
      <point x="635" y="8"/>
      <point x="657" y="22" type="curve"/>
      <point x="668" y="75" type="line"/>
      <point x="648" y="66"/>
      <point x="615" y="54"/>
      <point x="582" y="54" type="curve" smooth="yes"/>
      <point x="557" y="54"/>
      <point x="545" y="60"/>
      <point x="545" y="79" type="curve" smooth="yes"/>
      <point x="545" y="86"/>
      <point x="548" y="95"/>
    </contour>
    <contour>
      <point x="421" y="695" type="curve" smooth="yes"/>
      <point x="506" y="695"/>
      <point x="560" y="662"/>
      <point x="593" y="620" type="curve"/>
      <point x="625" y="683" type="line"/>
      <point x="590" y="712"/>
      <point x="524" y="752"/>
      <point x="423" y="752" type="curve" smooth="yes"/>
      <point x="304" y="752"/>
      <point x="201" y="700"/>
      <point x="180" y="555" type="curve" smooth="yes"/>
      <point x="63" y="-223" type="line"/>
      <point x="139" y="-223" type="line"/>
      <point x="282" y="563" type="line" smooth="yes"/>
      <point x="300" y="662"/>
      <point x="345" y="695"/>
    </contour>
  </outline>
</glyph>
<glyph name="f_f_i" format="2">
  <advance width="1064"/>
  <unicode hex="FB03"/>
  <outline>
    <contour>
      <point x="60" y="508" type="line"/>
      <point x="50" y="453" type="line"/>
      <point x="448" y="453" type="line"/>
      <point x="459" y="508" type="line"/>
    </contour>
    <contour>
      <point x="399" y="681" type="curve" smooth="yes"/>
      <point x="434" y="681"/>
      <point x="465" y="672"/>
      <point x="486" y="665" type="curve"/>
      <point x="497" y="724" type="line"/>
      <point x="483" y="730"/>
      <point x="445" y="738"/>
      <point x="399" y="738" type="curve" smooth="yes"/>
      <point x="297" y="738"/>
      <point x="199" y="690"/>
      <point x="177" y="543" type="curve" smooth="yes"/>
      <point x="63" y="-223" type="line"/>
      <point x="139" y="-223" type="line"/>
      <point x="279" y="550" type="line" smooth="yes"/>
      <point x="298" y="653"/>
      <point x="338" y="681"/>
    </contour>
    <contour>
      <point x="948" y="623" type="curve" smooth="yes"/>
      <point x="987" y="623"/>
      <point x="1016" y="647"/>
      <point x="1016" y="685" type="curve" smooth="yes"/>
      <point x="1016" y="723"/>
      <point x="987" y="746"/>
      <point x="948" y="746" type="curve" smooth="yes"/>
      <point x="910" y="746"/>
      <point x="881" y="723"/>
      <point x="881" y="685" type="curve" smooth="yes"/>
      <point x="881" y="646"/>
      <point x="910" y="623"/>
    </contour>
    <contour>
      <point x="414" y="508" type="line"/>
      <point x="404" y="453" type="line"/>
      <point x="784" y="453" type="line" smooth="yes"/>
      <point x="849" y="453"/>
      <point x="875" y="437"/>
      <point x="869" y="410" type="curve" smooth="yes"/>
      <point x="822" y="181" type="line" smooth="yes"/>
      <point x="810" y="122"/>
      <point x="804" y="99"/>
      <point x="804" y="73" type="curve" smooth="yes"/>
      <point x="804" y="19"/>
      <point x="848" y="-7"/>
      <point x="909" y="-7" type="curve" smooth="yes"/>
      <point x="953" y="-7"/>
      <point x="991" y="7"/>
      <point x="1012" y="22" type="curve"/>
      <point x="1023" y="75" type="line"/>
      <point x="1011" y="71"/>
      <point x="973" y="54"/>
      <point x="938" y="54" type="curve" smooth="yes"/>
      <point x="913" y="54"/>
      <point x="901" y="63"/>
      <point x="901" y="81" type="curve" smooth="yes"/>
      <point x="901" y="96"/>
      <point x="905" y="120"/>
      <point x="913" y="163" type="curve" smooth="yes"/>
      <point x="983" y="508" type="line"/>
    </contour>
    <contour>
      <point x="746" y="694" type="curve" smooth="yes"/>
      <point x="769" y="694"/>
      <point x="793" y="690"/>
      <point x="802" y="688" type="curve"/>
      <point x="813" y="743" type="line"/>
      <point x="805" y="746"/>
      <point x="778" y="751"/>
      <point x="740" y="751" type="curve" smooth="yes"/>
      <point x="641" y="751"/>
      <point x="557" y="705"/>
      <point x="537" y="577" type="curve" smooth="yes"/>
      <point x="422" y="-193" type="line"/>
      <point x="497" y="-193" type="line"/>
      <point x="640" y="582" type="line" smooth="yes"/>
      <point x="656" y="667"/>
      <point x="688" y="694"/>
    </contour>
  </outline>
</glyph>
<glyph name="f_f_l" format="2">
  <advance width="1067"/>
  <unicode hex="FB04"/>
  <outline>
    <contour>
      <point x="60" y="508" type="line"/>
      <point x="50" y="453" type="line"/>
      <point x="448" y="453" type="line"/>
      <point x="459" y="508" type="line"/>
    </contour>
    <contour>
      <point x="414" y="508" type="line"/>
      <point x="404" y="453" type="line"/>
      <point x="791" y="453" type="line"/>
      <point x="801" y="508" type="line"/>
    </contour>
    <contour>
      <point x="399" y="681" type="curve" smooth="yes"/>
      <point x="434" y="681"/>
      <point x="465" y="672"/>
      <point x="486" y="665" type="curve"/>
      <point x="497" y="724" type="line"/>
      <point x="483" y="730"/>
      <point x="445" y="738"/>
      <point x="399" y="738" type="curve" smooth="yes"/>
      <point x="297" y="738"/>
      <point x="199" y="690"/>
      <point x="177" y="543" type="curve" smooth="yes"/>
      <point x="63" y="-223" type="line"/>
      <point x="139" y="-223" type="line"/>
      <point x="279" y="550" type="line" smooth="yes"/>
      <point x="298" y="653"/>
      <point x="338" y="681"/>
    </contour>
    <contour>
      <point x="905" y="106" type="curve"/>
      <point x="1030" y="735" type="line"/>
      <point x="833" y="735" type="line"/>
      <point x="927" y="696" type="line"/>
      <point x="814" y="127" type="line" smooth="yes"/>
      <point x="809" y="111"/>
      <point x="805" y="91"/>
      <point x="805" y="75" type="curve" smooth="yes"/>
      <point x="805" y="22"/>
      <point x="846" y="-7"/>
      <point x="907" y="-7" type="curve" smooth="yes"/>
      <point x="953" y="-7"/>
      <point x="989" y="8"/>
      <point x="1011" y="22" type="curve"/>
      <point x="1022" y="75" type="line"/>
      <point x="1002" y="66"/>
      <point x="968" y="54"/>
      <point x="936" y="54" type="curve" smooth="yes"/>
      <point x="911" y="54"/>
      <point x="900" y="60"/>
      <point x="900" y="79" type="curve" smooth="yes"/>
      <point x="900" y="86"/>
      <point x="902" y="95"/>
    </contour>
    <contour>
      <point x="775" y="695" type="curve" smooth="yes"/>
      <point x="860" y="695"/>
      <point x="914" y="662"/>
      <point x="947" y="620" type="curve"/>
      <point x="978" y="683" type="line"/>
      <point x="944" y="712"/>
      <point x="878" y="752"/>
      <point x="777" y="752" type="curve" smooth="yes"/>
      <point x="658" y="752"/>
      <point x="555" y="700"/>
      <point x="534" y="555" type="curve" smooth="yes"/>
      <point x="422" y="-193" type="line"/>
      <point x="498" y="-193" type="line"/>
      <point x="636" y="563" type="line" smooth="yes"/>
      <point x="654" y="662"/>
      <point x="699" y="695"/>
    </contour>
  </outline>
</glyph>
<glyph name="AE.alt" format="2">
  <advance width="1118"/>
  <outline>
    <contour>
      <point x="278" y="298" type="line"/>
      <point x="232" y="245" type="line"/>
      <point x="564" y="245" type="line"/>
      <point x="570" y="298" type="line"/>
    </contour>
    <contour>
      <point x="-60" y="0" type="line"/>
      <point x="201" y="0" type="line"/>
      <point x="211" y="48" type="line"/>
      <point x="194" y="48" type="line" smooth="yes"/>
      <point x="150" y="48"/>
      <point x="98" y="55"/>
      <point x="101" y="66" type="curve"/>
      <point x="618" y="638" type="line"/>
      <point x="622" y="638" type="line"/>
      <point x="509" y="86" type="line" smooth="yes"/>
      <point x="502" y="53"/>
      <point x="457" y="48"/>
      <point x="404" y="48" type="curve" smooth="yes"/>
      <point x="391" y="48" type="line"/>
      <point x="381" y="0" type="line"/>
      <point x="987" y="0" type="line"/>
      <point x="1031" y="216" type="line"/>
      <point x="969" y="216" type="line"/>
      <point x="931" y="101" type="line" smooth="yes"/>
      <point x="918" y="65"/>
      <point x="878" y="58"/>
      <point x="779" y="58" type="curve" smooth="yes"/>
      <point x="602" y="58" type="line"/>
      <point x="725" y="652" type="line"/>
      <point x="862" y="652" type="line" smooth="yes"/>
      <point x="961" y="652"/>
      <point x="999" y="645"/>
      <point x="998" y="609" type="curve" smooth="yes"/>
      <point x="994" y="519" type="line"/>
      <point x="1054" y="519" type="line"/>
      <point x="1087" y="710" type="line"/>
      <point x="425" y="710" type="line"/>
      <point x="415" y="662" type="line"/>
      <point x="428" y="662" type="line" smooth="yes"/>
      <point x="485" y="662"/>
      <point x="539" y="655"/>
      <point x="534" y="631" type="curve"/>
      <point x="44" y="91" type="line"/>
      <point x="13" y="56"/>
      <point x="-2" y="48"/>
      <point x="-44" y="48" type="curve" smooth="yes"/>
      <point x="-50" y="48" type="line"/>
    </contour>
    <contour>
      <point x="632" y="392" type="line"/>
      <point x="621" y="335" type="line"/>
      <point x="833" y="335" type="line"/>
      <point x="866" y="335"/>
      <point x="868" y="305"/>
      <point x="862" y="270" type="curve" smooth="yes"/>
      <point x="861" y="264" type="line"/>
      <point x="910" y="264" type="line"/>
      <point x="949" y="463" type="line"/>
      <point x="900" y="463" type="line"/>
      <point x="899" y="457" type="line" smooth="yes"/>
      <point x="893" y="422"/>
      <point x="872" y="392"/>
      <point x="838" y="392" type="curve"/>
    </contour>
  </outline>
</glyph>
<glyph name="acute.pl" format="2">
  <advance width="575"/>
  <anchor x="257" y="489" name="_top"/>
  <outline>
    <contour>
      <point x="264" y="672" type="curve" smooth="yes"/>
      <point x="240" y="586" type="line"/>
      <point x="238" y="566" type="line"/>
      <point x="271" y="566" type="line"/>
      <point x="335" y="645" type="line" smooth="yes"/>
      <point x="357" y="677"/>
      <point x="375" y="699"/>
      <point x="375" y="724" type="curve" smooth="yes"/>
      <point x="375" y="747"/>
      <point x="355" y="760"/>
      <point x="332" y="760" type="curve" smooth="yes"/>
      <point x="296" y="760"/>
      <point x="279" y="736"/>
    </contour>
  </outline>
</glyph>
<glyph name="at.uc" format="2">
  <advance width="1035"/>
  <outline>
    <contour>
      <point x="457" y="121" type="curve" smooth="yes"/>
      <point x="541" y="121"/>
      <point x="591" y="183"/>
      <point x="676" y="285" type="curve"/>
      <point x="656" y="314" type="line"/>
      <point x="587" y="224"/>
      <point x="531" y="171"/>
      <point x="467" y="171" type="curve" smooth="yes"/>
      <point x="418" y="171"/>
      <point x="386" y="199"/>
      <point x="386" y="266" type="curve" smooth="yes"/>
      <point x="386" y="376"/>
      <point x="461" y="495"/>
      <point x="557" y="495" type="curve" smooth="yes"/>
      <point x="617" y="495"/>
      <point x="660" y="462"/>
      <point x="668" y="374" type="curve"/>
      <point x="708" y="393" type="line"/>
      <point x="692" y="513"/>
      <point x="638" y="546"/>
      <point x="554" y="546" type="curve" smooth="yes"/>
      <point x="391" y="546"/>
      <point x="295" y="402"/>
      <point x="295" y="282" type="curve" smooth="yes"/>
      <point x="295" y="169"/>
      <point x="374" y="121"/>
    </contour>
    <contour>
      <point x="517" y="-67" type="curve" smooth="yes"/>
      <point x="621" y="-67"/>
      <point x="713" y="-47"/>
      <point x="770" y="-24" type="curve"/>
      <point x="759" y="30" type="line"/>
      <point x="700" y="7"/>
      <point x="618" y="-11"/>
      <point x="517" y="-11" type="curve" smooth="yes"/>
      <point x="300" y="-11"/>
      <point x="126" y="107"/>
      <point x="126" y="301" type="curve" smooth="yes"/>
      <point x="126" y="516"/>
      <point x="320" y="677"/>
      <point x="590" y="677" type="curve" smooth="yes"/>
      <point x="798" y="677"/>
      <point x="921" y="580"/>
      <point x="921" y="431" type="curve" smooth="yes"/>
      <point x="921" y="279"/>
      <point x="835" y="172"/>
      <point x="744" y="172" type="curve" smooth="yes"/>
      <point x="706" y="172"/>
      <point x="684" y="185"/>
      <point x="684" y="211" type="curve" smooth="yes"/>
      <point x="684" y="228"/>
      <point x="688" y="243"/>
      <point x="696" y="269" type="curve"/>
      <point x="778" y="540" type="line"/>
      <point x="724" y="540" type="line"/>
      <point x="677" y="458" type="line"/>
      <point x="662" y="453" type="line"/>
      <point x="593" y="223" type="line"/>
      <point x="600" y="212" type="line"/>
      <point x="600" y="158"/>
      <point x="639" y="121"/>
      <point x="724" y="121" type="curve" smooth="yes"/>
      <point x="859" y="121"/>
      <point x="986" y="244"/>
      <point x="986" y="431" type="curve" smooth="yes"/>
      <point x="986" y="618"/>
      <point x="824" y="733"/>
      <point x="590" y="733" type="curve" smooth="yes"/>
      <point x="288" y="733"/>
      <point x="61" y="547"/>
      <point x="61" y="301" type="curve" smooth="yes"/>
      <point x="61" y="68"/>
      <point x="261" y="-67"/>
    </contour>
  </outline>
</glyph>
<glyph name="backslash.uc" format="2">
  <advance width="483"/>
  <outline>
    <contour>
      <point x="156" y="749" type="line"/>
      <point x="381" y="-39" type="line"/>
      <point x="308" y="-39" type="line"/>
      <point x="83" y="749" type="line"/>
    </contour>
  </outline>
</glyph>
<glyph name="bar.uc" format="2">
  <advance width="322"/>
  <outline>
    <contour>
      <point x="123" y="750" type="line"/>
      <point x="123" y="-40" type="line"/>
      <point x="200" y="-40" type="line"/>
      <point x="200" y="750" type="line"/>
    </contour>
  </outline>
</glyph>
<glyph name="braceleft.uc" format="2">
  <advance width="380"/>
  <outline>
    <contour>
      <point x="28" y="72" type="curve" smooth="yes"/>
      <point x="28" y="-20"/>
      <point x="118" y="-60"/>
      <point x="280" y="-62" type="curve"/>
      <point x="280" y="-62" type="line"/>
      <point x="293" y="-15" type="line"/>
      <point x="293" y="-15" type="line"/>
      <point x="174" y="-10"/>
      <point x="127" y="19"/>
      <point x="127" y="75" type="curve" smooth="yes"/>
      <point x="127" y="150"/>
      <point x="274" y="231"/>
      <point x="274" y="287" type="curve" smooth="yes"/>
      <point x="274" y="322"/>
      <point x="242" y="343"/>
      <point x="126" y="358" type="curve"/>
      <point x="127" y="363" type="line"/>
      <point x="264" y="372"/>
      <point x="293" y="394"/>
      <point x="293" y="434" type="curve" smooth="yes"/>
      <point x="293" y="480"/>
      <point x="233" y="559"/>
      <point x="233" y="616" type="curve" smooth="yes"/>
      <point x="233" y="670"/>
      <point x="278" y="707"/>
      <point x="418" y="715" type="curve" smooth="yes"/>
      <point x="419" y="715"/>
      <point x="420" y="715"/>
      <point x="422" y="715" type="curve"/>
      <point x="415" y="762" type="line"/>
      <point x="414" y="762"/>
      <point x="413" y="762"/>
      <point x="412" y="762" type="curve" smooth="yes"/>
      <point x="244" y="760"/>
      <point x="134" y="717"/>
      <point x="134" y="624" type="curve" smooth="yes"/>
      <point x="134" y="555"/>
      <point x="203" y="467"/>
      <point x="226" y="410" type="curve"/>
      <point x="244" y="427" type="line"/>
      <point x="60" y="385" type="line"/>
      <point x="53" y="344" type="line"/>
      <point x="226" y="283" type="line"/>
      <point x="214" y="305" type="line"/>
      <point x="156" y="238"/>
      <point x="28" y="159"/>
    </contour>
  </outline>
</glyph>
<glyph name="bracketleft.uc" format="2">
  <advance width="376"/>
  <outline>
    <contour>
      <point x="-14" y="-64" type="line"/>
      <point x="255" y="-64" type="line"/>
      <point x="264" y="-13" type="line"/>
      <point x="82" y="-13" type="line"/>
      <point x="231" y="718" type="line"/>
      <point x="408" y="718" type="line"/>
      <point x="418" y="769" type="line"/>
      <point x="155" y="769" type="line"/>
    </contour>
  </outline>
</glyph>
<glyph name="breve_hook.uc" format="2">
  <advance width="575"/>
  <anchor x="283" y="724" name="_top"/>
  <outline>
    <contour>
      <point x="197" y="985" type="line"/>
      <point x="206" y="1030"/>
      <point x="250" y="1056"/>
      <point x="320" y="1056" type="curve" smooth="yes"/>
      <point x="392" y="1056"/>
      <point x="434" y="1030"/>
      <point x="434" y="986" type="curve" smooth="yes"/>
      <point x="434" y="928"/>
      <point x="366" y="909"/>
      <point x="284" y="909" type="curve"/>
      <point x="324" y="934" type="line"/>
      <point x="314" y="884" type="line"/>
      <point x="260" y="884" type="line"/>
      <point x="270" y="937" type="line"/>
      <point x="335" y="941"/>
      <point x="360" y="958"/>
      <point x="360" y="984" type="curve" smooth="yes"/>
      <point x="360" y="1005"/>
      <point x="346" y="1016"/>
      <point x="316" y="1016" type="curve" smooth="yes"/>
      <point x="285" y="1016"/>
      <point x="268" y="1005"/>
      <point x="263" y="985" type="curve"/>
    </contour>
    <contour>
      <point x="285" y="759" type="curve"/>
      <point x="181" y="759"/>
      <point x="128" y="808"/>
      <point x="128" y="877" type="curve" smooth="yes"/>
      <point x="128" y="880"/>
      <point x="128" y="880"/>
      <point x="128" y="883" type="curve"/>
      <point x="196" y="883" type="line"/>
      <point x="200" y="843"/>
      <point x="230" y="826"/>
      <point x="290" y="826" type="curve"/>
      <point x="347" y="826"/>
      <point x="378" y="847"/>
      <point x="392" y="883" type="curve"/>
      <point x="455" y="883" type="line"/>
      <point x="440" y="802"/>
      <point x="373" y="759"/>
    </contour>
  </outline>
</glyph>
<glyph name="breve_tilde" format="2">
  <advance width="575"/>
  <anchor x="293" y="524" name="_top"/>
  <outline>
    <contour>
      <point x="392" y="764" type="curve" smooth="yes"/>
      <point x="449" y="764"/>
      <point x="494" y="796"/>
      <point x="519" y="873" type="curve"/>
      <point x="468" y="896" type="line"/>
      <point x="452" y="856"/>
      <point x="435" y="834"/>
      <point x="406" y="834" type="curve" smooth="yes"/>
      <point x="361" y="834"/>
      <point x="339" y="893"/>
      <point x="263" y="893" type="curve" smooth="yes"/>
      <point x="202" y="893"/>
      <point x="160" y="861"/>
      <point x="139" y="784" type="curve"/>
      <point x="190" y="761" type="line"/>
      <point x="203" y="804"/>
      <point x="222" y="825"/>
      <point x="249" y="825" type="curve" smooth="yes"/>
      <point x="292" y="825"/>
      <point x="308" y="764"/>
    </contour>
    <contour>
      <point x="305" y="578" type="curve" smooth="yes"/>
      <point x="391" y="578"/>
      <point x="460" y="618"/>
      <point x="478" y="720" type="curve"/>
      <point x="416" y="720" type="line"/>
      <point x="398" y="673"/>
      <point x="371" y="648"/>
      <point x="311" y="648" type="curve" smooth="yes"/>
      <point x="243" y="648"/>
      <point x="224" y="682"/>
      <point x="228" y="720" type="curve"/>
      <point x="163" y="720" type="line"/>
      <point x="162" y="716"/>
      <point x="161" y="706"/>
      <point x="161" y="699" type="curve" smooth="yes"/>
      <point x="160" y="630"/>
      <point x="211" y="578"/>
    </contour>
  </outline>
</glyph>
<glyph name="breve_tilde.uc" format="2">
  <advance width="575"/>
  <anchor x="321" y="694" name="_top"/>
  <outline>
    <contour>
      <point x="225" y="970" type="curve" smooth="yes"/>
      <point x="263" y="970"/>
      <point x="291" y="923"/>
      <point x="361" y="923" type="curve" smooth="yes"/>
      <point x="419" y="923"/>
      <point x="456" y="957"/>
      <point x="480" y="1015" type="curve"/>
      <point x="429" y="1039" type="line"/>
      <point x="413" y="1009"/>
      <point x="399" y="989"/>
      <point x="373" y="989" type="curve" smooth="yes"/>
      <point x="327" y="989"/>
      <point x="303" y="1035"/>
      <point x="234" y="1035" type="curve" smooth="yes"/>
      <point x="176" y="1035"/>
      <point x="144" y="1006"/>
      <point x="124" y="943" type="curve"/>
      <point x="175" y="920" type="line"/>
      <point x="186" y="953"/>
      <point x="201" y="970"/>
    </contour>
    <contour>
      <point x="278" y="759" type="curve" smooth="yes"/>
      <point x="176" y="759"/>
      <point x="124" y="805"/>
      <point x="121" y="874" type="curve" smooth="yes"/>
      <point x="121" y="876"/>
      <point x="121" y="877"/>
      <point x="122" y="879" type="curve"/>
      <point x="190" y="879" type="line"/>
      <point x="193" y="844"/>
      <point x="223" y="827"/>
      <point x="283" y="827" type="curve" smooth="yes"/>
      <point x="341" y="827"/>
      <point x="371" y="848"/>
      <point x="386" y="879" type="curve"/>
      <point x="448" y="879" type="line"/>
      <point x="433" y="802"/>
      <point x="365" y="759"/>
    </contour>
  </outline>
</glyph>
<glyph name="brokenbar.uc" format="2">
  <advance width="322"/>
  <outline>
    <contour>
      <point x="123" y="750" type="line"/>
      <point x="123" y="425" type="line"/>
      <point x="200" y="425" type="line"/>
      <point x="200" y="750" type="line"/>
    </contour>
    <contour>
      <point x="123" y="285" type="line"/>
      <point x="123" y="-40" type="line"/>
      <point x="200" y="-40" type="line"/>
      <point x="200" y="285" type="line"/>
    </contour>
  </outline>
</glyph>
<glyph name="caron.alt" format="2">
  <advance width="575"/>
  <anchor x="112" y="574" name="_right"/>
  <outline>
    <contour>
      <point x="166" y="526" type="line"/>
      <point x="108" y="526" type="line"/>
      <point x="110" y="536" type="line"/>
      <point x="164" y="710" type="line"/>
      <point x="263" y="710" type="line"/>
    </contour>
  </outline>
</glyph>
<glyph name="cent.altprop" format="2">
  <advance width="644"/>
  <outline>
    <contour>
      <point x="225" y="-126" type="line"/>
      <point x="291" y="-126" type="line"/>
      <point x="319" y="18" type="line"/>
      <point x="252" y="10" type="line"/>
    </contour>
    <contour>
      <point x="350" y="485" type="line"/>
      <point x="416" y="494" type="line"/>
      <point x="443" y="623" type="line"/>
      <point x="377" y="623" type="line"/>
    </contour>
    <contour>
      <point x="378" y="462" type="curve" smooth="yes"/>
      <point x="480" y="462"/>
      <point x="533" y="422"/>
      <point x="553" y="363" type="curve"/>
      <point x="566" y="398"/>
      <point x="548" y="454"/>
      <point x="515" y="454" type="curve"/>
      <point x="487" y="329" type="line"/>
      <point x="581" y="329" type="line"/>
      <point x="603" y="441" type="line"/>
      <point x="574" y="477"/>
      <point x="503" y="518"/>
      <point x="382" y="518" type="curve" smooth="yes"/>
      <point x="190" y="518"/>
      <point x="53" y="390"/>
      <point x="53" y="221" type="curve" smooth="yes"/>
      <point x="53" y="69"/>
      <point x="168" y="-12"/>
      <point x="312" y="-12" type="curve" smooth="yes"/>
      <point x="419" y="-12"/>
      <point x="512" y="30"/>
      <point x="563" y="131" type="curve"/>
      <point x="510" y="165" type="line"/>
      <point x="486" y="116"/>
      <point x="430" y="44"/>
      <point x="316" y="44" type="curve" smooth="yes"/>
      <point x="213" y="44"/>
      <point x="151" y="102"/>
      <point x="151" y="207" type="curve" smooth="yes"/>
      <point x="151" y="346"/>
      <point x="238" y="462"/>
    </contour>
  </outline>
</glyph>
<glyph name="circumflex_acute.uc" format="2">
  <advance width="587"/>
  <anchor x="296" y="749" name="_top"/>
  <outline>
    <contour>
      <point x="562" y="959" type="curve" smooth="yes"/>
      <point x="500" y="873" type="line"/>
      <point x="499" y="852" type="line"/>
      <point x="527" y="852" type="line"/>
      <point x="615" y="892" type="line" smooth="yes"/>
      <point x="654" y="910"/>
      <point x="678" y="932"/>
      <point x="678" y="958" type="curve" smooth="yes"/>
      <point x="678" y="981"/>
      <point x="659" y="1000"/>
      <point x="632" y="1000" type="curve" smooth="yes"/>
      <point x="604" y="1000"/>
      <point x="583" y="985"/>
    </contour>
    <component base="circumflex.uc" xOffset="1"/>
  </outline>
</glyph>
